%TF.GenerationSoftware,KiCad,Pcbnew,8.0.3*%
%TF.CreationDate,2024-07-30T03:57:46+02:00*%
%TF.ProjectId,iidx_pico,69696478-5f70-4696-936f-2e6b69636164,rev?*%
%TF.SameCoordinates,Original*%
%TF.FileFunction,Profile,NP*%
%FSLAX46Y46*%
G04 Gerber Fmt 4.6, Leading zero omitted, Abs format (unit mm)*
G04 Created by KiCad (PCBNEW 8.0.3) date 2024-07-30 03:57:46*
%MOMM*%
%LPD*%
G01*
G04 APERTURE LIST*
%TA.AperFunction,Profile*%
%ADD10C,0.100000*%
%TD*%
%TA.AperFunction,Profile*%
%ADD11C,0.200000*%
%TD*%
G04 APERTURE END LIST*
D10*
X227320000Y-24400000D02*
X227320000Y-174400000D01*
X222320000Y-19400000D02*
G75*
G02*
X227320000Y-24400000I0J-5000000D01*
G01*
X47320000Y-174400000D02*
X47320000Y-24400000D01*
X52320000Y-19400000D02*
X222320000Y-19400000D01*
X52320000Y-179400000D02*
X222320000Y-179400000D01*
X227320000Y-174400000D02*
G75*
G02*
X222320000Y-179400000I-5000000J0D01*
G01*
X47320000Y-24400000D02*
G75*
G02*
X52320000Y-19400000I5000000J0D01*
G01*
X52320000Y-179400000D02*
G75*
G02*
X47320000Y-174400000I0J5000000D01*
G01*
D11*
%TO.C,SW5*%
X161820000Y-153250000D02*
X161820000Y-159550000D01*
X161820000Y-129250000D02*
X161820000Y-135550000D01*
X155220000Y-159550000D02*
X161820000Y-159550000D01*
X155220000Y-158000000D02*
X155220000Y-159550000D01*
X155220000Y-158000000D02*
X151720000Y-158000000D01*
X155220000Y-154800000D02*
X151720000Y-154800000D01*
X155220000Y-153250000D02*
X161820000Y-153250000D01*
X155220000Y-153250000D02*
X155220000Y-154800000D01*
X155220000Y-135550000D02*
X161820000Y-135550000D01*
X155220000Y-134000000D02*
X155220000Y-135550000D01*
X155220000Y-134000000D02*
X151720000Y-134000000D01*
X155220000Y-130800000D02*
X151720000Y-130800000D01*
X155220000Y-129250000D02*
X161820000Y-129250000D01*
X155220000Y-129250000D02*
X155220000Y-130800000D01*
X151720000Y-154800000D02*
X151720000Y-158000000D01*
X151720000Y-130800000D02*
X151720000Y-134000000D01*
%TO.C,SW2*%
X100320000Y-97250000D02*
X100320000Y-103550000D01*
X100320000Y-73250000D02*
X100320000Y-79550000D01*
X93720000Y-103550000D02*
X100320000Y-103550000D01*
X93720000Y-102000000D02*
X93720000Y-103550000D01*
X93720000Y-102000000D02*
X90220000Y-102000000D01*
X93720000Y-98800000D02*
X90220000Y-98800000D01*
X93720000Y-97250000D02*
X100320000Y-97250000D01*
X93720000Y-97250000D02*
X93720000Y-98800000D01*
X93720000Y-79550000D02*
X100320000Y-79550000D01*
X93720000Y-78000000D02*
X93720000Y-79550000D01*
X93720000Y-78000000D02*
X90220000Y-78000000D01*
X93720000Y-74800000D02*
X90220000Y-74800000D01*
X93720000Y-73250000D02*
X100320000Y-73250000D01*
X93720000Y-73250000D02*
X93720000Y-74800000D01*
X90220000Y-98800000D02*
X90220000Y-102000000D01*
X90220000Y-74800000D02*
X90220000Y-78000000D01*
%TO.C,SW3*%
X120820000Y-153250000D02*
X120820000Y-159550000D01*
X120820000Y-129250000D02*
X120820000Y-135550000D01*
X114220000Y-159550000D02*
X120820000Y-159550000D01*
X114220000Y-158000000D02*
X114220000Y-159550000D01*
X114220000Y-158000000D02*
X110720000Y-158000000D01*
X114220000Y-154800000D02*
X110720000Y-154800000D01*
X114220000Y-153250000D02*
X120820000Y-153250000D01*
X114220000Y-153250000D02*
X114220000Y-154800000D01*
X114220000Y-135550000D02*
X120820000Y-135550000D01*
X114220000Y-134000000D02*
X114220000Y-135550000D01*
X114220000Y-134000000D02*
X110720000Y-134000000D01*
X114220000Y-130800000D02*
X110720000Y-130800000D01*
X114220000Y-129250000D02*
X120820000Y-129250000D01*
X114220000Y-129250000D02*
X114220000Y-130800000D01*
X110720000Y-154800000D02*
X110720000Y-158000000D01*
X110720000Y-130800000D02*
X110720000Y-134000000D01*
%TO.C,SW6*%
X182320000Y-97250000D02*
X182320000Y-103550000D01*
X182320000Y-73250000D02*
X182320000Y-79550000D01*
X175720000Y-103550000D02*
X182320000Y-103550000D01*
X175720000Y-102000000D02*
X175720000Y-103550000D01*
X175720000Y-102000000D02*
X172220000Y-102000000D01*
X175720000Y-98800000D02*
X172220000Y-98800000D01*
X175720000Y-97250000D02*
X182320000Y-97250000D01*
X175720000Y-97250000D02*
X175720000Y-98800000D01*
X175720000Y-79550000D02*
X182320000Y-79550000D01*
X175720000Y-78000000D02*
X175720000Y-79550000D01*
X175720000Y-78000000D02*
X172220000Y-78000000D01*
X175720000Y-74800000D02*
X172220000Y-74800000D01*
X175720000Y-73250000D02*
X182320000Y-73250000D01*
X175720000Y-73250000D02*
X175720000Y-74800000D01*
X172220000Y-98800000D02*
X172220000Y-102000000D01*
X172220000Y-74800000D02*
X172220000Y-78000000D01*
%TO.C,SW7*%
X202820000Y-153250000D02*
X202820000Y-159550000D01*
X202820000Y-129250000D02*
X202820000Y-135550000D01*
X196220000Y-159550000D02*
X202820000Y-159550000D01*
X196220000Y-158000000D02*
X196220000Y-159550000D01*
X196220000Y-158000000D02*
X192720000Y-158000000D01*
X196220000Y-154800000D02*
X192720000Y-154800000D01*
X196220000Y-153250000D02*
X202820000Y-153250000D01*
X196220000Y-153250000D02*
X196220000Y-154800000D01*
X196220000Y-135550000D02*
X202820000Y-135550000D01*
X196220000Y-134000000D02*
X196220000Y-135550000D01*
X196220000Y-134000000D02*
X192720000Y-134000000D01*
X196220000Y-130800000D02*
X192720000Y-130800000D01*
X196220000Y-129250000D02*
X202820000Y-129250000D01*
X196220000Y-129250000D02*
X196220000Y-130800000D01*
X192720000Y-154800000D02*
X192720000Y-158000000D01*
X192720000Y-130800000D02*
X192720000Y-134000000D01*
%TO.C,SW4*%
X141320000Y-97250000D02*
X141320000Y-103550000D01*
X141320000Y-73250000D02*
X141320000Y-79550000D01*
X134720000Y-103550000D02*
X141320000Y-103550000D01*
X134720000Y-102000000D02*
X134720000Y-103550000D01*
X134720000Y-102000000D02*
X131220000Y-102000000D01*
X134720000Y-98800000D02*
X131220000Y-98800000D01*
X134720000Y-97250000D02*
X141320000Y-97250000D01*
X134720000Y-97250000D02*
X134720000Y-98800000D01*
X134720000Y-79550000D02*
X141320000Y-79550000D01*
X134720000Y-78000000D02*
X134720000Y-79550000D01*
X134720000Y-78000000D02*
X131220000Y-78000000D01*
X134720000Y-74800000D02*
X131220000Y-74800000D01*
X134720000Y-73250000D02*
X141320000Y-73250000D01*
X134720000Y-73250000D02*
X134720000Y-74800000D01*
X131220000Y-98800000D02*
X131220000Y-102000000D01*
X131220000Y-74800000D02*
X131220000Y-78000000D01*
%TO.C,SW1*%
X79820000Y-153250000D02*
X79820000Y-159550000D01*
X79820000Y-129250000D02*
X79820000Y-135550000D01*
X73220000Y-159550000D02*
X79820000Y-159550000D01*
X73220000Y-158000000D02*
X73220000Y-159550000D01*
X73220000Y-158000000D02*
X69720000Y-158000000D01*
X73220000Y-154800000D02*
X69720000Y-154800000D01*
X73220000Y-153250000D02*
X79820000Y-153250000D01*
X73220000Y-153250000D02*
X73220000Y-154800000D01*
X73220000Y-135550000D02*
X79820000Y-135550000D01*
X73220000Y-134000000D02*
X73220000Y-135550000D01*
X73220000Y-134000000D02*
X69720000Y-134000000D01*
X73220000Y-130800000D02*
X69720000Y-130800000D01*
X73220000Y-129250000D02*
X79820000Y-129250000D01*
X73220000Y-129250000D02*
X73220000Y-130800000D01*
X69720000Y-154800000D02*
X69720000Y-158000000D01*
X69720000Y-130800000D02*
X69720000Y-134000000D01*
%TD*%
M02*
