%TF.GenerationSoftware,KiCad,Pcbnew,8.0.3*%
%TF.CreationDate,2024-07-30T03:57:46+02:00*%
%TF.ProjectId,iidx_pico,69696478-5f70-4696-936f-2e6b69636164,rev?*%
%TF.SameCoordinates,Original*%
%TF.FileFunction,Paste,Bot*%
%TF.FilePolarity,Positive*%
%FSLAX46Y46*%
G04 Gerber Fmt 4.6, Leading zero omitted, Abs format (unit mm)*
G04 Created by KiCad (PCBNEW 8.0.3) date 2024-07-30 03:57:46*
%MOMM*%
%LPD*%
G01*
G04 APERTURE LIST*
G04 Aperture macros list*
%AMRoundRect*
0 Rectangle with rounded corners*
0 $1 Rounding radius*
0 $2 $3 $4 $5 $6 $7 $8 $9 X,Y pos of 4 corners*
0 Add a 4 corners polygon primitive as box body*
4,1,4,$2,$3,$4,$5,$6,$7,$8,$9,$2,$3,0*
0 Add four circle primitives for the rounded corners*
1,1,$1+$1,$2,$3*
1,1,$1+$1,$4,$5*
1,1,$1+$1,$6,$7*
1,1,$1+$1,$8,$9*
0 Add four rect primitives between the rounded corners*
20,1,$1+$1,$2,$3,$4,$5,0*
20,1,$1+$1,$4,$5,$6,$7,0*
20,1,$1+$1,$6,$7,$8,$9,0*
20,1,$1+$1,$8,$9,$2,$3,0*%
G04 Aperture macros list end*
%ADD10RoundRect,0.200000X0.200000X0.275000X-0.200000X0.275000X-0.200000X-0.275000X0.200000X-0.275000X0*%
%ADD11RoundRect,0.250000X-1.100000X0.250000X-1.100000X-0.250000X1.100000X-0.250000X1.100000X0.250000X0*%
%ADD12RoundRect,0.150000X-0.700000X0.150000X-0.700000X-0.150000X0.700000X-0.150000X0.700000X0.150000X0*%
%ADD13RoundRect,0.150000X0.700000X-0.150000X0.700000X0.150000X-0.700000X0.150000X-0.700000X-0.150000X0*%
%ADD14RoundRect,0.250000X1.100000X-0.250000X1.100000X0.250000X-1.100000X0.250000X-1.100000X-0.250000X0*%
%ADD15R,0.500000X0.800000*%
%ADD16R,0.400000X0.800000*%
%ADD17RoundRect,0.150000X-0.150000X0.512500X-0.150000X-0.512500X0.150000X-0.512500X0.150000X0.512500X0*%
%ADD18RoundRect,0.243750X-0.456250X0.243750X-0.456250X-0.243750X0.456250X-0.243750X0.456250X0.243750X0*%
%ADD19RoundRect,0.225000X-0.250000X0.225000X-0.250000X-0.225000X0.250000X-0.225000X0.250000X0.225000X0*%
%ADD20RoundRect,0.150000X-0.150000X0.587500X-0.150000X-0.587500X0.150000X-0.587500X0.150000X0.587500X0*%
%ADD21RoundRect,0.200000X-0.275000X0.200000X-0.275000X-0.200000X0.275000X-0.200000X0.275000X0.200000X0*%
%ADD22RoundRect,0.150000X0.150000X-0.587500X0.150000X0.587500X-0.150000X0.587500X-0.150000X-0.587500X0*%
%ADD23RoundRect,0.225000X0.250000X-0.225000X0.250000X0.225000X-0.250000X0.225000X-0.250000X-0.225000X0*%
%ADD24RoundRect,0.250000X-0.475000X0.250000X-0.475000X-0.250000X0.475000X-0.250000X0.475000X0.250000X0*%
%ADD25RoundRect,0.150000X0.150000X-0.512500X0.150000X0.512500X-0.150000X0.512500X-0.150000X-0.512500X0*%
G04 APERTURE END LIST*
D10*
%TO.C,R2*%
X185345000Y-53200000D03*
X183695000Y-53200000D03*
%TD*%
D11*
%TO.C,J2*%
X200170000Y-104375000D03*
X200170000Y-94425000D03*
D12*
X196970000Y-102525000D03*
X196970000Y-101275000D03*
X196970000Y-100025000D03*
X196970000Y-98775000D03*
X196970000Y-97525000D03*
X196970000Y-96275000D03*
%TD*%
D13*
%TO.C,J1*%
X77670000Y-102525000D03*
X77670000Y-101275000D03*
X77670000Y-100025000D03*
X77670000Y-98775000D03*
X77670000Y-97525000D03*
X77670000Y-96275000D03*
D14*
X74470000Y-104375000D03*
X74470000Y-94425000D03*
%TD*%
D10*
%TO.C,R1*%
X185345000Y-51600000D03*
X183695000Y-51600000D03*
%TD*%
D15*
%TO.C,RN2*%
X202880000Y-81100000D03*
D16*
X202080000Y-81100000D03*
X201280000Y-81100000D03*
D15*
X200480000Y-81100000D03*
X200480000Y-82900000D03*
D16*
X201280000Y-82900000D03*
X202080000Y-82900000D03*
D15*
X202880000Y-82900000D03*
%TD*%
D17*
%TO.C,U2*%
X76370000Y-74162500D03*
X77320000Y-74162500D03*
X78270000Y-74162500D03*
X78270000Y-76437500D03*
X76370000Y-76437500D03*
%TD*%
D15*
%TO.C,RN1*%
X74170000Y-83100000D03*
D16*
X73370000Y-83100000D03*
X72570000Y-83100000D03*
D15*
X71770000Y-83100000D03*
X71770000Y-81300000D03*
D16*
X72570000Y-81300000D03*
X73370000Y-81300000D03*
D15*
X74170000Y-81300000D03*
%TD*%
D18*
%TO.C,F5*%
X199320000Y-91137500D03*
X199320000Y-89262500D03*
%TD*%
D19*
%TO.C,C3*%
X123520000Y-30150000D03*
X123520000Y-31700000D03*
%TD*%
D20*
%TO.C,D3*%
X76970000Y-85462500D03*
X78870000Y-85462500D03*
X77920000Y-87337500D03*
%TD*%
%TO.C,D4*%
X202920000Y-91137500D03*
X203870000Y-89262500D03*
X201970000Y-89262500D03*
%TD*%
D19*
%TO.C,C2*%
X128520000Y-58675000D03*
X128520000Y-57125000D03*
%TD*%
D21*
%TO.C,R3*%
X125020000Y-30075000D03*
X125020000Y-31725000D03*
%TD*%
D22*
%TO.C,D6*%
X197670000Y-87137500D03*
X195770000Y-87137500D03*
X196720000Y-85262500D03*
%TD*%
D23*
%TO.C,C1*%
X74720000Y-76675000D03*
X74720000Y-75125000D03*
%TD*%
D18*
%TO.C,F2*%
X78520000Y-89462500D03*
X78520000Y-91337500D03*
%TD*%
%TO.C,F1*%
X117070000Y-30212500D03*
X117070000Y-32087500D03*
%TD*%
D20*
%TO.C,D1*%
X70770000Y-89462500D03*
X72670000Y-89462500D03*
X71720000Y-91337500D03*
%TD*%
D22*
%TO.C,D5*%
X200320000Y-85262500D03*
X199370000Y-87137500D03*
X201270000Y-87137500D03*
%TD*%
D18*
%TO.C,F4*%
X196120000Y-91137500D03*
X196120000Y-89262500D03*
%TD*%
D24*
%TO.C,C4*%
X117070000Y-34200000D03*
X117070000Y-36100000D03*
%TD*%
D25*
%TO.C,U3*%
X126870000Y-57262500D03*
X124970000Y-57262500D03*
X124970000Y-59537500D03*
X125920000Y-59537500D03*
X126870000Y-59537500D03*
%TD*%
%TO.C,U4*%
X121520000Y-32537500D03*
X120570000Y-32537500D03*
X119620000Y-32537500D03*
X119620000Y-30262500D03*
X120570000Y-30262500D03*
X121520000Y-30262500D03*
%TD*%
D18*
%TO.C,F3*%
X75720000Y-89462500D03*
X75720000Y-91337500D03*
%TD*%
D20*
%TO.C,D2*%
X73370000Y-85462500D03*
X75270000Y-85462500D03*
X74320000Y-87337500D03*
%TD*%
M02*
