M48
; DRILL file {KiCad 8.0.3} date 2024-07-30T03:57:48+0200
; FORMAT={-:-/ absolute / inch / decimal}
; #@! TF.CreationDate,2024-07-30T03:57:48+02:00
; #@! TF.GenerationSoftware,Kicad,Pcbnew,8.0.3
; #@! TF.FileFunction,Plated,1,2,PTH
FMAT,2
INCH
; #@! TA.AperFunction,Plated,PTH,ViaDrill
T1C0.0157
; #@! TA.AperFunction,Plated,PTH,ComponentDrill
T2C0.0157
; #@! TA.AperFunction,Plated,PTH,ComponentDrill
T3C0.0236
; #@! TA.AperFunction,Plated,PTH,ComponentDrill
T4C0.0402
; #@! TA.AperFunction,Plated,PTH,ComponentDrill
T5C0.0472
; #@! TA.AperFunction,Plated,PTH,ComponentDrill
T6C0.0630
%
G90
G05
T1
X2.4929Y-1.685
X2.5362Y-5.9055
X2.5362Y-6.8504
X2.6189Y-1.8898
X2.6701Y-6.252
X2.674Y-5.1299
X2.674Y-6.0748
X2.7136Y-6.0165
X2.7213Y-1.5039
X2.7528Y-3.0787
X2.8236Y-3.6476
X2.8433Y-5.5118
X2.8433Y-5.5827
X2.8561Y-5.315
X2.924Y-3.4906
X2.9634Y-3.3091
X2.9969Y-3.0787
X3.0323Y-3.439
X3.0815Y-2.8622
X3.115Y-3.063
X3.1189Y-5.9055
X3.1189Y-6.8504
X3.1268Y-4.0394
X3.2528Y-6.252
X3.2567Y-5.1299
X3.2567Y-6.0748
X3.3433Y-5.6142
X3.4142Y-1.7402
X3.4417Y-3.4104
X3.4457Y-3.1063
X3.4772Y-4.0472
X3.4811Y-2.9252
X3.4811Y-3.8701
X3.5205Y-3.1063
X3.7685Y-3.7756
X3.8Y-2.063
X3.926Y-3.7008
X4.0205Y-1.5039
X4.0598Y-4.0472
X4.0638Y-2.9252
X4.0638Y-3.8701
X4.1494Y-3.4104
X4.1504Y-5.9055
X4.1504Y-6.8504
X4.2843Y-6.252
X4.2882Y-5.1299
X4.2882Y-6.0748
X4.3276Y-6.0197
X4.4575Y-5.5118
X4.4575Y-5.5827
X4.4693Y-5.315
X4.5894Y-1.4626
X4.6228Y-1.6772
X4.6287Y-1.4626
X4.6622Y-1.6772
X4.6622Y-4.0472
X4.7331Y-5.9055
X4.7331Y-6.8504
X4.7469Y-1.3327
X4.863Y-1.2992
X4.8669Y-6.252
X4.8709Y-5.1299
X4.8709Y-6.0748
X4.8748Y-2.3465
X4.8906Y-1.7362
X4.9201Y-2.1339
X4.922Y-1.2992
X4.9565Y-5.6152
X4.9575Y-4.0472
X4.9949Y-1.6772
X5.0559Y-3.4104
X5.0598Y-3.1063
X5.0913Y-4.0472
X5.0953Y-2.9252
X5.0953Y-3.8701
X5.111Y-2.311
X5.1346Y-3.1063
X5.3197Y-1.5039
X5.3827Y-3.7756
X5.5402Y-3.7008
X5.674Y-4.0472
X5.678Y-2.9252
X5.678Y-3.8701
X5.7636Y-3.4104
X5.7646Y-5.9055
X5.7646Y-6.8504
X5.8984Y-6.252
X5.9024Y-5.1299
X5.9024Y-6.0748
X5.9417Y-6.0197
X6.0677Y-4.0472
X6.0717Y-5.5118
X6.0717Y-5.5827
X6.0844Y-5.315
X6.3472Y-5.9055
X6.3472Y-6.8504
X6.4811Y-6.252
X6.485Y-5.1299
X6.485Y-6.0748
X6.5707Y-5.6152
X6.5717Y-4.0472
X6.6189Y-1.5039
X6.6701Y-3.4104
X6.674Y-3.1063
X6.7055Y-4.0472
X6.7094Y-2.9252
X6.7094Y-3.8701
X6.7488Y-3.1063
X6.9969Y-3.7756
X7.1543Y-3.7008
X7.2321Y-1.9843
X7.2882Y-4.0472
X7.2921Y-2.9252
X7.2921Y-3.8701
X7.3512Y-2.0394
X7.3512Y-2.0866
X7.3512Y-2.1339
X7.3778Y-3.4104
X7.5126Y-6.252
X7.5165Y-5.1299
X7.5165Y-6.0748
X7.5185Y-5.3445
X7.548Y-2.5157
X7.5559Y-6.0197
X7.6189Y-2.5906
X7.6858Y-5.5118
X7.6858Y-5.5827
X7.6976Y-5.315
X7.7075Y-3.248
X7.7449Y-3.3066
X7.7764Y-2.6693
X7.8197Y-1.3543
X7.8492Y-3.248
X7.8866Y-3.3046
X7.9024Y-3.7677
X7.9614Y-5.9055
X7.989Y-3.6403
X8.0953Y-6.252
X8.0992Y-5.1299
X8.0992Y-6.0748
X8.1848Y-5.6152
X8.2528Y-1.3543
T2
X4.6297Y-1.0463
X4.6297Y-1.0994
X4.6632Y-1.0463
X4.6632Y-1.0994
X4.6967Y-1.0463
X4.6967Y-1.0994
X4.7301Y-1.0463
X4.7301Y-1.0994
X4.7636Y-1.0463
X4.7636Y-1.0994
X4.797Y-1.0463
X4.797Y-1.0994
X4.8305Y-1.0463
X4.8305Y-1.0994
X4.864Y-1.0463
X4.864Y-1.0994
T4
X2.7831Y-1.8902
X2.7831Y-2.5902
X2.7921Y-2.1402
X2.7921Y-2.2402
X2.7921Y-2.3402
X2.8831Y-1.8902
X2.8831Y-2.5902
X2.9831Y-1.8902
X2.9831Y-2.5902
X3.0831Y-1.8902
X3.0831Y-2.5902
X3.1831Y-1.8902
X3.1831Y-2.5902
X3.2831Y-1.8902
X3.2831Y-2.5902
X3.3831Y-1.8902
X3.3831Y-2.5902
X3.4831Y-1.8902
X3.4831Y-2.5902
X3.5831Y-1.8902
X3.5831Y-2.5902
X3.6831Y-1.8902
X3.6831Y-2.5902
X3.7831Y-1.8902
X3.7831Y-2.5902
X3.8831Y-1.8902
X3.8831Y-2.5902
X3.9831Y-1.8902
X3.9831Y-2.5902
X4.0831Y-1.8902
X4.0831Y-2.5902
X4.1831Y-1.8902
X4.1831Y-2.5902
X4.2831Y-1.8902
X4.2831Y-2.5902
X4.3831Y-1.8902
X4.3831Y-2.5902
X4.4831Y-1.8902
X4.4831Y-2.5902
X4.5831Y-1.8902
X4.5831Y-2.5902
X4.6831Y-1.8902
X4.6831Y-2.5902
T5
X2.8472Y-1.122
X2.985Y-5.4528
X3.0441Y-1.2047
X3.1819Y-5.5354
X3.7921Y-3.248
X3.989Y-3.3307
X4.1465Y-1.122
X4.3433Y-1.2047
X4.5992Y-5.4528
X4.7961Y-5.5354
X5.4063Y-3.248
X5.4457Y-1.122
X5.6031Y-3.3307
X5.6425Y-1.2047
X6.2134Y-5.4528
X6.4102Y-5.5354
X6.7449Y-1.122
X6.9417Y-1.2047
X7.0205Y-3.248
X7.2173Y-3.3307
X7.8276Y-5.4528
X8.0244Y-5.5354
T6
X2.6504Y-1.5571
X2.7882Y-5.8878
X3.5953Y-3.6831
X3.9496Y-1.5571
X4.4024Y-5.8878
X5.2094Y-3.6831
X5.2488Y-1.5571
X6.0165Y-5.8878
X6.548Y-1.5571
X6.8236Y-3.6831
X7.6307Y-5.8878
T3
G00X4.5766Y-0.912
M15
G01X4.5766Y-0.9435
M16
G05
G00X4.5766Y-1.0313
M15
G01X4.5766Y-1.0904
M16
G05
G00X4.9171Y-0.912
M15
G01X4.9171Y-0.9435
M16
G05
G00X4.9171Y-1.0313
M15
G01X4.9171Y-1.0904
M16
G05
T5
G00X4.5547Y-2.2402
M15
G01X4.5941Y-2.2402
M16
G05
G00X4.6839Y-2.2008
M15
G01X4.7232Y-2.2008
M16
G05
G00X4.6846Y-2.2795
M15
G01X4.724Y-2.2795
M16
G05
M30
