%TF.GenerationSoftware,KiCad,Pcbnew,8.0.3*%
%TF.CreationDate,2024-07-30T03:57:46+02:00*%
%TF.ProjectId,iidx_pico,69696478-5f70-4696-936f-2e6b69636164,rev?*%
%TF.SameCoordinates,Original*%
%TF.FileFunction,Soldermask,Top*%
%TF.FilePolarity,Negative*%
%FSLAX46Y46*%
G04 Gerber Fmt 4.6, Leading zero omitted, Abs format (unit mm)*
G04 Created by KiCad (PCBNEW 8.0.3) date 2024-07-30 03:57:46*
%MOMM*%
%LPD*%
G01*
G04 APERTURE LIST*
G04 Aperture macros list*
%AMRoundRect*
0 Rectangle with rounded corners*
0 $1 Rounding radius*
0 $2 $3 $4 $5 $6 $7 $8 $9 X,Y pos of 4 corners*
0 Add a 4 corners polygon primitive as box body*
4,1,4,$2,$3,$4,$5,$6,$7,$8,$9,$2,$3,0*
0 Add four circle primitives for the rounded corners*
1,1,$1+$1,$2,$3*
1,1,$1+$1,$4,$5*
1,1,$1+$1,$6,$7*
1,1,$1+$1,$8,$9*
0 Add four rect primitives between the rounded corners*
20,1,$1+$1,$2,$3,$4,$5,0*
20,1,$1+$1,$4,$5,$6,$7,0*
20,1,$1+$1,$6,$7,$8,$9,0*
20,1,$1+$1,$8,$9,$2,$3,0*%
G04 Aperture macros list end*
%ADD10RoundRect,0.225000X-0.225000X-0.250000X0.225000X-0.250000X0.225000X0.250000X-0.225000X0.250000X0*%
%ADD11O,1.700000X1.700000*%
%ADD12R,1.700000X1.700000*%
%ADD13RoundRect,0.300000X0.950000X-0.450000X0.950000X0.450000X-0.950000X0.450000X-0.950000X-0.450000X0*%
%ADD14RoundRect,0.225000X0.225000X0.250000X-0.225000X0.250000X-0.225000X-0.250000X0.225000X-0.250000X0*%
%ADD15RoundRect,0.225000X0.250000X-0.225000X0.250000X0.225000X-0.250000X0.225000X-0.250000X-0.225000X0*%
%ADD16R,0.600000X1.000000*%
%ADD17R,1.800000X1.000000*%
%ADD18C,1.900000*%
%ADD19C,1.250000*%
%ADD20C,5.050000*%
%ADD21C,1.650000*%
%ADD22C,3.200000*%
%ADD23R,1.524000X2.286000*%
%ADD24RoundRect,0.200000X-0.200000X-0.275000X0.200000X-0.275000X0.200000X0.275000X-0.200000X0.275000X0*%
%ADD25C,0.700000*%
%ADD26O,0.900000X1.700000*%
%ADD27O,0.900000X2.400000*%
G04 APERTURE END LIST*
D10*
%TO.C,C8*%
X111045000Y-135000000D03*
X112595000Y-135000000D03*
%TD*%
%TO.C,C6*%
X70070000Y-135000000D03*
X71620000Y-135000000D03*
%TD*%
%TO.C,C10*%
X152070000Y-135000000D03*
X153620000Y-135000000D03*
%TD*%
D11*
%TO.C,U1*%
X118950000Y-65790000D03*
X116410000Y-65790000D03*
D12*
X113870000Y-65790000D03*
D11*
X111330000Y-65790000D03*
X108790000Y-65790000D03*
X106250000Y-65790000D03*
X103710000Y-65790000D03*
D12*
X101170000Y-65790000D03*
D11*
X98630000Y-65790000D03*
X96090000Y-65790000D03*
X93550000Y-65790000D03*
X91010000Y-65790000D03*
D12*
X88470000Y-65790000D03*
D11*
X85930000Y-65790000D03*
X83390000Y-65790000D03*
X80850000Y-65790000D03*
X78310000Y-65790000D03*
D12*
X75770000Y-65790000D03*
D11*
X73230000Y-65790000D03*
X70690000Y-65790000D03*
X70690000Y-48010000D03*
X73230000Y-48010000D03*
D12*
X75770000Y-48010000D03*
D11*
X78310000Y-48010000D03*
X80850000Y-48010000D03*
X83390000Y-48010000D03*
X85930000Y-48010000D03*
D12*
X88470000Y-48010000D03*
D11*
X91010000Y-48010000D03*
X93550000Y-48010000D03*
X96090000Y-48010000D03*
X98630000Y-48010000D03*
D12*
X101170000Y-48010000D03*
D11*
X103710000Y-48010000D03*
X106250000Y-48010000D03*
X108790000Y-48010000D03*
X111330000Y-48010000D03*
D12*
X113870000Y-48010000D03*
D11*
X116410000Y-48010000D03*
X118950000Y-48010000D03*
X70920000Y-59440000D03*
D12*
X70920000Y-56900000D03*
D11*
X70920000Y-54360000D03*
D13*
X116190000Y-56900000D03*
X119470000Y-55900000D03*
X119490000Y-57900000D03*
%TD*%
D14*
%TO.C,C20*%
X89395000Y-44200000D03*
X87845000Y-44200000D03*
%TD*%
%TO.C,C19*%
X126895000Y-44100000D03*
X125345000Y-44100000D03*
%TD*%
D15*
%TO.C,C17*%
X187395000Y-89200000D03*
X187395000Y-87650000D03*
%TD*%
%TO.C,C18*%
X169420000Y-89200000D03*
X169420000Y-87650000D03*
%TD*%
%TO.C,C15*%
X146395000Y-89200000D03*
X146395000Y-87650000D03*
%TD*%
%TO.C,C16*%
X128420000Y-89200000D03*
X128420000Y-87650000D03*
%TD*%
%TO.C,C14*%
X87420000Y-89200000D03*
X87420000Y-87650000D03*
%TD*%
%TO.C,C13*%
X105395000Y-89200000D03*
X105395000Y-87650000D03*
%TD*%
D10*
%TO.C,C12*%
X193045000Y-135000000D03*
X194595000Y-135000000D03*
%TD*%
D15*
%TO.C,C11*%
X207895000Y-145200000D03*
X207895000Y-143650000D03*
%TD*%
%TO.C,C9*%
X166895000Y-145200000D03*
X166895000Y-143650000D03*
%TD*%
%TO.C,C7*%
X125895000Y-145200000D03*
X125895000Y-143650000D03*
%TD*%
%TO.C,C5*%
X84920000Y-145175000D03*
X84920000Y-143625000D03*
%TD*%
D16*
%TO.C,D72*%
X190940000Y-131600000D03*
X190940000Y-133200000D03*
X191900000Y-131600000D03*
X191900000Y-133200000D03*
%TD*%
%TO.C,D33*%
X123740000Y-155600000D03*
X123740000Y-157200000D03*
X124700000Y-155600000D03*
X124700000Y-157200000D03*
%TD*%
D17*
%TO.C,D70*%
X200420000Y-150000000D03*
X200420000Y-148200000D03*
X197220000Y-150000000D03*
X197220000Y-148200000D03*
%TD*%
D16*
%TO.C,D64*%
X185240000Y-75600000D03*
X185240000Y-77200000D03*
X186200000Y-75600000D03*
X186200000Y-77200000D03*
%TD*%
%TO.C,D71*%
X190940000Y-155600000D03*
X190940000Y-157200000D03*
X191900000Y-155600000D03*
X191900000Y-157200000D03*
%TD*%
%TO.C,D61*%
X170440000Y-99600000D03*
X170440000Y-101200000D03*
X171400000Y-99600000D03*
X171400000Y-101200000D03*
%TD*%
D17*
%TO.C,D20*%
X97920000Y-94000000D03*
X97920000Y-92200000D03*
X94720000Y-94000000D03*
X94720000Y-92200000D03*
%TD*%
D18*
%TO.C,SW5*%
X163320000Y-144400000D03*
D19*
X162820000Y-140600000D03*
D20*
X157820000Y-144400000D03*
D19*
X157820000Y-138500000D03*
D21*
X152820000Y-149550000D03*
D18*
X152320000Y-144400000D03*
%TD*%
D16*
%TO.C,D11*%
X67940000Y-155600000D03*
X67940000Y-157200000D03*
X68900000Y-155600000D03*
X68900000Y-157200000D03*
%TD*%
D17*
%TO.C,D10*%
X77420000Y-150000000D03*
X77420000Y-148200000D03*
X74220000Y-150000000D03*
X74220000Y-148200000D03*
%TD*%
D22*
%TO.C,SCR1*%
X54820000Y-26900000D03*
%TD*%
D16*
%TO.C,D43*%
X144240000Y-99600000D03*
X144240000Y-101200000D03*
X145200000Y-99600000D03*
X145200000Y-101200000D03*
%TD*%
%TO.C,D12*%
X67940000Y-131600000D03*
X67940000Y-133200000D03*
X68900000Y-131600000D03*
X68900000Y-133200000D03*
%TD*%
%TO.C,D13*%
X82740000Y-155600000D03*
X82740000Y-157200000D03*
X83700000Y-155600000D03*
X83700000Y-157200000D03*
%TD*%
%TO.C,D54*%
X164740000Y-131600000D03*
X164740000Y-133200000D03*
X165700000Y-131600000D03*
X165700000Y-133200000D03*
%TD*%
D18*
%TO.C,SW10*%
X143820000Y-34400000D03*
D19*
X143320000Y-30600000D03*
D20*
X138320000Y-34400000D03*
D19*
X138320000Y-28500000D03*
D21*
X133320000Y-39550000D03*
D18*
X132820000Y-34400000D03*
%TD*%
%TO.C,SW2*%
X101820000Y-88400000D03*
D19*
X101320000Y-84600000D03*
D20*
X96320000Y-88400000D03*
D19*
X96320000Y-82500000D03*
D21*
X91320000Y-93550000D03*
D18*
X90820000Y-88400000D03*
%TD*%
%TO.C,SW3*%
X122320000Y-144400000D03*
D19*
X121820000Y-140600000D03*
D20*
X116820000Y-144400000D03*
D19*
X116820000Y-138500000D03*
D21*
X111820000Y-149550000D03*
D18*
X111320000Y-144400000D03*
%TD*%
D17*
%TO.C,D60*%
X179920000Y-94000000D03*
X179920000Y-92200000D03*
X176720000Y-94000000D03*
X176720000Y-92200000D03*
%TD*%
D18*
%TO.C,SW9*%
X110820000Y-34400000D03*
D19*
X110320000Y-30600000D03*
D20*
X105320000Y-34400000D03*
D19*
X105320000Y-28500000D03*
D21*
X100320000Y-39550000D03*
D18*
X99820000Y-34400000D03*
%TD*%
%TO.C,SW8*%
X77820000Y-34400000D03*
D19*
X77320000Y-30600000D03*
D20*
X72320000Y-34400000D03*
D19*
X72320000Y-28500000D03*
D21*
X67320000Y-39550000D03*
D18*
X66820000Y-34400000D03*
%TD*%
D16*
%TO.C,D24*%
X103240000Y-75600000D03*
X103240000Y-77200000D03*
X104200000Y-75600000D03*
X104200000Y-77200000D03*
%TD*%
D23*
%TO.C,SW13*%
X205034000Y-37448000D03*
X205034000Y-31352000D03*
X209606000Y-37448000D03*
X209606000Y-31352000D03*
%TD*%
D22*
%TO.C,SCR2*%
X219820000Y-26900000D03*
%TD*%
D16*
%TO.C,D62*%
X170440000Y-75600000D03*
X170440000Y-77200000D03*
X171400000Y-75600000D03*
X171400000Y-77200000D03*
%TD*%
%TO.C,D22*%
X88440000Y-75600000D03*
X88440000Y-77200000D03*
X89400000Y-75600000D03*
X89400000Y-77200000D03*
%TD*%
%TO.C,D63*%
X185240000Y-99600000D03*
X185240000Y-101200000D03*
X186200000Y-99600000D03*
X186200000Y-101200000D03*
%TD*%
D17*
%TO.C,D50*%
X159420000Y-150000000D03*
X159420000Y-148200000D03*
X156220000Y-150000000D03*
X156220000Y-148200000D03*
%TD*%
D23*
%TO.C,SW12*%
X194034000Y-37448000D03*
X194034000Y-31352000D03*
X198606000Y-37448000D03*
X198606000Y-31352000D03*
%TD*%
D17*
%TO.C,DA3*%
X136720000Y-38200000D03*
X136720000Y-40000000D03*
X139920000Y-38200000D03*
X139920000Y-40000000D03*
%TD*%
D16*
%TO.C,D74*%
X205740000Y-131600000D03*
X205740000Y-133200000D03*
X206700000Y-131600000D03*
X206700000Y-133200000D03*
%TD*%
D17*
%TO.C,DA4*%
X169720000Y-38200000D03*
X169720000Y-40000000D03*
X172920000Y-38200000D03*
X172920000Y-40000000D03*
%TD*%
D16*
%TO.C,D41*%
X129440000Y-99600000D03*
X129440000Y-101200000D03*
X130400000Y-99600000D03*
X130400000Y-101200000D03*
%TD*%
D17*
%TO.C,DA2*%
X103720000Y-38200000D03*
X103720000Y-40000000D03*
X106920000Y-38200000D03*
X106920000Y-40000000D03*
%TD*%
D16*
%TO.C,D21*%
X88440000Y-99600000D03*
X88440000Y-101200000D03*
X89400000Y-99600000D03*
X89400000Y-101200000D03*
%TD*%
%TO.C,D53*%
X164740000Y-155600000D03*
X164740000Y-157200000D03*
X165700000Y-155600000D03*
X165700000Y-157200000D03*
%TD*%
D17*
%TO.C,DA1*%
X70720000Y-38200000D03*
X70720000Y-40000000D03*
X73920000Y-38200000D03*
X73920000Y-40000000D03*
%TD*%
D16*
%TO.C,D44*%
X144240000Y-75600000D03*
X144240000Y-77200000D03*
X145200000Y-75600000D03*
X145200000Y-77200000D03*
%TD*%
D24*
%TO.C,R5*%
X121895000Y-25200000D03*
X123545000Y-25200000D03*
%TD*%
D16*
%TO.C,D23*%
X103240000Y-99600000D03*
X103240000Y-101200000D03*
X104200000Y-99600000D03*
X104200000Y-101200000D03*
%TD*%
%TO.C,D51*%
X149940000Y-155600000D03*
X149940000Y-157200000D03*
X150900000Y-155600000D03*
X150900000Y-157200000D03*
%TD*%
D18*
%TO.C,SW6*%
X183820000Y-88400000D03*
D19*
X183320000Y-84600000D03*
D20*
X178320000Y-88400000D03*
D19*
X178320000Y-82500000D03*
D21*
X173320000Y-93550000D03*
D18*
X172820000Y-88400000D03*
%TD*%
%TO.C,SW11*%
X176820000Y-34400000D03*
D19*
X176320000Y-30600000D03*
D20*
X171320000Y-34400000D03*
D19*
X171320000Y-28500000D03*
D21*
X166320000Y-39550000D03*
D18*
X165820000Y-34400000D03*
%TD*%
D17*
%TO.C,D40*%
X138920000Y-94000000D03*
X138920000Y-92200000D03*
X135720000Y-94000000D03*
X135720000Y-92200000D03*
%TD*%
D18*
%TO.C,SW7*%
X204320000Y-144400000D03*
D19*
X203820000Y-140600000D03*
D20*
X198820000Y-144400000D03*
D19*
X198820000Y-138500000D03*
D21*
X193820000Y-149550000D03*
D18*
X193320000Y-144400000D03*
%TD*%
D16*
%TO.C,D42*%
X129440000Y-75600000D03*
X129440000Y-77200000D03*
X130400000Y-75600000D03*
X130400000Y-77200000D03*
%TD*%
D18*
%TO.C,SW4*%
X142820000Y-88400000D03*
D19*
X142320000Y-84600000D03*
D20*
X137320000Y-88400000D03*
D19*
X137320000Y-82500000D03*
D21*
X132320000Y-93550000D03*
D18*
X131820000Y-88400000D03*
%TD*%
D16*
%TO.C,D32*%
X108940000Y-131600000D03*
X108940000Y-133200000D03*
X109900000Y-131600000D03*
X109900000Y-133200000D03*
%TD*%
%TO.C,D31*%
X108940000Y-155600000D03*
X108940000Y-157200000D03*
X109900000Y-155600000D03*
X109900000Y-157200000D03*
%TD*%
D22*
%TO.C,SCR4*%
X219820000Y-171900000D03*
%TD*%
%TO.C,SCR3*%
X54820000Y-171900000D03*
%TD*%
D17*
%TO.C,D30*%
X118420000Y-150000000D03*
X118420000Y-148200000D03*
X115220000Y-150000000D03*
X115220000Y-148200000D03*
%TD*%
D18*
%TO.C,SW1*%
X81320000Y-144400000D03*
D19*
X80820000Y-140600000D03*
D20*
X75820000Y-144400000D03*
D19*
X75820000Y-138500000D03*
D21*
X70820000Y-149550000D03*
D18*
X70320000Y-144400000D03*
%TD*%
D16*
%TO.C,D34*%
X123740000Y-131600000D03*
X123740000Y-133200000D03*
X124700000Y-131600000D03*
X124700000Y-133200000D03*
%TD*%
%TO.C,D14*%
X82740000Y-131600000D03*
X82740000Y-133200000D03*
X83700000Y-131600000D03*
X83700000Y-133200000D03*
%TD*%
%TO.C,D52*%
X149940000Y-131600000D03*
X149940000Y-133200000D03*
X150900000Y-131600000D03*
X150900000Y-133200000D03*
%TD*%
%TO.C,D73*%
X205740000Y-155600000D03*
X205740000Y-157200000D03*
X206700000Y-155600000D03*
X206700000Y-157200000D03*
%TD*%
D24*
%TO.C,R4*%
X119295000Y-29300000D03*
X120945000Y-29300000D03*
%TD*%
D25*
%TO.C,J4*%
X117595000Y-27925000D03*
X118445000Y-27925000D03*
X119295000Y-27925000D03*
X120145000Y-27925000D03*
X120995000Y-27925000D03*
X121845000Y-27925000D03*
X122695000Y-27925000D03*
X123545000Y-27925000D03*
X123545000Y-26575000D03*
X122695000Y-26575000D03*
X121845000Y-26575000D03*
X120995000Y-26575000D03*
X120145000Y-26575000D03*
X119295000Y-26575000D03*
X118445000Y-26575000D03*
X117595000Y-26575000D03*
D26*
X116245000Y-23565000D03*
D27*
X116245000Y-26945000D03*
D26*
X124895000Y-23565000D03*
D27*
X124895000Y-26945000D03*
%TD*%
M02*
