%TF.GenerationSoftware,KiCad,Pcbnew,8.0.3*%
%TF.CreationDate,2024-07-30T03:57:46+02:00*%
%TF.ProjectId,iidx_pico,69696478-5f70-4696-936f-2e6b69636164,rev?*%
%TF.SameCoordinates,Original*%
%TF.FileFunction,Legend,Bot*%
%TF.FilePolarity,Positive*%
%FSLAX46Y46*%
G04 Gerber Fmt 4.6, Leading zero omitted, Abs format (unit mm)*
G04 Created by KiCad (PCBNEW 8.0.3) date 2024-07-30 03:57:46*
%MOMM*%
%LPD*%
G01*
G04 APERTURE LIST*
G04 Aperture macros list*
%AMRoundRect*
0 Rectangle with rounded corners*
0 $1 Rounding radius*
0 $2 $3 $4 $5 $6 $7 $8 $9 X,Y pos of 4 corners*
0 Add a 4 corners polygon primitive as box body*
4,1,4,$2,$3,$4,$5,$6,$7,$8,$9,$2,$3,0*
0 Add four circle primitives for the rounded corners*
1,1,$1+$1,$2,$3*
1,1,$1+$1,$4,$5*
1,1,$1+$1,$6,$7*
1,1,$1+$1,$8,$9*
0 Add four rect primitives between the rounded corners*
20,1,$1+$1,$2,$3,$4,$5,0*
20,1,$1+$1,$4,$5,$6,$7,0*
20,1,$1+$1,$6,$7,$8,$9,0*
20,1,$1+$1,$8,$9,$2,$3,0*%
G04 Aperture macros list end*
%ADD10C,0.150000*%
%ADD11C,0.300000*%
%ADD12C,0.120000*%
%ADD13O,1.700000X1.700000*%
%ADD14R,1.700000X3.500000*%
%ADD15R,1.700000X1.700000*%
%ADD16R,3.500000X1.700000*%
%ADD17RoundRect,0.300000X0.950000X-0.450000X0.950000X0.450000X-0.950000X0.450000X-0.950000X-0.450000X0*%
%ADD18RoundRect,0.200000X0.200000X0.275000X-0.200000X0.275000X-0.200000X-0.275000X0.200000X-0.275000X0*%
%ADD19RoundRect,0.250000X-1.100000X0.250000X-1.100000X-0.250000X1.100000X-0.250000X1.100000X0.250000X0*%
%ADD20RoundRect,0.150000X-0.700000X0.150000X-0.700000X-0.150000X0.700000X-0.150000X0.700000X0.150000X0*%
%ADD21RoundRect,0.150000X0.700000X-0.150000X0.700000X0.150000X-0.700000X0.150000X-0.700000X-0.150000X0*%
%ADD22RoundRect,0.250000X1.100000X-0.250000X1.100000X0.250000X-1.100000X0.250000X-1.100000X-0.250000X0*%
%ADD23C,2.200000*%
%ADD24C,1.900000*%
%ADD25C,5.050000*%
%ADD26C,2.600000*%
%ADD27C,3.200000*%
%ADD28R,0.500000X0.800000*%
%ADD29R,0.400000X0.800000*%
%ADD30RoundRect,0.150000X-0.150000X0.512500X-0.150000X-0.512500X0.150000X-0.512500X0.150000X0.512500X0*%
%ADD31RoundRect,0.243750X-0.456250X0.243750X-0.456250X-0.243750X0.456250X-0.243750X0.456250X0.243750X0*%
%ADD32RoundRect,0.225000X-0.250000X0.225000X-0.250000X-0.225000X0.250000X-0.225000X0.250000X0.225000X0*%
%ADD33RoundRect,0.150000X-0.150000X0.587500X-0.150000X-0.587500X0.150000X-0.587500X0.150000X0.587500X0*%
%ADD34RoundRect,0.200000X-0.275000X0.200000X-0.275000X-0.200000X0.275000X-0.200000X0.275000X0.200000X0*%
%ADD35RoundRect,0.150000X0.150000X-0.587500X0.150000X0.587500X-0.150000X0.587500X-0.150000X-0.587500X0*%
%ADD36RoundRect,0.225000X0.250000X-0.225000X0.250000X0.225000X-0.250000X0.225000X-0.250000X-0.225000X0*%
%ADD37C,0.700000*%
%ADD38O,0.900000X1.700000*%
%ADD39O,0.900000X2.400000*%
%ADD40RoundRect,0.250000X-0.475000X0.250000X-0.475000X-0.250000X0.475000X-0.250000X0.475000X0.250000X0*%
%ADD41RoundRect,0.150000X0.150000X-0.512500X0.150000X0.512500X-0.150000X0.512500X-0.150000X-0.512500X0*%
G04 APERTURE END LIST*
D10*
X185496189Y-55369819D02*
X185496189Y-54369819D01*
X185067618Y-54465057D02*
X185019999Y-54417438D01*
X185019999Y-54417438D02*
X184924761Y-54369819D01*
X184924761Y-54369819D02*
X184686666Y-54369819D01*
X184686666Y-54369819D02*
X184591428Y-54417438D01*
X184591428Y-54417438D02*
X184543809Y-54465057D01*
X184543809Y-54465057D02*
X184496190Y-54560295D01*
X184496190Y-54560295D02*
X184496190Y-54655533D01*
X184496190Y-54655533D02*
X184543809Y-54798390D01*
X184543809Y-54798390D02*
X185115237Y-55369819D01*
X185115237Y-55369819D02*
X184496190Y-55369819D01*
X183496190Y-55274580D02*
X183543809Y-55322200D01*
X183543809Y-55322200D02*
X183686666Y-55369819D01*
X183686666Y-55369819D02*
X183781904Y-55369819D01*
X183781904Y-55369819D02*
X183924761Y-55322200D01*
X183924761Y-55322200D02*
X184019999Y-55226961D01*
X184019999Y-55226961D02*
X184067618Y-55131723D01*
X184067618Y-55131723D02*
X184115237Y-54941247D01*
X184115237Y-54941247D02*
X184115237Y-54798390D01*
X184115237Y-54798390D02*
X184067618Y-54607914D01*
X184067618Y-54607914D02*
X184019999Y-54512676D01*
X184019999Y-54512676D02*
X183924761Y-54417438D01*
X183924761Y-54417438D02*
X183781904Y-54369819D01*
X183781904Y-54369819D02*
X183686666Y-54369819D01*
X183686666Y-54369819D02*
X183543809Y-54417438D01*
X183543809Y-54417438D02*
X183496190Y-54465057D01*
D11*
X80427142Y-92161005D02*
X80570000Y-92084815D01*
X80570000Y-92084815D02*
X80784285Y-92084815D01*
X80784285Y-92084815D02*
X80998571Y-92161005D01*
X80998571Y-92161005D02*
X81141428Y-92313386D01*
X81141428Y-92313386D02*
X81212857Y-92465767D01*
X81212857Y-92465767D02*
X81284285Y-92770529D01*
X81284285Y-92770529D02*
X81284285Y-92999101D01*
X81284285Y-92999101D02*
X81212857Y-93303863D01*
X81212857Y-93303863D02*
X81141428Y-93456244D01*
X81141428Y-93456244D02*
X80998571Y-93608625D01*
X80998571Y-93608625D02*
X80784285Y-93684815D01*
X80784285Y-93684815D02*
X80641428Y-93684815D01*
X80641428Y-93684815D02*
X80427142Y-93608625D01*
X80427142Y-93608625D02*
X80355714Y-93532434D01*
X80355714Y-93532434D02*
X80355714Y-92999101D01*
X80355714Y-92999101D02*
X80641428Y-92999101D01*
X81212857Y-96260725D02*
X81212857Y-94660725D01*
X81212857Y-94660725D02*
X80855714Y-94660725D01*
X80855714Y-94660725D02*
X80641428Y-94736915D01*
X80641428Y-94736915D02*
X80498571Y-94889296D01*
X80498571Y-94889296D02*
X80427142Y-95041677D01*
X80427142Y-95041677D02*
X80355714Y-95346439D01*
X80355714Y-95346439D02*
X80355714Y-95575011D01*
X80355714Y-95575011D02*
X80427142Y-95879773D01*
X80427142Y-95879773D02*
X80498571Y-96032154D01*
X80498571Y-96032154D02*
X80641428Y-96184535D01*
X80641428Y-96184535D02*
X80855714Y-96260725D01*
X80855714Y-96260725D02*
X81212857Y-96260725D01*
X80355714Y-98684254D02*
X80427142Y-98760445D01*
X80427142Y-98760445D02*
X80641428Y-98836635D01*
X80641428Y-98836635D02*
X80784285Y-98836635D01*
X80784285Y-98836635D02*
X80998571Y-98760445D01*
X80998571Y-98760445D02*
X81141428Y-98608064D01*
X81141428Y-98608064D02*
X81212857Y-98455683D01*
X81212857Y-98455683D02*
X81284285Y-98150921D01*
X81284285Y-98150921D02*
X81284285Y-97922349D01*
X81284285Y-97922349D02*
X81212857Y-97617587D01*
X81212857Y-97617587D02*
X81141428Y-97465206D01*
X81141428Y-97465206D02*
X80998571Y-97312825D01*
X80998571Y-97312825D02*
X80784285Y-97236635D01*
X80784285Y-97236635D02*
X80641428Y-97236635D01*
X80641428Y-97236635D02*
X80427142Y-97312825D01*
X80427142Y-97312825D02*
X80355714Y-97389016D01*
X80355714Y-101412545D02*
X81070000Y-101412545D01*
X81070000Y-101412545D02*
X81070000Y-99812545D01*
X80462856Y-102388455D02*
X81177142Y-102388455D01*
X81177142Y-102388455D02*
X81248570Y-103150360D01*
X81248570Y-103150360D02*
X81177142Y-103074169D01*
X81177142Y-103074169D02*
X81034285Y-102997979D01*
X81034285Y-102997979D02*
X80677142Y-102997979D01*
X80677142Y-102997979D02*
X80534285Y-103074169D01*
X80534285Y-103074169D02*
X80462856Y-103150360D01*
X80462856Y-103150360D02*
X80391427Y-103302741D01*
X80391427Y-103302741D02*
X80391427Y-103683693D01*
X80391427Y-103683693D02*
X80462856Y-103836074D01*
X80462856Y-103836074D02*
X80534285Y-103912265D01*
X80534285Y-103912265D02*
X80677142Y-103988455D01*
X80677142Y-103988455D02*
X81034285Y-103988455D01*
X81034285Y-103988455D02*
X81177142Y-103912265D01*
X81177142Y-103912265D02*
X81248570Y-103836074D01*
X81319999Y-104964365D02*
X80391427Y-104964365D01*
X80391427Y-104964365D02*
X80891427Y-105573889D01*
X80891427Y-105573889D02*
X80677142Y-105573889D01*
X80677142Y-105573889D02*
X80534285Y-105650079D01*
X80534285Y-105650079D02*
X80462856Y-105726270D01*
X80462856Y-105726270D02*
X80391427Y-105878651D01*
X80391427Y-105878651D02*
X80391427Y-106259603D01*
X80391427Y-106259603D02*
X80462856Y-106411984D01*
X80462856Y-106411984D02*
X80534285Y-106488175D01*
X80534285Y-106488175D02*
X80677142Y-106564365D01*
X80677142Y-106564365D02*
X81105713Y-106564365D01*
X81105713Y-106564365D02*
X81248570Y-106488175D01*
X81248570Y-106488175D02*
X81319999Y-106411984D01*
X193627142Y-92061005D02*
X193770000Y-91984815D01*
X193770000Y-91984815D02*
X193984285Y-91984815D01*
X193984285Y-91984815D02*
X194198571Y-92061005D01*
X194198571Y-92061005D02*
X194341428Y-92213386D01*
X194341428Y-92213386D02*
X194412857Y-92365767D01*
X194412857Y-92365767D02*
X194484285Y-92670529D01*
X194484285Y-92670529D02*
X194484285Y-92899101D01*
X194484285Y-92899101D02*
X194412857Y-93203863D01*
X194412857Y-93203863D02*
X194341428Y-93356244D01*
X194341428Y-93356244D02*
X194198571Y-93508625D01*
X194198571Y-93508625D02*
X193984285Y-93584815D01*
X193984285Y-93584815D02*
X193841428Y-93584815D01*
X193841428Y-93584815D02*
X193627142Y-93508625D01*
X193627142Y-93508625D02*
X193555714Y-93432434D01*
X193555714Y-93432434D02*
X193555714Y-92899101D01*
X193555714Y-92899101D02*
X193841428Y-92899101D01*
X194412857Y-96160725D02*
X194412857Y-94560725D01*
X194412857Y-94560725D02*
X194055714Y-94560725D01*
X194055714Y-94560725D02*
X193841428Y-94636915D01*
X193841428Y-94636915D02*
X193698571Y-94789296D01*
X193698571Y-94789296D02*
X193627142Y-94941677D01*
X193627142Y-94941677D02*
X193555714Y-95246439D01*
X193555714Y-95246439D02*
X193555714Y-95475011D01*
X193555714Y-95475011D02*
X193627142Y-95779773D01*
X193627142Y-95779773D02*
X193698571Y-95932154D01*
X193698571Y-95932154D02*
X193841428Y-96084535D01*
X193841428Y-96084535D02*
X194055714Y-96160725D01*
X194055714Y-96160725D02*
X194412857Y-96160725D01*
X193555714Y-98584254D02*
X193627142Y-98660445D01*
X193627142Y-98660445D02*
X193841428Y-98736635D01*
X193841428Y-98736635D02*
X193984285Y-98736635D01*
X193984285Y-98736635D02*
X194198571Y-98660445D01*
X194198571Y-98660445D02*
X194341428Y-98508064D01*
X194341428Y-98508064D02*
X194412857Y-98355683D01*
X194412857Y-98355683D02*
X194484285Y-98050921D01*
X194484285Y-98050921D02*
X194484285Y-97822349D01*
X194484285Y-97822349D02*
X194412857Y-97517587D01*
X194412857Y-97517587D02*
X194341428Y-97365206D01*
X194341428Y-97365206D02*
X194198571Y-97212825D01*
X194198571Y-97212825D02*
X193984285Y-97136635D01*
X193984285Y-97136635D02*
X193841428Y-97136635D01*
X193841428Y-97136635D02*
X193627142Y-97212825D01*
X193627142Y-97212825D02*
X193555714Y-97289016D01*
X193555714Y-101312545D02*
X194270000Y-101312545D01*
X194270000Y-101312545D02*
X194270000Y-99712545D01*
X193662856Y-102288455D02*
X194377142Y-102288455D01*
X194377142Y-102288455D02*
X194448570Y-103050360D01*
X194448570Y-103050360D02*
X194377142Y-102974169D01*
X194377142Y-102974169D02*
X194234285Y-102897979D01*
X194234285Y-102897979D02*
X193877142Y-102897979D01*
X193877142Y-102897979D02*
X193734285Y-102974169D01*
X193734285Y-102974169D02*
X193662856Y-103050360D01*
X193662856Y-103050360D02*
X193591427Y-103202741D01*
X193591427Y-103202741D02*
X193591427Y-103583693D01*
X193591427Y-103583693D02*
X193662856Y-103736074D01*
X193662856Y-103736074D02*
X193734285Y-103812265D01*
X193734285Y-103812265D02*
X193877142Y-103888455D01*
X193877142Y-103888455D02*
X194234285Y-103888455D01*
X194234285Y-103888455D02*
X194377142Y-103812265D01*
X194377142Y-103812265D02*
X194448570Y-103736074D01*
X194519999Y-104864365D02*
X193591427Y-104864365D01*
X193591427Y-104864365D02*
X194091427Y-105473889D01*
X194091427Y-105473889D02*
X193877142Y-105473889D01*
X193877142Y-105473889D02*
X193734285Y-105550079D01*
X193734285Y-105550079D02*
X193662856Y-105626270D01*
X193662856Y-105626270D02*
X193591427Y-105778651D01*
X193591427Y-105778651D02*
X193591427Y-106159603D01*
X193591427Y-106159603D02*
X193662856Y-106311984D01*
X193662856Y-106311984D02*
X193734285Y-106388175D01*
X193734285Y-106388175D02*
X193877142Y-106464365D01*
X193877142Y-106464365D02*
X194305713Y-106464365D01*
X194305713Y-106464365D02*
X194448570Y-106388175D01*
X194448570Y-106388175D02*
X194519999Y-106311984D01*
D10*
X68331904Y-66604819D02*
X68331904Y-67414342D01*
X68331904Y-67414342D02*
X68284285Y-67509580D01*
X68284285Y-67509580D02*
X68236666Y-67557200D01*
X68236666Y-67557200D02*
X68141428Y-67604819D01*
X68141428Y-67604819D02*
X67950952Y-67604819D01*
X67950952Y-67604819D02*
X67855714Y-67557200D01*
X67855714Y-67557200D02*
X67808095Y-67509580D01*
X67808095Y-67509580D02*
X67760476Y-67414342D01*
X67760476Y-67414342D02*
X67760476Y-66604819D01*
X66760476Y-67604819D02*
X67331904Y-67604819D01*
X67046190Y-67604819D02*
X67046190Y-66604819D01*
X67046190Y-66604819D02*
X67141428Y-66747676D01*
X67141428Y-66747676D02*
X67236666Y-66842914D01*
X67236666Y-66842914D02*
X67331904Y-66890533D01*
X114018431Y-68986435D02*
X114045368Y-68905623D01*
X114045368Y-68905623D02*
X114126180Y-68824811D01*
X114126180Y-68824811D02*
X114233930Y-68770936D01*
X114233930Y-68770936D02*
X114341680Y-68770936D01*
X114341680Y-68770936D02*
X114422492Y-68797873D01*
X114422492Y-68797873D02*
X114557179Y-68878685D01*
X114557179Y-68878685D02*
X114637991Y-68959498D01*
X114637991Y-68959498D02*
X114718803Y-69094185D01*
X114718803Y-69094185D02*
X114745741Y-69174997D01*
X114745741Y-69174997D02*
X114745741Y-69282746D01*
X114745741Y-69282746D02*
X114691866Y-69390496D01*
X114691866Y-69390496D02*
X114637991Y-69444371D01*
X114637991Y-69444371D02*
X114530241Y-69498246D01*
X114530241Y-69498246D02*
X114476367Y-69498246D01*
X114476367Y-69498246D02*
X114287805Y-69309684D01*
X114287805Y-69309684D02*
X114395554Y-69201934D01*
X114287805Y-69794557D02*
X113722119Y-69228872D01*
X113722119Y-69228872D02*
X113964556Y-70117806D01*
X113964556Y-70117806D02*
X113398871Y-69552120D01*
X113695182Y-70387180D02*
X113129497Y-69821494D01*
X113129497Y-69821494D02*
X112994810Y-69956181D01*
X112994810Y-69956181D02*
X112940935Y-70063931D01*
X112940935Y-70063931D02*
X112940935Y-70171680D01*
X112940935Y-70171680D02*
X112967872Y-70252493D01*
X112967872Y-70252493D02*
X113048685Y-70387180D01*
X113048685Y-70387180D02*
X113129497Y-70467992D01*
X113129497Y-70467992D02*
X113264184Y-70548804D01*
X113264184Y-70548804D02*
X113344996Y-70575741D01*
X113344996Y-70575741D02*
X113452746Y-70575741D01*
X113452746Y-70575741D02*
X113560495Y-70521867D01*
X113560495Y-70521867D02*
X113695182Y-70387180D01*
X86320868Y-68997998D02*
X86347805Y-68917185D01*
X86347805Y-68917185D02*
X86428618Y-68836373D01*
X86428618Y-68836373D02*
X86536367Y-68782498D01*
X86536367Y-68782498D02*
X86644117Y-68782498D01*
X86644117Y-68782498D02*
X86724929Y-68809436D01*
X86724929Y-68809436D02*
X86859616Y-68890248D01*
X86859616Y-68890248D02*
X86940428Y-68971060D01*
X86940428Y-68971060D02*
X87021241Y-69105747D01*
X87021241Y-69105747D02*
X87048178Y-69186560D01*
X87048178Y-69186560D02*
X87048178Y-69294309D01*
X87048178Y-69294309D02*
X86994303Y-69402059D01*
X86994303Y-69402059D02*
X86940428Y-69455934D01*
X86940428Y-69455934D02*
X86832679Y-69509808D01*
X86832679Y-69509808D02*
X86778804Y-69509808D01*
X86778804Y-69509808D02*
X86590242Y-69321247D01*
X86590242Y-69321247D02*
X86697992Y-69213497D01*
X86590242Y-69806120D02*
X86024557Y-69240434D01*
X86024557Y-69240434D02*
X85809057Y-69455934D01*
X85809057Y-69455934D02*
X85782120Y-69536746D01*
X85782120Y-69536746D02*
X85782120Y-69590621D01*
X85782120Y-69590621D02*
X85809057Y-69671433D01*
X85809057Y-69671433D02*
X85889870Y-69752245D01*
X85889870Y-69752245D02*
X85970682Y-69779182D01*
X85970682Y-69779182D02*
X86024557Y-69779182D01*
X86024557Y-69779182D02*
X86105369Y-69752245D01*
X86105369Y-69752245D02*
X86320868Y-69536746D01*
X85728245Y-70668117D02*
X86051494Y-70344868D01*
X85889870Y-70506492D02*
X85324184Y-69940807D01*
X85324184Y-69940807D02*
X85458871Y-69967744D01*
X85458871Y-69967744D02*
X85566621Y-69967744D01*
X85566621Y-69967744D02*
X85647433Y-69940807D01*
X84812373Y-70452618D02*
X84758499Y-70506492D01*
X84758499Y-70506492D02*
X84731561Y-70587305D01*
X84731561Y-70587305D02*
X84731561Y-70641179D01*
X84731561Y-70641179D02*
X84758499Y-70721992D01*
X84758499Y-70721992D02*
X84839311Y-70856679D01*
X84839311Y-70856679D02*
X84973998Y-70991366D01*
X84973998Y-70991366D02*
X85108685Y-71072178D01*
X85108685Y-71072178D02*
X85189497Y-71099115D01*
X85189497Y-71099115D02*
X85243372Y-71099115D01*
X85243372Y-71099115D02*
X85324184Y-71072178D01*
X85324184Y-71072178D02*
X85378059Y-71018303D01*
X85378059Y-71018303D02*
X85404996Y-70937491D01*
X85404996Y-70937491D02*
X85404996Y-70883616D01*
X85404996Y-70883616D02*
X85378059Y-70802804D01*
X85378059Y-70802804D02*
X85297247Y-70668117D01*
X85297247Y-70668117D02*
X85162560Y-70533430D01*
X85162560Y-70533430D02*
X85027873Y-70452618D01*
X85027873Y-70452618D02*
X84947060Y-70425680D01*
X84947060Y-70425680D02*
X84893186Y-70425680D01*
X84893186Y-70425680D02*
X84812373Y-70452618D01*
X101318431Y-68986435D02*
X101345368Y-68905623D01*
X101345368Y-68905623D02*
X101426180Y-68824811D01*
X101426180Y-68824811D02*
X101533930Y-68770936D01*
X101533930Y-68770936D02*
X101641680Y-68770936D01*
X101641680Y-68770936D02*
X101722492Y-68797873D01*
X101722492Y-68797873D02*
X101857179Y-68878685D01*
X101857179Y-68878685D02*
X101937991Y-68959498D01*
X101937991Y-68959498D02*
X102018803Y-69094185D01*
X102018803Y-69094185D02*
X102045741Y-69174997D01*
X102045741Y-69174997D02*
X102045741Y-69282746D01*
X102045741Y-69282746D02*
X101991866Y-69390496D01*
X101991866Y-69390496D02*
X101937991Y-69444371D01*
X101937991Y-69444371D02*
X101830241Y-69498246D01*
X101830241Y-69498246D02*
X101776367Y-69498246D01*
X101776367Y-69498246D02*
X101587805Y-69309684D01*
X101587805Y-69309684D02*
X101695554Y-69201934D01*
X101587805Y-69794557D02*
X101022119Y-69228872D01*
X101022119Y-69228872D02*
X101264556Y-70117806D01*
X101264556Y-70117806D02*
X100698871Y-69552120D01*
X100995182Y-70387180D02*
X100429497Y-69821494D01*
X100429497Y-69821494D02*
X100294810Y-69956181D01*
X100294810Y-69956181D02*
X100240935Y-70063931D01*
X100240935Y-70063931D02*
X100240935Y-70171680D01*
X100240935Y-70171680D02*
X100267872Y-70252493D01*
X100267872Y-70252493D02*
X100348685Y-70387180D01*
X100348685Y-70387180D02*
X100429497Y-70467992D01*
X100429497Y-70467992D02*
X100564184Y-70548804D01*
X100564184Y-70548804D02*
X100644996Y-70575741D01*
X100644996Y-70575741D02*
X100752746Y-70575741D01*
X100752746Y-70575741D02*
X100860495Y-70521867D01*
X100860495Y-70521867D02*
X100995182Y-70387180D01*
X107280242Y-42720749D02*
X107657366Y-43474996D01*
X107657366Y-43474996D02*
X106903118Y-43097873D01*
X106956993Y-44175369D02*
X106876181Y-43717433D01*
X107280242Y-43852120D02*
X106714557Y-43286434D01*
X106714557Y-43286434D02*
X106499057Y-43501934D01*
X106499057Y-43501934D02*
X106472120Y-43582746D01*
X106472120Y-43582746D02*
X106472120Y-43636621D01*
X106472120Y-43636621D02*
X106499057Y-43717433D01*
X106499057Y-43717433D02*
X106579870Y-43798245D01*
X106579870Y-43798245D02*
X106660682Y-43825182D01*
X106660682Y-43825182D02*
X106714557Y-43825182D01*
X106714557Y-43825182D02*
X106795369Y-43798245D01*
X106795369Y-43798245D02*
X107010868Y-43582746D01*
X106418245Y-44121494D02*
X106229683Y-44310056D01*
X106445183Y-44687179D02*
X106714557Y-44417805D01*
X106714557Y-44417805D02*
X106148871Y-43852120D01*
X106148871Y-43852120D02*
X105879497Y-44121494D01*
X105717873Y-44821867D02*
X105906434Y-44633305D01*
X106202746Y-44929616D02*
X105637060Y-44363931D01*
X105637060Y-44363931D02*
X105367686Y-44633305D01*
X93671494Y-69013372D02*
X93698431Y-68932560D01*
X93698431Y-68932560D02*
X93779243Y-68851748D01*
X93779243Y-68851748D02*
X93886993Y-68797873D01*
X93886993Y-68797873D02*
X93994742Y-68797873D01*
X93994742Y-68797873D02*
X94075555Y-68824810D01*
X94075555Y-68824810D02*
X94210242Y-68905623D01*
X94210242Y-68905623D02*
X94291054Y-68986435D01*
X94291054Y-68986435D02*
X94371866Y-69121122D01*
X94371866Y-69121122D02*
X94398803Y-69201934D01*
X94398803Y-69201934D02*
X94398803Y-69309684D01*
X94398803Y-69309684D02*
X94344929Y-69417433D01*
X94344929Y-69417433D02*
X94291054Y-69471308D01*
X94291054Y-69471308D02*
X94183304Y-69525183D01*
X94183304Y-69525183D02*
X94129429Y-69525183D01*
X94129429Y-69525183D02*
X93940868Y-69336621D01*
X93940868Y-69336621D02*
X94048617Y-69228871D01*
X93940868Y-69821494D02*
X93375182Y-69255809D01*
X93375182Y-69255809D02*
X93159683Y-69471308D01*
X93159683Y-69471308D02*
X93132746Y-69552120D01*
X93132746Y-69552120D02*
X93132746Y-69605995D01*
X93132746Y-69605995D02*
X93159683Y-69686807D01*
X93159683Y-69686807D02*
X93240495Y-69767619D01*
X93240495Y-69767619D02*
X93321307Y-69794557D01*
X93321307Y-69794557D02*
X93375182Y-69794557D01*
X93375182Y-69794557D02*
X93455994Y-69767619D01*
X93455994Y-69767619D02*
X93671494Y-69552120D01*
X92971121Y-70144743D02*
X92998059Y-70063931D01*
X92998059Y-70063931D02*
X92998059Y-70010056D01*
X92998059Y-70010056D02*
X92971121Y-69929244D01*
X92971121Y-69929244D02*
X92944184Y-69902306D01*
X92944184Y-69902306D02*
X92863372Y-69875369D01*
X92863372Y-69875369D02*
X92809497Y-69875369D01*
X92809497Y-69875369D02*
X92728685Y-69902306D01*
X92728685Y-69902306D02*
X92620935Y-70010056D01*
X92620935Y-70010056D02*
X92593998Y-70090868D01*
X92593998Y-70090868D02*
X92593998Y-70144743D01*
X92593998Y-70144743D02*
X92620935Y-70225555D01*
X92620935Y-70225555D02*
X92647872Y-70252493D01*
X92647872Y-70252493D02*
X92728685Y-70279430D01*
X92728685Y-70279430D02*
X92782559Y-70279430D01*
X92782559Y-70279430D02*
X92863372Y-70252493D01*
X92863372Y-70252493D02*
X92971121Y-70144743D01*
X92971121Y-70144743D02*
X93051933Y-70117806D01*
X93051933Y-70117806D02*
X93105808Y-70117806D01*
X93105808Y-70117806D02*
X93186620Y-70144743D01*
X93186620Y-70144743D02*
X93294370Y-70252493D01*
X93294370Y-70252493D02*
X93321307Y-70333305D01*
X93321307Y-70333305D02*
X93321307Y-70387180D01*
X93321307Y-70387180D02*
X93294370Y-70467992D01*
X93294370Y-70467992D02*
X93186620Y-70575741D01*
X93186620Y-70575741D02*
X93105808Y-70602679D01*
X93105808Y-70602679D02*
X93051933Y-70602679D01*
X93051933Y-70602679D02*
X92971121Y-70575741D01*
X92971121Y-70575741D02*
X92863372Y-70467992D01*
X92863372Y-70467992D02*
X92836434Y-70387180D01*
X92836434Y-70387180D02*
X92836434Y-70333305D01*
X92836434Y-70333305D02*
X92863372Y-70252493D01*
X75918431Y-43386435D02*
X75945368Y-43305623D01*
X75945368Y-43305623D02*
X76026180Y-43224811D01*
X76026180Y-43224811D02*
X76133930Y-43170936D01*
X76133930Y-43170936D02*
X76241680Y-43170936D01*
X76241680Y-43170936D02*
X76322492Y-43197873D01*
X76322492Y-43197873D02*
X76457179Y-43278685D01*
X76457179Y-43278685D02*
X76537991Y-43359498D01*
X76537991Y-43359498D02*
X76618803Y-43494185D01*
X76618803Y-43494185D02*
X76645741Y-43574997D01*
X76645741Y-43574997D02*
X76645741Y-43682746D01*
X76645741Y-43682746D02*
X76591866Y-43790496D01*
X76591866Y-43790496D02*
X76537991Y-43844371D01*
X76537991Y-43844371D02*
X76430241Y-43898246D01*
X76430241Y-43898246D02*
X76376367Y-43898246D01*
X76376367Y-43898246D02*
X76187805Y-43709684D01*
X76187805Y-43709684D02*
X76295554Y-43601934D01*
X76187805Y-44194557D02*
X75622119Y-43628872D01*
X75622119Y-43628872D02*
X75864556Y-44517806D01*
X75864556Y-44517806D02*
X75298871Y-43952120D01*
X75595182Y-44787180D02*
X75029497Y-44221494D01*
X75029497Y-44221494D02*
X74894810Y-44356181D01*
X74894810Y-44356181D02*
X74840935Y-44463931D01*
X74840935Y-44463931D02*
X74840935Y-44571680D01*
X74840935Y-44571680D02*
X74867872Y-44652493D01*
X74867872Y-44652493D02*
X74948685Y-44787180D01*
X74948685Y-44787180D02*
X75029497Y-44867992D01*
X75029497Y-44867992D02*
X75164184Y-44948804D01*
X75164184Y-44948804D02*
X75244996Y-44975741D01*
X75244996Y-44975741D02*
X75352746Y-44975741D01*
X75352746Y-44975741D02*
X75460495Y-44921867D01*
X75460495Y-44921867D02*
X75595182Y-44787180D01*
X103831494Y-69013372D02*
X103858431Y-68932560D01*
X103858431Y-68932560D02*
X103939243Y-68851748D01*
X103939243Y-68851748D02*
X104046993Y-68797873D01*
X104046993Y-68797873D02*
X104154742Y-68797873D01*
X104154742Y-68797873D02*
X104235555Y-68824810D01*
X104235555Y-68824810D02*
X104370242Y-68905623D01*
X104370242Y-68905623D02*
X104451054Y-68986435D01*
X104451054Y-68986435D02*
X104531866Y-69121122D01*
X104531866Y-69121122D02*
X104558803Y-69201934D01*
X104558803Y-69201934D02*
X104558803Y-69309684D01*
X104558803Y-69309684D02*
X104504929Y-69417433D01*
X104504929Y-69417433D02*
X104451054Y-69471308D01*
X104451054Y-69471308D02*
X104343304Y-69525183D01*
X104343304Y-69525183D02*
X104289429Y-69525183D01*
X104289429Y-69525183D02*
X104100868Y-69336621D01*
X104100868Y-69336621D02*
X104208617Y-69228871D01*
X104100868Y-69821494D02*
X103535182Y-69255809D01*
X103535182Y-69255809D02*
X103319683Y-69471308D01*
X103319683Y-69471308D02*
X103292746Y-69552120D01*
X103292746Y-69552120D02*
X103292746Y-69605995D01*
X103292746Y-69605995D02*
X103319683Y-69686807D01*
X103319683Y-69686807D02*
X103400495Y-69767619D01*
X103400495Y-69767619D02*
X103481307Y-69794557D01*
X103481307Y-69794557D02*
X103535182Y-69794557D01*
X103535182Y-69794557D02*
X103615994Y-69767619D01*
X103615994Y-69767619D02*
X103831494Y-69552120D01*
X102700123Y-70090868D02*
X102969497Y-69821494D01*
X102969497Y-69821494D02*
X103265808Y-70063931D01*
X103265808Y-70063931D02*
X103211933Y-70063931D01*
X103211933Y-70063931D02*
X103131121Y-70090868D01*
X103131121Y-70090868D02*
X102996434Y-70225555D01*
X102996434Y-70225555D02*
X102969497Y-70306367D01*
X102969497Y-70306367D02*
X102969497Y-70360242D01*
X102969497Y-70360242D02*
X102996434Y-70441054D01*
X102996434Y-70441054D02*
X103131121Y-70575741D01*
X103131121Y-70575741D02*
X103211933Y-70602679D01*
X103211933Y-70602679D02*
X103265808Y-70602679D01*
X103265808Y-70602679D02*
X103346620Y-70575741D01*
X103346620Y-70575741D02*
X103481307Y-70441054D01*
X103481307Y-70441054D02*
X103508245Y-70360242D01*
X103508245Y-70360242D02*
X103508245Y-70306367D01*
X99010868Y-42889998D02*
X99037805Y-42809185D01*
X99037805Y-42809185D02*
X99118618Y-42728373D01*
X99118618Y-42728373D02*
X99226367Y-42674498D01*
X99226367Y-42674498D02*
X99334117Y-42674498D01*
X99334117Y-42674498D02*
X99414929Y-42701436D01*
X99414929Y-42701436D02*
X99549616Y-42782248D01*
X99549616Y-42782248D02*
X99630428Y-42863060D01*
X99630428Y-42863060D02*
X99711241Y-42997747D01*
X99711241Y-42997747D02*
X99738178Y-43078560D01*
X99738178Y-43078560D02*
X99738178Y-43186309D01*
X99738178Y-43186309D02*
X99684303Y-43294059D01*
X99684303Y-43294059D02*
X99630428Y-43347934D01*
X99630428Y-43347934D02*
X99522679Y-43401808D01*
X99522679Y-43401808D02*
X99468804Y-43401808D01*
X99468804Y-43401808D02*
X99280242Y-43213247D01*
X99280242Y-43213247D02*
X99387992Y-43105497D01*
X99280242Y-43698120D02*
X98714557Y-43132434D01*
X98714557Y-43132434D02*
X98499057Y-43347934D01*
X98499057Y-43347934D02*
X98472120Y-43428746D01*
X98472120Y-43428746D02*
X98472120Y-43482621D01*
X98472120Y-43482621D02*
X98499057Y-43563433D01*
X98499057Y-43563433D02*
X98579870Y-43644245D01*
X98579870Y-43644245D02*
X98660682Y-43671182D01*
X98660682Y-43671182D02*
X98714557Y-43671182D01*
X98714557Y-43671182D02*
X98795369Y-43644245D01*
X98795369Y-43644245D02*
X99010868Y-43428746D01*
X98229683Y-43725057D02*
X98175809Y-43725057D01*
X98175809Y-43725057D02*
X98094996Y-43751995D01*
X98094996Y-43751995D02*
X97960309Y-43886682D01*
X97960309Y-43886682D02*
X97933372Y-43967494D01*
X97933372Y-43967494D02*
X97933372Y-44021369D01*
X97933372Y-44021369D02*
X97960309Y-44102181D01*
X97960309Y-44102181D02*
X98014184Y-44156056D01*
X98014184Y-44156056D02*
X98121934Y-44209930D01*
X98121934Y-44209930D02*
X98768431Y-44209930D01*
X98768431Y-44209930D02*
X98418245Y-44560117D01*
X97663998Y-44182993D02*
X97286874Y-44560117D01*
X97286874Y-44560117D02*
X98094996Y-44883366D01*
X108911494Y-69013372D02*
X108938431Y-68932560D01*
X108938431Y-68932560D02*
X109019243Y-68851748D01*
X109019243Y-68851748D02*
X109126993Y-68797873D01*
X109126993Y-68797873D02*
X109234742Y-68797873D01*
X109234742Y-68797873D02*
X109315555Y-68824810D01*
X109315555Y-68824810D02*
X109450242Y-68905623D01*
X109450242Y-68905623D02*
X109531054Y-68986435D01*
X109531054Y-68986435D02*
X109611866Y-69121122D01*
X109611866Y-69121122D02*
X109638803Y-69201934D01*
X109638803Y-69201934D02*
X109638803Y-69309684D01*
X109638803Y-69309684D02*
X109584929Y-69417433D01*
X109584929Y-69417433D02*
X109531054Y-69471308D01*
X109531054Y-69471308D02*
X109423304Y-69525183D01*
X109423304Y-69525183D02*
X109369429Y-69525183D01*
X109369429Y-69525183D02*
X109180868Y-69336621D01*
X109180868Y-69336621D02*
X109288617Y-69228871D01*
X109180868Y-69821494D02*
X108615182Y-69255809D01*
X108615182Y-69255809D02*
X108399683Y-69471308D01*
X108399683Y-69471308D02*
X108372746Y-69552120D01*
X108372746Y-69552120D02*
X108372746Y-69605995D01*
X108372746Y-69605995D02*
X108399683Y-69686807D01*
X108399683Y-69686807D02*
X108480495Y-69767619D01*
X108480495Y-69767619D02*
X108561307Y-69794557D01*
X108561307Y-69794557D02*
X108615182Y-69794557D01*
X108615182Y-69794557D02*
X108695994Y-69767619D01*
X108695994Y-69767619D02*
X108911494Y-69552120D01*
X108103372Y-69767619D02*
X107753185Y-70117806D01*
X107753185Y-70117806D02*
X108157246Y-70144743D01*
X108157246Y-70144743D02*
X108076434Y-70225555D01*
X108076434Y-70225555D02*
X108049497Y-70306367D01*
X108049497Y-70306367D02*
X108049497Y-70360242D01*
X108049497Y-70360242D02*
X108076434Y-70441054D01*
X108076434Y-70441054D02*
X108211121Y-70575741D01*
X108211121Y-70575741D02*
X108291933Y-70602679D01*
X108291933Y-70602679D02*
X108345808Y-70602679D01*
X108345808Y-70602679D02*
X108426620Y-70575741D01*
X108426620Y-70575741D02*
X108588245Y-70414117D01*
X108588245Y-70414117D02*
X108615182Y-70333305D01*
X108615182Y-70333305D02*
X108615182Y-70279430D01*
X96241494Y-68913372D02*
X96268431Y-68832560D01*
X96268431Y-68832560D02*
X96349243Y-68751748D01*
X96349243Y-68751748D02*
X96456993Y-68697873D01*
X96456993Y-68697873D02*
X96564742Y-68697873D01*
X96564742Y-68697873D02*
X96645555Y-68724810D01*
X96645555Y-68724810D02*
X96780242Y-68805623D01*
X96780242Y-68805623D02*
X96861054Y-68886435D01*
X96861054Y-68886435D02*
X96941866Y-69021122D01*
X96941866Y-69021122D02*
X96968803Y-69101934D01*
X96968803Y-69101934D02*
X96968803Y-69209684D01*
X96968803Y-69209684D02*
X96914929Y-69317433D01*
X96914929Y-69317433D02*
X96861054Y-69371308D01*
X96861054Y-69371308D02*
X96753304Y-69425183D01*
X96753304Y-69425183D02*
X96699429Y-69425183D01*
X96699429Y-69425183D02*
X96510868Y-69236621D01*
X96510868Y-69236621D02*
X96618617Y-69128871D01*
X96510868Y-69721494D02*
X95945182Y-69155809D01*
X95945182Y-69155809D02*
X95729683Y-69371308D01*
X95729683Y-69371308D02*
X95702746Y-69452120D01*
X95702746Y-69452120D02*
X95702746Y-69505995D01*
X95702746Y-69505995D02*
X95729683Y-69586807D01*
X95729683Y-69586807D02*
X95810495Y-69667619D01*
X95810495Y-69667619D02*
X95891307Y-69694557D01*
X95891307Y-69694557D02*
X95945182Y-69694557D01*
X95945182Y-69694557D02*
X96025994Y-69667619D01*
X96025994Y-69667619D02*
X96241494Y-69452120D01*
X95433372Y-69667619D02*
X95056248Y-70044743D01*
X95056248Y-70044743D02*
X95864370Y-70367992D01*
X73620868Y-42889998D02*
X73647805Y-42809185D01*
X73647805Y-42809185D02*
X73728618Y-42728373D01*
X73728618Y-42728373D02*
X73836367Y-42674498D01*
X73836367Y-42674498D02*
X73944117Y-42674498D01*
X73944117Y-42674498D02*
X74024929Y-42701436D01*
X74024929Y-42701436D02*
X74159616Y-42782248D01*
X74159616Y-42782248D02*
X74240428Y-42863060D01*
X74240428Y-42863060D02*
X74321241Y-42997747D01*
X74321241Y-42997747D02*
X74348178Y-43078560D01*
X74348178Y-43078560D02*
X74348178Y-43186309D01*
X74348178Y-43186309D02*
X74294303Y-43294059D01*
X74294303Y-43294059D02*
X74240428Y-43347934D01*
X74240428Y-43347934D02*
X74132679Y-43401808D01*
X74132679Y-43401808D02*
X74078804Y-43401808D01*
X74078804Y-43401808D02*
X73890242Y-43213247D01*
X73890242Y-43213247D02*
X73997992Y-43105497D01*
X73890242Y-43698120D02*
X73324557Y-43132434D01*
X73324557Y-43132434D02*
X73109057Y-43347934D01*
X73109057Y-43347934D02*
X73082120Y-43428746D01*
X73082120Y-43428746D02*
X73082120Y-43482621D01*
X73082120Y-43482621D02*
X73109057Y-43563433D01*
X73109057Y-43563433D02*
X73189870Y-43644245D01*
X73189870Y-43644245D02*
X73270682Y-43671182D01*
X73270682Y-43671182D02*
X73324557Y-43671182D01*
X73324557Y-43671182D02*
X73405369Y-43644245D01*
X73405369Y-43644245D02*
X73620868Y-43428746D01*
X73028245Y-44560117D02*
X73351494Y-44236868D01*
X73189870Y-44398492D02*
X72624184Y-43832807D01*
X72624184Y-43832807D02*
X72758871Y-43859744D01*
X72758871Y-43859744D02*
X72866621Y-43859744D01*
X72866621Y-43859744D02*
X72947433Y-43832807D01*
X72273998Y-44182993D02*
X71896874Y-44560117D01*
X71896874Y-44560117D02*
X72704996Y-44883366D01*
X106371494Y-69013372D02*
X106398431Y-68932560D01*
X106398431Y-68932560D02*
X106479243Y-68851748D01*
X106479243Y-68851748D02*
X106586993Y-68797873D01*
X106586993Y-68797873D02*
X106694742Y-68797873D01*
X106694742Y-68797873D02*
X106775555Y-68824810D01*
X106775555Y-68824810D02*
X106910242Y-68905623D01*
X106910242Y-68905623D02*
X106991054Y-68986435D01*
X106991054Y-68986435D02*
X107071866Y-69121122D01*
X107071866Y-69121122D02*
X107098803Y-69201934D01*
X107098803Y-69201934D02*
X107098803Y-69309684D01*
X107098803Y-69309684D02*
X107044929Y-69417433D01*
X107044929Y-69417433D02*
X106991054Y-69471308D01*
X106991054Y-69471308D02*
X106883304Y-69525183D01*
X106883304Y-69525183D02*
X106829429Y-69525183D01*
X106829429Y-69525183D02*
X106640868Y-69336621D01*
X106640868Y-69336621D02*
X106748617Y-69228871D01*
X106640868Y-69821494D02*
X106075182Y-69255809D01*
X106075182Y-69255809D02*
X105859683Y-69471308D01*
X105859683Y-69471308D02*
X105832746Y-69552120D01*
X105832746Y-69552120D02*
X105832746Y-69605995D01*
X105832746Y-69605995D02*
X105859683Y-69686807D01*
X105859683Y-69686807D02*
X105940495Y-69767619D01*
X105940495Y-69767619D02*
X106021307Y-69794557D01*
X106021307Y-69794557D02*
X106075182Y-69794557D01*
X106075182Y-69794557D02*
X106155994Y-69767619D01*
X106155994Y-69767619D02*
X106371494Y-69552120D01*
X105455622Y-70252493D02*
X105832746Y-70629616D01*
X105374810Y-69902306D02*
X105913558Y-70171680D01*
X105913558Y-70171680D02*
X105563372Y-70521867D01*
X81240868Y-69143998D02*
X81267805Y-69063185D01*
X81267805Y-69063185D02*
X81348618Y-68982373D01*
X81348618Y-68982373D02*
X81456367Y-68928498D01*
X81456367Y-68928498D02*
X81564117Y-68928498D01*
X81564117Y-68928498D02*
X81644929Y-68955436D01*
X81644929Y-68955436D02*
X81779616Y-69036248D01*
X81779616Y-69036248D02*
X81860428Y-69117060D01*
X81860428Y-69117060D02*
X81941241Y-69251747D01*
X81941241Y-69251747D02*
X81968178Y-69332560D01*
X81968178Y-69332560D02*
X81968178Y-69440309D01*
X81968178Y-69440309D02*
X81914303Y-69548059D01*
X81914303Y-69548059D02*
X81860428Y-69601934D01*
X81860428Y-69601934D02*
X81752679Y-69655808D01*
X81752679Y-69655808D02*
X81698804Y-69655808D01*
X81698804Y-69655808D02*
X81510242Y-69467247D01*
X81510242Y-69467247D02*
X81617992Y-69359497D01*
X81510242Y-69952120D02*
X80944557Y-69386434D01*
X80944557Y-69386434D02*
X80729057Y-69601934D01*
X80729057Y-69601934D02*
X80702120Y-69682746D01*
X80702120Y-69682746D02*
X80702120Y-69736621D01*
X80702120Y-69736621D02*
X80729057Y-69817433D01*
X80729057Y-69817433D02*
X80809870Y-69898245D01*
X80809870Y-69898245D02*
X80890682Y-69925182D01*
X80890682Y-69925182D02*
X80944557Y-69925182D01*
X80944557Y-69925182D02*
X81025369Y-69898245D01*
X81025369Y-69898245D02*
X81240868Y-69682746D01*
X80648245Y-70814117D02*
X80971494Y-70490868D01*
X80809870Y-70652492D02*
X80244184Y-70086807D01*
X80244184Y-70086807D02*
X80378871Y-70113744D01*
X80378871Y-70113744D02*
X80486621Y-70113744D01*
X80486621Y-70113744D02*
X80567433Y-70086807D01*
X79920935Y-70517805D02*
X79867060Y-70517805D01*
X79867060Y-70517805D02*
X79786248Y-70544743D01*
X79786248Y-70544743D02*
X79651561Y-70679430D01*
X79651561Y-70679430D02*
X79624624Y-70760242D01*
X79624624Y-70760242D02*
X79624624Y-70814117D01*
X79624624Y-70814117D02*
X79651561Y-70894929D01*
X79651561Y-70894929D02*
X79705436Y-70948804D01*
X79705436Y-70948804D02*
X79813186Y-71002679D01*
X79813186Y-71002679D02*
X80459683Y-71002679D01*
X80459683Y-71002679D02*
X80109497Y-71352865D01*
X116541494Y-69113372D02*
X116568431Y-69032560D01*
X116568431Y-69032560D02*
X116649243Y-68951748D01*
X116649243Y-68951748D02*
X116756993Y-68897873D01*
X116756993Y-68897873D02*
X116864742Y-68897873D01*
X116864742Y-68897873D02*
X116945555Y-68924810D01*
X116945555Y-68924810D02*
X117080242Y-69005623D01*
X117080242Y-69005623D02*
X117161054Y-69086435D01*
X117161054Y-69086435D02*
X117241866Y-69221122D01*
X117241866Y-69221122D02*
X117268803Y-69301934D01*
X117268803Y-69301934D02*
X117268803Y-69409684D01*
X117268803Y-69409684D02*
X117214929Y-69517433D01*
X117214929Y-69517433D02*
X117161054Y-69571308D01*
X117161054Y-69571308D02*
X117053304Y-69625183D01*
X117053304Y-69625183D02*
X116999429Y-69625183D01*
X116999429Y-69625183D02*
X116810868Y-69436621D01*
X116810868Y-69436621D02*
X116918617Y-69328871D01*
X116810868Y-69921494D02*
X116245182Y-69355809D01*
X116245182Y-69355809D02*
X116029683Y-69571308D01*
X116029683Y-69571308D02*
X116002746Y-69652120D01*
X116002746Y-69652120D02*
X116002746Y-69705995D01*
X116002746Y-69705995D02*
X116029683Y-69786807D01*
X116029683Y-69786807D02*
X116110495Y-69867619D01*
X116110495Y-69867619D02*
X116191307Y-69894557D01*
X116191307Y-69894557D02*
X116245182Y-69894557D01*
X116245182Y-69894557D02*
X116325994Y-69867619D01*
X116325994Y-69867619D02*
X116541494Y-69652120D01*
X115948871Y-70783491D02*
X116272120Y-70460242D01*
X116110495Y-70621867D02*
X115544810Y-70056181D01*
X115544810Y-70056181D02*
X115679497Y-70083119D01*
X115679497Y-70083119D02*
X115787246Y-70083119D01*
X115787246Y-70083119D02*
X115868059Y-70056181D01*
X81240868Y-42889998D02*
X81267805Y-42809185D01*
X81267805Y-42809185D02*
X81348618Y-42728373D01*
X81348618Y-42728373D02*
X81456367Y-42674498D01*
X81456367Y-42674498D02*
X81564117Y-42674498D01*
X81564117Y-42674498D02*
X81644929Y-42701436D01*
X81644929Y-42701436D02*
X81779616Y-42782248D01*
X81779616Y-42782248D02*
X81860428Y-42863060D01*
X81860428Y-42863060D02*
X81941241Y-42997747D01*
X81941241Y-42997747D02*
X81968178Y-43078560D01*
X81968178Y-43078560D02*
X81968178Y-43186309D01*
X81968178Y-43186309D02*
X81914303Y-43294059D01*
X81914303Y-43294059D02*
X81860428Y-43347934D01*
X81860428Y-43347934D02*
X81752679Y-43401808D01*
X81752679Y-43401808D02*
X81698804Y-43401808D01*
X81698804Y-43401808D02*
X81510242Y-43213247D01*
X81510242Y-43213247D02*
X81617992Y-43105497D01*
X81510242Y-43698120D02*
X80944557Y-43132434D01*
X80944557Y-43132434D02*
X80729057Y-43347934D01*
X80729057Y-43347934D02*
X80702120Y-43428746D01*
X80702120Y-43428746D02*
X80702120Y-43482621D01*
X80702120Y-43482621D02*
X80729057Y-43563433D01*
X80729057Y-43563433D02*
X80809870Y-43644245D01*
X80809870Y-43644245D02*
X80890682Y-43671182D01*
X80890682Y-43671182D02*
X80944557Y-43671182D01*
X80944557Y-43671182D02*
X81025369Y-43644245D01*
X81025369Y-43644245D02*
X81240868Y-43428746D01*
X80648245Y-44560117D02*
X80971494Y-44236868D01*
X80809870Y-44398492D02*
X80244184Y-43832807D01*
X80244184Y-43832807D02*
X80378871Y-43859744D01*
X80378871Y-43859744D02*
X80486621Y-43859744D01*
X80486621Y-43859744D02*
X80567433Y-43832807D01*
X80378871Y-44829491D02*
X80271121Y-44937240D01*
X80271121Y-44937240D02*
X80190309Y-44964178D01*
X80190309Y-44964178D02*
X80136434Y-44964178D01*
X80136434Y-44964178D02*
X80001747Y-44937240D01*
X80001747Y-44937240D02*
X79867060Y-44856428D01*
X79867060Y-44856428D02*
X79651561Y-44640929D01*
X79651561Y-44640929D02*
X79624624Y-44560117D01*
X79624624Y-44560117D02*
X79624624Y-44506242D01*
X79624624Y-44506242D02*
X79651561Y-44425430D01*
X79651561Y-44425430D02*
X79759311Y-44317680D01*
X79759311Y-44317680D02*
X79840123Y-44290743D01*
X79840123Y-44290743D02*
X79893998Y-44290743D01*
X79893998Y-44290743D02*
X79974810Y-44317680D01*
X79974810Y-44317680D02*
X80109497Y-44452367D01*
X80109497Y-44452367D02*
X80136434Y-44533179D01*
X80136434Y-44533179D02*
X80136434Y-44587054D01*
X80136434Y-44587054D02*
X80109497Y-44667866D01*
X80109497Y-44667866D02*
X80001747Y-44775616D01*
X80001747Y-44775616D02*
X79920935Y-44802553D01*
X79920935Y-44802553D02*
X79867060Y-44802553D01*
X79867060Y-44802553D02*
X79786248Y-44775616D01*
X111451494Y-69113372D02*
X111478431Y-69032560D01*
X111478431Y-69032560D02*
X111559243Y-68951748D01*
X111559243Y-68951748D02*
X111666993Y-68897873D01*
X111666993Y-68897873D02*
X111774742Y-68897873D01*
X111774742Y-68897873D02*
X111855555Y-68924810D01*
X111855555Y-68924810D02*
X111990242Y-69005623D01*
X111990242Y-69005623D02*
X112071054Y-69086435D01*
X112071054Y-69086435D02*
X112151866Y-69221122D01*
X112151866Y-69221122D02*
X112178803Y-69301934D01*
X112178803Y-69301934D02*
X112178803Y-69409684D01*
X112178803Y-69409684D02*
X112124929Y-69517433D01*
X112124929Y-69517433D02*
X112071054Y-69571308D01*
X112071054Y-69571308D02*
X111963304Y-69625183D01*
X111963304Y-69625183D02*
X111909429Y-69625183D01*
X111909429Y-69625183D02*
X111720868Y-69436621D01*
X111720868Y-69436621D02*
X111828617Y-69328871D01*
X111720868Y-69921494D02*
X111155182Y-69355809D01*
X111155182Y-69355809D02*
X110939683Y-69571308D01*
X110939683Y-69571308D02*
X110912746Y-69652120D01*
X110912746Y-69652120D02*
X110912746Y-69705995D01*
X110912746Y-69705995D02*
X110939683Y-69786807D01*
X110939683Y-69786807D02*
X111020495Y-69867619D01*
X111020495Y-69867619D02*
X111101307Y-69894557D01*
X111101307Y-69894557D02*
X111155182Y-69894557D01*
X111155182Y-69894557D02*
X111235994Y-69867619D01*
X111235994Y-69867619D02*
X111451494Y-69652120D01*
X110670309Y-69948432D02*
X110616434Y-69948432D01*
X110616434Y-69948432D02*
X110535622Y-69975369D01*
X110535622Y-69975369D02*
X110400935Y-70110056D01*
X110400935Y-70110056D02*
X110373998Y-70190868D01*
X110373998Y-70190868D02*
X110373998Y-70244743D01*
X110373998Y-70244743D02*
X110400935Y-70325555D01*
X110400935Y-70325555D02*
X110454810Y-70379430D01*
X110454810Y-70379430D02*
X110562559Y-70433305D01*
X110562559Y-70433305D02*
X111209057Y-70433305D01*
X111209057Y-70433305D02*
X110858871Y-70783491D01*
X88618431Y-68986435D02*
X88645368Y-68905623D01*
X88645368Y-68905623D02*
X88726180Y-68824811D01*
X88726180Y-68824811D02*
X88833930Y-68770936D01*
X88833930Y-68770936D02*
X88941680Y-68770936D01*
X88941680Y-68770936D02*
X89022492Y-68797873D01*
X89022492Y-68797873D02*
X89157179Y-68878685D01*
X89157179Y-68878685D02*
X89237991Y-68959498D01*
X89237991Y-68959498D02*
X89318803Y-69094185D01*
X89318803Y-69094185D02*
X89345741Y-69174997D01*
X89345741Y-69174997D02*
X89345741Y-69282746D01*
X89345741Y-69282746D02*
X89291866Y-69390496D01*
X89291866Y-69390496D02*
X89237991Y-69444371D01*
X89237991Y-69444371D02*
X89130241Y-69498246D01*
X89130241Y-69498246D02*
X89076367Y-69498246D01*
X89076367Y-69498246D02*
X88887805Y-69309684D01*
X88887805Y-69309684D02*
X88995554Y-69201934D01*
X88887805Y-69794557D02*
X88322119Y-69228872D01*
X88322119Y-69228872D02*
X88564556Y-70117806D01*
X88564556Y-70117806D02*
X87998871Y-69552120D01*
X88295182Y-70387180D02*
X87729497Y-69821494D01*
X87729497Y-69821494D02*
X87594810Y-69956181D01*
X87594810Y-69956181D02*
X87540935Y-70063931D01*
X87540935Y-70063931D02*
X87540935Y-70171680D01*
X87540935Y-70171680D02*
X87567872Y-70252493D01*
X87567872Y-70252493D02*
X87648685Y-70387180D01*
X87648685Y-70387180D02*
X87729497Y-70467992D01*
X87729497Y-70467992D02*
X87864184Y-70548804D01*
X87864184Y-70548804D02*
X87944996Y-70575741D01*
X87944996Y-70575741D02*
X88052746Y-70575741D01*
X88052746Y-70575741D02*
X88160495Y-70521867D01*
X88160495Y-70521867D02*
X88295182Y-70387180D01*
X104354868Y-42889998D02*
X104381805Y-42809185D01*
X104381805Y-42809185D02*
X104462618Y-42728373D01*
X104462618Y-42728373D02*
X104570367Y-42674498D01*
X104570367Y-42674498D02*
X104678117Y-42674498D01*
X104678117Y-42674498D02*
X104758929Y-42701436D01*
X104758929Y-42701436D02*
X104893616Y-42782248D01*
X104893616Y-42782248D02*
X104974428Y-42863060D01*
X104974428Y-42863060D02*
X105055241Y-42997747D01*
X105055241Y-42997747D02*
X105082178Y-43078560D01*
X105082178Y-43078560D02*
X105082178Y-43186309D01*
X105082178Y-43186309D02*
X105028303Y-43294059D01*
X105028303Y-43294059D02*
X104974428Y-43347934D01*
X104974428Y-43347934D02*
X104866679Y-43401808D01*
X104866679Y-43401808D02*
X104812804Y-43401808D01*
X104812804Y-43401808D02*
X104624242Y-43213247D01*
X104624242Y-43213247D02*
X104731992Y-43105497D01*
X104624242Y-43698120D02*
X104058557Y-43132434D01*
X104058557Y-43132434D02*
X103843057Y-43347934D01*
X103843057Y-43347934D02*
X103816120Y-43428746D01*
X103816120Y-43428746D02*
X103816120Y-43482621D01*
X103816120Y-43482621D02*
X103843057Y-43563433D01*
X103843057Y-43563433D02*
X103923870Y-43644245D01*
X103923870Y-43644245D02*
X104004682Y-43671182D01*
X104004682Y-43671182D02*
X104058557Y-43671182D01*
X104058557Y-43671182D02*
X104139369Y-43644245D01*
X104139369Y-43644245D02*
X104354868Y-43428746D01*
X103573683Y-43725057D02*
X103519809Y-43725057D01*
X103519809Y-43725057D02*
X103438996Y-43751995D01*
X103438996Y-43751995D02*
X103304309Y-43886682D01*
X103304309Y-43886682D02*
X103277372Y-43967494D01*
X103277372Y-43967494D02*
X103277372Y-44021369D01*
X103277372Y-44021369D02*
X103304309Y-44102181D01*
X103304309Y-44102181D02*
X103358184Y-44156056D01*
X103358184Y-44156056D02*
X103465934Y-44209930D01*
X103465934Y-44209930D02*
X104112431Y-44209930D01*
X104112431Y-44209930D02*
X103762245Y-44560117D01*
X103115747Y-44560117D02*
X103142685Y-44479305D01*
X103142685Y-44479305D02*
X103142685Y-44425430D01*
X103142685Y-44425430D02*
X103115747Y-44344618D01*
X103115747Y-44344618D02*
X103088810Y-44317680D01*
X103088810Y-44317680D02*
X103007998Y-44290743D01*
X103007998Y-44290743D02*
X102954123Y-44290743D01*
X102954123Y-44290743D02*
X102873311Y-44317680D01*
X102873311Y-44317680D02*
X102765561Y-44425430D01*
X102765561Y-44425430D02*
X102738624Y-44506242D01*
X102738624Y-44506242D02*
X102738624Y-44560117D01*
X102738624Y-44560117D02*
X102765561Y-44640929D01*
X102765561Y-44640929D02*
X102792499Y-44667866D01*
X102792499Y-44667866D02*
X102873311Y-44694804D01*
X102873311Y-44694804D02*
X102927186Y-44694804D01*
X102927186Y-44694804D02*
X103007998Y-44667866D01*
X103007998Y-44667866D02*
X103115747Y-44560117D01*
X103115747Y-44560117D02*
X103196560Y-44533179D01*
X103196560Y-44533179D02*
X103250434Y-44533179D01*
X103250434Y-44533179D02*
X103331247Y-44560117D01*
X103331247Y-44560117D02*
X103438996Y-44667866D01*
X103438996Y-44667866D02*
X103465934Y-44748679D01*
X103465934Y-44748679D02*
X103465934Y-44802553D01*
X103465934Y-44802553D02*
X103438996Y-44883366D01*
X103438996Y-44883366D02*
X103331247Y-44991115D01*
X103331247Y-44991115D02*
X103250434Y-45018053D01*
X103250434Y-45018053D02*
X103196560Y-45018053D01*
X103196560Y-45018053D02*
X103115747Y-44991115D01*
X103115747Y-44991115D02*
X103007998Y-44883366D01*
X103007998Y-44883366D02*
X102981060Y-44802553D01*
X102981060Y-44802553D02*
X102981060Y-44748679D01*
X102981060Y-44748679D02*
X103007998Y-44667866D01*
X83780868Y-42889998D02*
X83807805Y-42809185D01*
X83807805Y-42809185D02*
X83888618Y-42728373D01*
X83888618Y-42728373D02*
X83996367Y-42674498D01*
X83996367Y-42674498D02*
X84104117Y-42674498D01*
X84104117Y-42674498D02*
X84184929Y-42701436D01*
X84184929Y-42701436D02*
X84319616Y-42782248D01*
X84319616Y-42782248D02*
X84400428Y-42863060D01*
X84400428Y-42863060D02*
X84481241Y-42997747D01*
X84481241Y-42997747D02*
X84508178Y-43078560D01*
X84508178Y-43078560D02*
X84508178Y-43186309D01*
X84508178Y-43186309D02*
X84454303Y-43294059D01*
X84454303Y-43294059D02*
X84400428Y-43347934D01*
X84400428Y-43347934D02*
X84292679Y-43401808D01*
X84292679Y-43401808D02*
X84238804Y-43401808D01*
X84238804Y-43401808D02*
X84050242Y-43213247D01*
X84050242Y-43213247D02*
X84157992Y-43105497D01*
X84050242Y-43698120D02*
X83484557Y-43132434D01*
X83484557Y-43132434D02*
X83269057Y-43347934D01*
X83269057Y-43347934D02*
X83242120Y-43428746D01*
X83242120Y-43428746D02*
X83242120Y-43482621D01*
X83242120Y-43482621D02*
X83269057Y-43563433D01*
X83269057Y-43563433D02*
X83349870Y-43644245D01*
X83349870Y-43644245D02*
X83430682Y-43671182D01*
X83430682Y-43671182D02*
X83484557Y-43671182D01*
X83484557Y-43671182D02*
X83565369Y-43644245D01*
X83565369Y-43644245D02*
X83780868Y-43428746D01*
X82999683Y-43725057D02*
X82945809Y-43725057D01*
X82945809Y-43725057D02*
X82864996Y-43751995D01*
X82864996Y-43751995D02*
X82730309Y-43886682D01*
X82730309Y-43886682D02*
X82703372Y-43967494D01*
X82703372Y-43967494D02*
X82703372Y-44021369D01*
X82703372Y-44021369D02*
X82730309Y-44102181D01*
X82730309Y-44102181D02*
X82784184Y-44156056D01*
X82784184Y-44156056D02*
X82891934Y-44209930D01*
X82891934Y-44209930D02*
X83538431Y-44209930D01*
X83538431Y-44209930D02*
X83188245Y-44560117D01*
X82272373Y-44344618D02*
X82218499Y-44398492D01*
X82218499Y-44398492D02*
X82191561Y-44479305D01*
X82191561Y-44479305D02*
X82191561Y-44533179D01*
X82191561Y-44533179D02*
X82218499Y-44613992D01*
X82218499Y-44613992D02*
X82299311Y-44748679D01*
X82299311Y-44748679D02*
X82433998Y-44883366D01*
X82433998Y-44883366D02*
X82568685Y-44964178D01*
X82568685Y-44964178D02*
X82649497Y-44991115D01*
X82649497Y-44991115D02*
X82703372Y-44991115D01*
X82703372Y-44991115D02*
X82784184Y-44964178D01*
X82784184Y-44964178D02*
X82838059Y-44910303D01*
X82838059Y-44910303D02*
X82864996Y-44829491D01*
X82864996Y-44829491D02*
X82864996Y-44775616D01*
X82864996Y-44775616D02*
X82838059Y-44694804D01*
X82838059Y-44694804D02*
X82757247Y-44560117D01*
X82757247Y-44560117D02*
X82622560Y-44425430D01*
X82622560Y-44425430D02*
X82487873Y-44344618D01*
X82487873Y-44344618D02*
X82407060Y-44317680D01*
X82407060Y-44317680D02*
X82353186Y-44317680D01*
X82353186Y-44317680D02*
X82272373Y-44344618D01*
X78700868Y-42889998D02*
X78727805Y-42809185D01*
X78727805Y-42809185D02*
X78808618Y-42728373D01*
X78808618Y-42728373D02*
X78916367Y-42674498D01*
X78916367Y-42674498D02*
X79024117Y-42674498D01*
X79024117Y-42674498D02*
X79104929Y-42701436D01*
X79104929Y-42701436D02*
X79239616Y-42782248D01*
X79239616Y-42782248D02*
X79320428Y-42863060D01*
X79320428Y-42863060D02*
X79401241Y-42997747D01*
X79401241Y-42997747D02*
X79428178Y-43078560D01*
X79428178Y-43078560D02*
X79428178Y-43186309D01*
X79428178Y-43186309D02*
X79374303Y-43294059D01*
X79374303Y-43294059D02*
X79320428Y-43347934D01*
X79320428Y-43347934D02*
X79212679Y-43401808D01*
X79212679Y-43401808D02*
X79158804Y-43401808D01*
X79158804Y-43401808D02*
X78970242Y-43213247D01*
X78970242Y-43213247D02*
X79077992Y-43105497D01*
X78970242Y-43698120D02*
X78404557Y-43132434D01*
X78404557Y-43132434D02*
X78189057Y-43347934D01*
X78189057Y-43347934D02*
X78162120Y-43428746D01*
X78162120Y-43428746D02*
X78162120Y-43482621D01*
X78162120Y-43482621D02*
X78189057Y-43563433D01*
X78189057Y-43563433D02*
X78269870Y-43644245D01*
X78269870Y-43644245D02*
X78350682Y-43671182D01*
X78350682Y-43671182D02*
X78404557Y-43671182D01*
X78404557Y-43671182D02*
X78485369Y-43644245D01*
X78485369Y-43644245D02*
X78700868Y-43428746D01*
X78108245Y-44560117D02*
X78431494Y-44236868D01*
X78269870Y-44398492D02*
X77704184Y-43832807D01*
X77704184Y-43832807D02*
X77838871Y-43859744D01*
X77838871Y-43859744D02*
X77946621Y-43859744D01*
X77946621Y-43859744D02*
X78027433Y-43832807D01*
X77461747Y-44560117D02*
X77488685Y-44479305D01*
X77488685Y-44479305D02*
X77488685Y-44425430D01*
X77488685Y-44425430D02*
X77461747Y-44344618D01*
X77461747Y-44344618D02*
X77434810Y-44317680D01*
X77434810Y-44317680D02*
X77353998Y-44290743D01*
X77353998Y-44290743D02*
X77300123Y-44290743D01*
X77300123Y-44290743D02*
X77219311Y-44317680D01*
X77219311Y-44317680D02*
X77111561Y-44425430D01*
X77111561Y-44425430D02*
X77084624Y-44506242D01*
X77084624Y-44506242D02*
X77084624Y-44560117D01*
X77084624Y-44560117D02*
X77111561Y-44640929D01*
X77111561Y-44640929D02*
X77138499Y-44667866D01*
X77138499Y-44667866D02*
X77219311Y-44694804D01*
X77219311Y-44694804D02*
X77273186Y-44694804D01*
X77273186Y-44694804D02*
X77353998Y-44667866D01*
X77353998Y-44667866D02*
X77461747Y-44560117D01*
X77461747Y-44560117D02*
X77542560Y-44533179D01*
X77542560Y-44533179D02*
X77596434Y-44533179D01*
X77596434Y-44533179D02*
X77677247Y-44560117D01*
X77677247Y-44560117D02*
X77784996Y-44667866D01*
X77784996Y-44667866D02*
X77811934Y-44748679D01*
X77811934Y-44748679D02*
X77811934Y-44802553D01*
X77811934Y-44802553D02*
X77784996Y-44883366D01*
X77784996Y-44883366D02*
X77677247Y-44991115D01*
X77677247Y-44991115D02*
X77596434Y-45018053D01*
X77596434Y-45018053D02*
X77542560Y-45018053D01*
X77542560Y-45018053D02*
X77461747Y-44991115D01*
X77461747Y-44991115D02*
X77353998Y-44883366D01*
X77353998Y-44883366D02*
X77327060Y-44802553D01*
X77327060Y-44802553D02*
X77327060Y-44748679D01*
X77327060Y-44748679D02*
X77353998Y-44667866D01*
X114018431Y-43386435D02*
X114045368Y-43305623D01*
X114045368Y-43305623D02*
X114126180Y-43224811D01*
X114126180Y-43224811D02*
X114233930Y-43170936D01*
X114233930Y-43170936D02*
X114341680Y-43170936D01*
X114341680Y-43170936D02*
X114422492Y-43197873D01*
X114422492Y-43197873D02*
X114557179Y-43278685D01*
X114557179Y-43278685D02*
X114637991Y-43359498D01*
X114637991Y-43359498D02*
X114718803Y-43494185D01*
X114718803Y-43494185D02*
X114745741Y-43574997D01*
X114745741Y-43574997D02*
X114745741Y-43682746D01*
X114745741Y-43682746D02*
X114691866Y-43790496D01*
X114691866Y-43790496D02*
X114637991Y-43844371D01*
X114637991Y-43844371D02*
X114530241Y-43898246D01*
X114530241Y-43898246D02*
X114476367Y-43898246D01*
X114476367Y-43898246D02*
X114287805Y-43709684D01*
X114287805Y-43709684D02*
X114395554Y-43601934D01*
X114287805Y-44194557D02*
X113722119Y-43628872D01*
X113722119Y-43628872D02*
X113964556Y-44517806D01*
X113964556Y-44517806D02*
X113398871Y-43952120D01*
X113695182Y-44787180D02*
X113129497Y-44221494D01*
X113129497Y-44221494D02*
X112994810Y-44356181D01*
X112994810Y-44356181D02*
X112940935Y-44463931D01*
X112940935Y-44463931D02*
X112940935Y-44571680D01*
X112940935Y-44571680D02*
X112967872Y-44652493D01*
X112967872Y-44652493D02*
X113048685Y-44787180D01*
X113048685Y-44787180D02*
X113129497Y-44867992D01*
X113129497Y-44867992D02*
X113264184Y-44948804D01*
X113264184Y-44948804D02*
X113344996Y-44975741D01*
X113344996Y-44975741D02*
X113452746Y-44975741D01*
X113452746Y-44975741D02*
X113560495Y-44921867D01*
X113560495Y-44921867D02*
X113695182Y-44787180D01*
X112964584Y-41651407D02*
X112614398Y-42001593D01*
X112614398Y-42001593D02*
X113018459Y-42028531D01*
X113018459Y-42028531D02*
X112937646Y-42109343D01*
X112937646Y-42109343D02*
X112910709Y-42190155D01*
X112910709Y-42190155D02*
X112910709Y-42244030D01*
X112910709Y-42244030D02*
X112937646Y-42324842D01*
X112937646Y-42324842D02*
X113072333Y-42459529D01*
X113072333Y-42459529D02*
X113153146Y-42486467D01*
X113153146Y-42486467D02*
X113207020Y-42486467D01*
X113207020Y-42486467D02*
X113287833Y-42459529D01*
X113287833Y-42459529D02*
X113449457Y-42297905D01*
X113449457Y-42297905D02*
X113476394Y-42217093D01*
X113476394Y-42217093D02*
X113476394Y-42163218D01*
X112452773Y-42163218D02*
X112829897Y-42917465D01*
X112829897Y-42917465D02*
X112075649Y-42540342D01*
X111940963Y-42675028D02*
X111590776Y-43025215D01*
X111590776Y-43025215D02*
X111994837Y-43052152D01*
X111994837Y-43052152D02*
X111914025Y-43132964D01*
X111914025Y-43132964D02*
X111887088Y-43213776D01*
X111887088Y-43213776D02*
X111887088Y-43267651D01*
X111887088Y-43267651D02*
X111914025Y-43348464D01*
X111914025Y-43348464D02*
X112048712Y-43483151D01*
X112048712Y-43483151D02*
X112129524Y-43510088D01*
X112129524Y-43510088D02*
X112183399Y-43510088D01*
X112183399Y-43510088D02*
X112264211Y-43483151D01*
X112264211Y-43483151D02*
X112425836Y-43321526D01*
X112425836Y-43321526D02*
X112452773Y-43240714D01*
X112452773Y-43240714D02*
X112452773Y-43186839D01*
X112102587Y-43752525D02*
X111671588Y-44183523D01*
X111186715Y-43968024D02*
X110998153Y-44156586D01*
X111213652Y-44533709D02*
X111483026Y-44264335D01*
X111483026Y-44264335D02*
X110917341Y-43698650D01*
X110917341Y-43698650D02*
X110647967Y-43968024D01*
X110971215Y-44776146D02*
X110405530Y-44210461D01*
X110405530Y-44210461D02*
X110647967Y-45099395D01*
X110647967Y-45099395D02*
X110082281Y-44533710D01*
X109110868Y-42990123D02*
X108760682Y-43340309D01*
X108760682Y-43340309D02*
X109164743Y-43367247D01*
X109164743Y-43367247D02*
X109083931Y-43448059D01*
X109083931Y-43448059D02*
X109056993Y-43528871D01*
X109056993Y-43528871D02*
X109056993Y-43582746D01*
X109056993Y-43582746D02*
X109083931Y-43663558D01*
X109083931Y-43663558D02*
X109218618Y-43798245D01*
X109218618Y-43798245D02*
X109299430Y-43825182D01*
X109299430Y-43825182D02*
X109353305Y-43825182D01*
X109353305Y-43825182D02*
X109434117Y-43798245D01*
X109434117Y-43798245D02*
X109595741Y-43636621D01*
X109595741Y-43636621D02*
X109622679Y-43555808D01*
X109622679Y-43555808D02*
X109622679Y-43501934D01*
X108599057Y-43501934D02*
X108976181Y-44256181D01*
X108976181Y-44256181D02*
X108221934Y-43879057D01*
X108087247Y-44013744D02*
X107737061Y-44363930D01*
X107737061Y-44363930D02*
X108141122Y-44390868D01*
X108141122Y-44390868D02*
X108060309Y-44471680D01*
X108060309Y-44471680D02*
X108033372Y-44552492D01*
X108033372Y-44552492D02*
X108033372Y-44606367D01*
X108033372Y-44606367D02*
X108060309Y-44687179D01*
X108060309Y-44687179D02*
X108194996Y-44821866D01*
X108194996Y-44821866D02*
X108275809Y-44848804D01*
X108275809Y-44848804D02*
X108329683Y-44848804D01*
X108329683Y-44848804D02*
X108410496Y-44821866D01*
X108410496Y-44821866D02*
X108572120Y-44660242D01*
X108572120Y-44660242D02*
X108599057Y-44579430D01*
X108599057Y-44579430D02*
X108599057Y-44525555D01*
X117070242Y-42420749D02*
X117447366Y-43174996D01*
X117447366Y-43174996D02*
X116693118Y-42797873D01*
X117070242Y-43498245D02*
X117016367Y-43605995D01*
X117016367Y-43605995D02*
X116881680Y-43740682D01*
X116881680Y-43740682D02*
X116800868Y-43767619D01*
X116800868Y-43767619D02*
X116746993Y-43767619D01*
X116746993Y-43767619D02*
X116666181Y-43740682D01*
X116666181Y-43740682D02*
X116612306Y-43686807D01*
X116612306Y-43686807D02*
X116585369Y-43605995D01*
X116585369Y-43605995D02*
X116585369Y-43552120D01*
X116585369Y-43552120D02*
X116612306Y-43471308D01*
X116612306Y-43471308D02*
X116693118Y-43336621D01*
X116693118Y-43336621D02*
X116720056Y-43255808D01*
X116720056Y-43255808D02*
X116720056Y-43201934D01*
X116720056Y-43201934D02*
X116693118Y-43121121D01*
X116693118Y-43121121D02*
X116639244Y-43067247D01*
X116639244Y-43067247D02*
X116558431Y-43040309D01*
X116558431Y-43040309D02*
X116504557Y-43040309D01*
X116504557Y-43040309D02*
X116423744Y-43067247D01*
X116423744Y-43067247D02*
X116289057Y-43201934D01*
X116289057Y-43201934D02*
X116235183Y-43309683D01*
X116154370Y-43929244D02*
X116423744Y-44198618D01*
X116046621Y-43444370D02*
X116154370Y-43929244D01*
X116154370Y-43929244D02*
X115669497Y-43821494D01*
X116046621Y-44521866D02*
X115992746Y-44629616D01*
X115992746Y-44629616D02*
X115858059Y-44764303D01*
X115858059Y-44764303D02*
X115777247Y-44791240D01*
X115777247Y-44791240D02*
X115723372Y-44791240D01*
X115723372Y-44791240D02*
X115642560Y-44764303D01*
X115642560Y-44764303D02*
X115588685Y-44710428D01*
X115588685Y-44710428D02*
X115561748Y-44629616D01*
X115561748Y-44629616D02*
X115561748Y-44575741D01*
X115561748Y-44575741D02*
X115588685Y-44494929D01*
X115588685Y-44494929D02*
X115669497Y-44360242D01*
X115669497Y-44360242D02*
X115696435Y-44279430D01*
X115696435Y-44279430D02*
X115696435Y-44225555D01*
X115696435Y-44225555D02*
X115669497Y-44144743D01*
X115669497Y-44144743D02*
X115615622Y-44090868D01*
X115615622Y-44090868D02*
X115534810Y-44063930D01*
X115534810Y-44063930D02*
X115480935Y-44063930D01*
X115480935Y-44063930D02*
X115400123Y-44090868D01*
X115400123Y-44090868D02*
X115265436Y-44225555D01*
X115265436Y-44225555D02*
X115211561Y-44333304D01*
X86310868Y-42889998D02*
X86337805Y-42809185D01*
X86337805Y-42809185D02*
X86418618Y-42728373D01*
X86418618Y-42728373D02*
X86526367Y-42674498D01*
X86526367Y-42674498D02*
X86634117Y-42674498D01*
X86634117Y-42674498D02*
X86714929Y-42701436D01*
X86714929Y-42701436D02*
X86849616Y-42782248D01*
X86849616Y-42782248D02*
X86930428Y-42863060D01*
X86930428Y-42863060D02*
X87011241Y-42997747D01*
X87011241Y-42997747D02*
X87038178Y-43078560D01*
X87038178Y-43078560D02*
X87038178Y-43186309D01*
X87038178Y-43186309D02*
X86984303Y-43294059D01*
X86984303Y-43294059D02*
X86930428Y-43347934D01*
X86930428Y-43347934D02*
X86822679Y-43401808D01*
X86822679Y-43401808D02*
X86768804Y-43401808D01*
X86768804Y-43401808D02*
X86580242Y-43213247D01*
X86580242Y-43213247D02*
X86687992Y-43105497D01*
X86580242Y-43698120D02*
X86014557Y-43132434D01*
X86014557Y-43132434D02*
X85799057Y-43347934D01*
X85799057Y-43347934D02*
X85772120Y-43428746D01*
X85772120Y-43428746D02*
X85772120Y-43482621D01*
X85772120Y-43482621D02*
X85799057Y-43563433D01*
X85799057Y-43563433D02*
X85879870Y-43644245D01*
X85879870Y-43644245D02*
X85960682Y-43671182D01*
X85960682Y-43671182D02*
X86014557Y-43671182D01*
X86014557Y-43671182D02*
X86095369Y-43644245D01*
X86095369Y-43644245D02*
X86310868Y-43428746D01*
X85529683Y-43725057D02*
X85475809Y-43725057D01*
X85475809Y-43725057D02*
X85394996Y-43751995D01*
X85394996Y-43751995D02*
X85260309Y-43886682D01*
X85260309Y-43886682D02*
X85233372Y-43967494D01*
X85233372Y-43967494D02*
X85233372Y-44021369D01*
X85233372Y-44021369D02*
X85260309Y-44102181D01*
X85260309Y-44102181D02*
X85314184Y-44156056D01*
X85314184Y-44156056D02*
X85421934Y-44209930D01*
X85421934Y-44209930D02*
X86068431Y-44209930D01*
X86068431Y-44209930D02*
X85718245Y-44560117D01*
X85179497Y-45098865D02*
X85502746Y-44775616D01*
X85341121Y-44937240D02*
X84775436Y-44371555D01*
X84775436Y-44371555D02*
X84910123Y-44398492D01*
X84910123Y-44398492D02*
X85017873Y-44398492D01*
X85017873Y-44398492D02*
X85098685Y-44371555D01*
X98751494Y-69013372D02*
X98778431Y-68932560D01*
X98778431Y-68932560D02*
X98859243Y-68851748D01*
X98859243Y-68851748D02*
X98966993Y-68797873D01*
X98966993Y-68797873D02*
X99074742Y-68797873D01*
X99074742Y-68797873D02*
X99155555Y-68824810D01*
X99155555Y-68824810D02*
X99290242Y-68905623D01*
X99290242Y-68905623D02*
X99371054Y-68986435D01*
X99371054Y-68986435D02*
X99451866Y-69121122D01*
X99451866Y-69121122D02*
X99478803Y-69201934D01*
X99478803Y-69201934D02*
X99478803Y-69309684D01*
X99478803Y-69309684D02*
X99424929Y-69417433D01*
X99424929Y-69417433D02*
X99371054Y-69471308D01*
X99371054Y-69471308D02*
X99263304Y-69525183D01*
X99263304Y-69525183D02*
X99209429Y-69525183D01*
X99209429Y-69525183D02*
X99020868Y-69336621D01*
X99020868Y-69336621D02*
X99128617Y-69228871D01*
X99020868Y-69821494D02*
X98455182Y-69255809D01*
X98455182Y-69255809D02*
X98239683Y-69471308D01*
X98239683Y-69471308D02*
X98212746Y-69552120D01*
X98212746Y-69552120D02*
X98212746Y-69605995D01*
X98212746Y-69605995D02*
X98239683Y-69686807D01*
X98239683Y-69686807D02*
X98320495Y-69767619D01*
X98320495Y-69767619D02*
X98401307Y-69794557D01*
X98401307Y-69794557D02*
X98455182Y-69794557D01*
X98455182Y-69794557D02*
X98535994Y-69767619D01*
X98535994Y-69767619D02*
X98751494Y-69552120D01*
X97647060Y-70063931D02*
X97754810Y-69956181D01*
X97754810Y-69956181D02*
X97835622Y-69929244D01*
X97835622Y-69929244D02*
X97889497Y-69929244D01*
X97889497Y-69929244D02*
X98024184Y-69956181D01*
X98024184Y-69956181D02*
X98158871Y-70036993D01*
X98158871Y-70036993D02*
X98374370Y-70252493D01*
X98374370Y-70252493D02*
X98401307Y-70333305D01*
X98401307Y-70333305D02*
X98401307Y-70387180D01*
X98401307Y-70387180D02*
X98374370Y-70467992D01*
X98374370Y-70467992D02*
X98266620Y-70575741D01*
X98266620Y-70575741D02*
X98185808Y-70602679D01*
X98185808Y-70602679D02*
X98131933Y-70602679D01*
X98131933Y-70602679D02*
X98051121Y-70575741D01*
X98051121Y-70575741D02*
X97916434Y-70441054D01*
X97916434Y-70441054D02*
X97889497Y-70360242D01*
X97889497Y-70360242D02*
X97889497Y-70306367D01*
X97889497Y-70306367D02*
X97916434Y-70225555D01*
X97916434Y-70225555D02*
X98024184Y-70117806D01*
X98024184Y-70117806D02*
X98104996Y-70090868D01*
X98104996Y-70090868D02*
X98158871Y-70090868D01*
X98158871Y-70090868D02*
X98239683Y-70117806D01*
X119071494Y-69013372D02*
X119098431Y-68932560D01*
X119098431Y-68932560D02*
X119179243Y-68851748D01*
X119179243Y-68851748D02*
X119286993Y-68797873D01*
X119286993Y-68797873D02*
X119394742Y-68797873D01*
X119394742Y-68797873D02*
X119475555Y-68824810D01*
X119475555Y-68824810D02*
X119610242Y-68905623D01*
X119610242Y-68905623D02*
X119691054Y-68986435D01*
X119691054Y-68986435D02*
X119771866Y-69121122D01*
X119771866Y-69121122D02*
X119798803Y-69201934D01*
X119798803Y-69201934D02*
X119798803Y-69309684D01*
X119798803Y-69309684D02*
X119744929Y-69417433D01*
X119744929Y-69417433D02*
X119691054Y-69471308D01*
X119691054Y-69471308D02*
X119583304Y-69525183D01*
X119583304Y-69525183D02*
X119529429Y-69525183D01*
X119529429Y-69525183D02*
X119340868Y-69336621D01*
X119340868Y-69336621D02*
X119448617Y-69228871D01*
X119340868Y-69821494D02*
X118775182Y-69255809D01*
X118775182Y-69255809D02*
X118559683Y-69471308D01*
X118559683Y-69471308D02*
X118532746Y-69552120D01*
X118532746Y-69552120D02*
X118532746Y-69605995D01*
X118532746Y-69605995D02*
X118559683Y-69686807D01*
X118559683Y-69686807D02*
X118640495Y-69767619D01*
X118640495Y-69767619D02*
X118721307Y-69794557D01*
X118721307Y-69794557D02*
X118775182Y-69794557D01*
X118775182Y-69794557D02*
X118855994Y-69767619D01*
X118855994Y-69767619D02*
X119071494Y-69552120D01*
X118101747Y-69929244D02*
X118047872Y-69983119D01*
X118047872Y-69983119D02*
X118020935Y-70063931D01*
X118020935Y-70063931D02*
X118020935Y-70117806D01*
X118020935Y-70117806D02*
X118047872Y-70198618D01*
X118047872Y-70198618D02*
X118128685Y-70333305D01*
X118128685Y-70333305D02*
X118263372Y-70467992D01*
X118263372Y-70467992D02*
X118398059Y-70548804D01*
X118398059Y-70548804D02*
X118478871Y-70575741D01*
X118478871Y-70575741D02*
X118532746Y-70575741D01*
X118532746Y-70575741D02*
X118613558Y-70548804D01*
X118613558Y-70548804D02*
X118667433Y-70494929D01*
X118667433Y-70494929D02*
X118694370Y-70414117D01*
X118694370Y-70414117D02*
X118694370Y-70360242D01*
X118694370Y-70360242D02*
X118667433Y-70279430D01*
X118667433Y-70279430D02*
X118586620Y-70144743D01*
X118586620Y-70144743D02*
X118451933Y-70010056D01*
X118451933Y-70010056D02*
X118317246Y-69929244D01*
X118317246Y-69929244D02*
X118236434Y-69902306D01*
X118236434Y-69902306D02*
X118182559Y-69902306D01*
X118182559Y-69902306D02*
X118101747Y-69929244D01*
X75918431Y-68986435D02*
X75945368Y-68905623D01*
X75945368Y-68905623D02*
X76026180Y-68824811D01*
X76026180Y-68824811D02*
X76133930Y-68770936D01*
X76133930Y-68770936D02*
X76241680Y-68770936D01*
X76241680Y-68770936D02*
X76322492Y-68797873D01*
X76322492Y-68797873D02*
X76457179Y-68878685D01*
X76457179Y-68878685D02*
X76537991Y-68959498D01*
X76537991Y-68959498D02*
X76618803Y-69094185D01*
X76618803Y-69094185D02*
X76645741Y-69174997D01*
X76645741Y-69174997D02*
X76645741Y-69282746D01*
X76645741Y-69282746D02*
X76591866Y-69390496D01*
X76591866Y-69390496D02*
X76537991Y-69444371D01*
X76537991Y-69444371D02*
X76430241Y-69498246D01*
X76430241Y-69498246D02*
X76376367Y-69498246D01*
X76376367Y-69498246D02*
X76187805Y-69309684D01*
X76187805Y-69309684D02*
X76295554Y-69201934D01*
X76187805Y-69794557D02*
X75622119Y-69228872D01*
X75622119Y-69228872D02*
X75864556Y-70117806D01*
X75864556Y-70117806D02*
X75298871Y-69552120D01*
X75595182Y-70387180D02*
X75029497Y-69821494D01*
X75029497Y-69821494D02*
X74894810Y-69956181D01*
X74894810Y-69956181D02*
X74840935Y-70063931D01*
X74840935Y-70063931D02*
X74840935Y-70171680D01*
X74840935Y-70171680D02*
X74867872Y-70252493D01*
X74867872Y-70252493D02*
X74948685Y-70387180D01*
X74948685Y-70387180D02*
X75029497Y-70467992D01*
X75029497Y-70467992D02*
X75164184Y-70548804D01*
X75164184Y-70548804D02*
X75244996Y-70575741D01*
X75244996Y-70575741D02*
X75352746Y-70575741D01*
X75352746Y-70575741D02*
X75460495Y-70521867D01*
X75460495Y-70521867D02*
X75595182Y-70387180D01*
X68944200Y-60790475D02*
X68982295Y-60904761D01*
X68982295Y-60904761D02*
X68982295Y-61095237D01*
X68982295Y-61095237D02*
X68944200Y-61171428D01*
X68944200Y-61171428D02*
X68906104Y-61209523D01*
X68906104Y-61209523D02*
X68829914Y-61247618D01*
X68829914Y-61247618D02*
X68753723Y-61247618D01*
X68753723Y-61247618D02*
X68677533Y-61209523D01*
X68677533Y-61209523D02*
X68639438Y-61171428D01*
X68639438Y-61171428D02*
X68601342Y-61095237D01*
X68601342Y-61095237D02*
X68563247Y-60942856D01*
X68563247Y-60942856D02*
X68525152Y-60866666D01*
X68525152Y-60866666D02*
X68487057Y-60828571D01*
X68487057Y-60828571D02*
X68410866Y-60790475D01*
X68410866Y-60790475D02*
X68334676Y-60790475D01*
X68334676Y-60790475D02*
X68258485Y-60828571D01*
X68258485Y-60828571D02*
X68220390Y-60866666D01*
X68220390Y-60866666D02*
X68182295Y-60942856D01*
X68182295Y-60942856D02*
X68182295Y-61133333D01*
X68182295Y-61133333D02*
X68220390Y-61247618D01*
X68182295Y-61514285D02*
X68982295Y-61704761D01*
X68982295Y-61704761D02*
X68410866Y-61857142D01*
X68410866Y-61857142D02*
X68982295Y-62009523D01*
X68982295Y-62009523D02*
X68182295Y-62200000D01*
X68906104Y-62961905D02*
X68944200Y-62923809D01*
X68944200Y-62923809D02*
X68982295Y-62809524D01*
X68982295Y-62809524D02*
X68982295Y-62733333D01*
X68982295Y-62733333D02*
X68944200Y-62619047D01*
X68944200Y-62619047D02*
X68868009Y-62542857D01*
X68868009Y-62542857D02*
X68791819Y-62504762D01*
X68791819Y-62504762D02*
X68639438Y-62466666D01*
X68639438Y-62466666D02*
X68525152Y-62466666D01*
X68525152Y-62466666D02*
X68372771Y-62504762D01*
X68372771Y-62504762D02*
X68296580Y-62542857D01*
X68296580Y-62542857D02*
X68220390Y-62619047D01*
X68220390Y-62619047D02*
X68182295Y-62733333D01*
X68182295Y-62733333D02*
X68182295Y-62809524D01*
X68182295Y-62809524D02*
X68220390Y-62923809D01*
X68220390Y-62923809D02*
X68258485Y-62961905D01*
X68982295Y-63685714D02*
X68982295Y-63304762D01*
X68982295Y-63304762D02*
X68182295Y-63304762D01*
X68982295Y-63952381D02*
X68182295Y-63952381D01*
X68982295Y-64409524D02*
X68525152Y-64066666D01*
X68182295Y-64409524D02*
X68639438Y-63952381D01*
X71080868Y-68997998D02*
X71107805Y-68917185D01*
X71107805Y-68917185D02*
X71188618Y-68836373D01*
X71188618Y-68836373D02*
X71296367Y-68782498D01*
X71296367Y-68782498D02*
X71404117Y-68782498D01*
X71404117Y-68782498D02*
X71484929Y-68809436D01*
X71484929Y-68809436D02*
X71619616Y-68890248D01*
X71619616Y-68890248D02*
X71700428Y-68971060D01*
X71700428Y-68971060D02*
X71781241Y-69105747D01*
X71781241Y-69105747D02*
X71808178Y-69186560D01*
X71808178Y-69186560D02*
X71808178Y-69294309D01*
X71808178Y-69294309D02*
X71754303Y-69402059D01*
X71754303Y-69402059D02*
X71700428Y-69455934D01*
X71700428Y-69455934D02*
X71592679Y-69509808D01*
X71592679Y-69509808D02*
X71538804Y-69509808D01*
X71538804Y-69509808D02*
X71350242Y-69321247D01*
X71350242Y-69321247D02*
X71457992Y-69213497D01*
X71350242Y-69806120D02*
X70784557Y-69240434D01*
X70784557Y-69240434D02*
X70569057Y-69455934D01*
X70569057Y-69455934D02*
X70542120Y-69536746D01*
X70542120Y-69536746D02*
X70542120Y-69590621D01*
X70542120Y-69590621D02*
X70569057Y-69671433D01*
X70569057Y-69671433D02*
X70649870Y-69752245D01*
X70649870Y-69752245D02*
X70730682Y-69779182D01*
X70730682Y-69779182D02*
X70784557Y-69779182D01*
X70784557Y-69779182D02*
X70865369Y-69752245D01*
X70865369Y-69752245D02*
X71080868Y-69536746D01*
X70488245Y-70668117D02*
X70811494Y-70344868D01*
X70649870Y-70506492D02*
X70084184Y-69940807D01*
X70084184Y-69940807D02*
X70218871Y-69967744D01*
X70218871Y-69967744D02*
X70326621Y-69967744D01*
X70326621Y-69967744D02*
X70407433Y-69940807D01*
X69410749Y-70614242D02*
X69680123Y-70344868D01*
X69680123Y-70344868D02*
X69976434Y-70587305D01*
X69976434Y-70587305D02*
X69922560Y-70587305D01*
X69922560Y-70587305D02*
X69841747Y-70614242D01*
X69841747Y-70614242D02*
X69707060Y-70748929D01*
X69707060Y-70748929D02*
X69680123Y-70829741D01*
X69680123Y-70829741D02*
X69680123Y-70883616D01*
X69680123Y-70883616D02*
X69707060Y-70964428D01*
X69707060Y-70964428D02*
X69841747Y-71099115D01*
X69841747Y-71099115D02*
X69922560Y-71126053D01*
X69922560Y-71126053D02*
X69976434Y-71126053D01*
X69976434Y-71126053D02*
X70057247Y-71099115D01*
X70057247Y-71099115D02*
X70191934Y-70964428D01*
X70191934Y-70964428D02*
X70218871Y-70883616D01*
X70218871Y-70883616D02*
X70218871Y-70829741D01*
X88618431Y-43386435D02*
X88645368Y-43305623D01*
X88645368Y-43305623D02*
X88726180Y-43224811D01*
X88726180Y-43224811D02*
X88833930Y-43170936D01*
X88833930Y-43170936D02*
X88941680Y-43170936D01*
X88941680Y-43170936D02*
X89022492Y-43197873D01*
X89022492Y-43197873D02*
X89157179Y-43278685D01*
X89157179Y-43278685D02*
X89237991Y-43359498D01*
X89237991Y-43359498D02*
X89318803Y-43494185D01*
X89318803Y-43494185D02*
X89345741Y-43574997D01*
X89345741Y-43574997D02*
X89345741Y-43682746D01*
X89345741Y-43682746D02*
X89291866Y-43790496D01*
X89291866Y-43790496D02*
X89237991Y-43844371D01*
X89237991Y-43844371D02*
X89130241Y-43898246D01*
X89130241Y-43898246D02*
X89076367Y-43898246D01*
X89076367Y-43898246D02*
X88887805Y-43709684D01*
X88887805Y-43709684D02*
X88995554Y-43601934D01*
X88887805Y-44194557D02*
X88322119Y-43628872D01*
X88322119Y-43628872D02*
X88564556Y-44517806D01*
X88564556Y-44517806D02*
X87998871Y-43952120D01*
X88295182Y-44787180D02*
X87729497Y-44221494D01*
X87729497Y-44221494D02*
X87594810Y-44356181D01*
X87594810Y-44356181D02*
X87540935Y-44463931D01*
X87540935Y-44463931D02*
X87540935Y-44571680D01*
X87540935Y-44571680D02*
X87567872Y-44652493D01*
X87567872Y-44652493D02*
X87648685Y-44787180D01*
X87648685Y-44787180D02*
X87729497Y-44867992D01*
X87729497Y-44867992D02*
X87864184Y-44948804D01*
X87864184Y-44948804D02*
X87944996Y-44975741D01*
X87944996Y-44975741D02*
X88052746Y-44975741D01*
X88052746Y-44975741D02*
X88160495Y-44921867D01*
X88160495Y-44921867D02*
X88295182Y-44787180D01*
X83780868Y-69143998D02*
X83807805Y-69063185D01*
X83807805Y-69063185D02*
X83888618Y-68982373D01*
X83888618Y-68982373D02*
X83996367Y-68928498D01*
X83996367Y-68928498D02*
X84104117Y-68928498D01*
X84104117Y-68928498D02*
X84184929Y-68955436D01*
X84184929Y-68955436D02*
X84319616Y-69036248D01*
X84319616Y-69036248D02*
X84400428Y-69117060D01*
X84400428Y-69117060D02*
X84481241Y-69251747D01*
X84481241Y-69251747D02*
X84508178Y-69332560D01*
X84508178Y-69332560D02*
X84508178Y-69440309D01*
X84508178Y-69440309D02*
X84454303Y-69548059D01*
X84454303Y-69548059D02*
X84400428Y-69601934D01*
X84400428Y-69601934D02*
X84292679Y-69655808D01*
X84292679Y-69655808D02*
X84238804Y-69655808D01*
X84238804Y-69655808D02*
X84050242Y-69467247D01*
X84050242Y-69467247D02*
X84157992Y-69359497D01*
X84050242Y-69952120D02*
X83484557Y-69386434D01*
X83484557Y-69386434D02*
X83269057Y-69601934D01*
X83269057Y-69601934D02*
X83242120Y-69682746D01*
X83242120Y-69682746D02*
X83242120Y-69736621D01*
X83242120Y-69736621D02*
X83269057Y-69817433D01*
X83269057Y-69817433D02*
X83349870Y-69898245D01*
X83349870Y-69898245D02*
X83430682Y-69925182D01*
X83430682Y-69925182D02*
X83484557Y-69925182D01*
X83484557Y-69925182D02*
X83565369Y-69898245D01*
X83565369Y-69898245D02*
X83780868Y-69682746D01*
X83188245Y-70814117D02*
X83511494Y-70490868D01*
X83349870Y-70652492D02*
X82784184Y-70086807D01*
X82784184Y-70086807D02*
X82918871Y-70113744D01*
X82918871Y-70113744D02*
X83026621Y-70113744D01*
X83026621Y-70113744D02*
X83107433Y-70086807D01*
X82649497Y-71352865D02*
X82972746Y-71029616D01*
X82811121Y-71191240D02*
X82245436Y-70625555D01*
X82245436Y-70625555D02*
X82380123Y-70652492D01*
X82380123Y-70652492D02*
X82487873Y-70652492D01*
X82487873Y-70652492D02*
X82568685Y-70625555D01*
X73620868Y-69043998D02*
X73647805Y-68963185D01*
X73647805Y-68963185D02*
X73728618Y-68882373D01*
X73728618Y-68882373D02*
X73836367Y-68828498D01*
X73836367Y-68828498D02*
X73944117Y-68828498D01*
X73944117Y-68828498D02*
X74024929Y-68855436D01*
X74024929Y-68855436D02*
X74159616Y-68936248D01*
X74159616Y-68936248D02*
X74240428Y-69017060D01*
X74240428Y-69017060D02*
X74321241Y-69151747D01*
X74321241Y-69151747D02*
X74348178Y-69232560D01*
X74348178Y-69232560D02*
X74348178Y-69340309D01*
X74348178Y-69340309D02*
X74294303Y-69448059D01*
X74294303Y-69448059D02*
X74240428Y-69501934D01*
X74240428Y-69501934D02*
X74132679Y-69555808D01*
X74132679Y-69555808D02*
X74078804Y-69555808D01*
X74078804Y-69555808D02*
X73890242Y-69367247D01*
X73890242Y-69367247D02*
X73997992Y-69259497D01*
X73890242Y-69852120D02*
X73324557Y-69286434D01*
X73324557Y-69286434D02*
X73109057Y-69501934D01*
X73109057Y-69501934D02*
X73082120Y-69582746D01*
X73082120Y-69582746D02*
X73082120Y-69636621D01*
X73082120Y-69636621D02*
X73109057Y-69717433D01*
X73109057Y-69717433D02*
X73189870Y-69798245D01*
X73189870Y-69798245D02*
X73270682Y-69825182D01*
X73270682Y-69825182D02*
X73324557Y-69825182D01*
X73324557Y-69825182D02*
X73405369Y-69798245D01*
X73405369Y-69798245D02*
X73620868Y-69582746D01*
X73028245Y-70714117D02*
X73351494Y-70390868D01*
X73189870Y-70552492D02*
X72624184Y-69986807D01*
X72624184Y-69986807D02*
X72758871Y-70013744D01*
X72758871Y-70013744D02*
X72866621Y-70013744D01*
X72866621Y-70013744D02*
X72947433Y-69986807D01*
X72166248Y-70821866D02*
X72543372Y-71198990D01*
X72085436Y-70471680D02*
X72624184Y-70741054D01*
X72624184Y-70741054D02*
X72273998Y-71091240D01*
X119747585Y-42253406D02*
X120124709Y-43007653D01*
X120124709Y-43007653D02*
X119370462Y-42630529D01*
X119262712Y-43277027D02*
X119208838Y-43384776D01*
X119208838Y-43384776D02*
X119208838Y-43438651D01*
X119208838Y-43438651D02*
X119235775Y-43519463D01*
X119235775Y-43519463D02*
X119316587Y-43600276D01*
X119316587Y-43600276D02*
X119397399Y-43627213D01*
X119397399Y-43627213D02*
X119451274Y-43627213D01*
X119451274Y-43627213D02*
X119532086Y-43600276D01*
X119532086Y-43600276D02*
X119747586Y-43384776D01*
X119747586Y-43384776D02*
X119181900Y-42819091D01*
X119181900Y-42819091D02*
X118993338Y-43007653D01*
X118993338Y-43007653D02*
X118966401Y-43088465D01*
X118966401Y-43088465D02*
X118966401Y-43142340D01*
X118966401Y-43142340D02*
X118993338Y-43223152D01*
X118993338Y-43223152D02*
X119047213Y-43277027D01*
X119047213Y-43277027D02*
X119128025Y-43303964D01*
X119128025Y-43303964D02*
X119181900Y-43303964D01*
X119181900Y-43303964D02*
X119262712Y-43277027D01*
X119262712Y-43277027D02*
X119451274Y-43088465D01*
X118616215Y-43384776D02*
X119074151Y-43842712D01*
X119074151Y-43842712D02*
X119101088Y-43923524D01*
X119101088Y-43923524D02*
X119101088Y-43977399D01*
X119101088Y-43977399D02*
X119074151Y-44058211D01*
X119074151Y-44058211D02*
X118966401Y-44165961D01*
X118966401Y-44165961D02*
X118885589Y-44192898D01*
X118885589Y-44192898D02*
X118831714Y-44192898D01*
X118831714Y-44192898D02*
X118750902Y-44165961D01*
X118750902Y-44165961D02*
X118292966Y-43708025D01*
X118589277Y-44489210D02*
X118535403Y-44596959D01*
X118535403Y-44596959D02*
X118400716Y-44731646D01*
X118400716Y-44731646D02*
X118319903Y-44758584D01*
X118319903Y-44758584D02*
X118266029Y-44758584D01*
X118266029Y-44758584D02*
X118185216Y-44731646D01*
X118185216Y-44731646D02*
X118131342Y-44677771D01*
X118131342Y-44677771D02*
X118104404Y-44596959D01*
X118104404Y-44596959D02*
X118104404Y-44543084D01*
X118104404Y-44543084D02*
X118131342Y-44462272D01*
X118131342Y-44462272D02*
X118212154Y-44327585D01*
X118212154Y-44327585D02*
X118239091Y-44246773D01*
X118239091Y-44246773D02*
X118239091Y-44192898D01*
X118239091Y-44192898D02*
X118212154Y-44112086D01*
X118212154Y-44112086D02*
X118158279Y-44058211D01*
X118158279Y-44058211D02*
X118077467Y-44031274D01*
X118077467Y-44031274D02*
X118023592Y-44031274D01*
X118023592Y-44031274D02*
X117942780Y-44058211D01*
X117942780Y-44058211D02*
X117808093Y-44192898D01*
X117808093Y-44192898D02*
X117754218Y-44300648D01*
X94223710Y-43738651D02*
X94142898Y-43280716D01*
X94546959Y-43415403D02*
X93981274Y-42849717D01*
X93981274Y-42849717D02*
X93765775Y-43065216D01*
X93765775Y-43065216D02*
X93738837Y-43146029D01*
X93738837Y-43146029D02*
X93738837Y-43199903D01*
X93738837Y-43199903D02*
X93765775Y-43280716D01*
X93765775Y-43280716D02*
X93846587Y-43361528D01*
X93846587Y-43361528D02*
X93927399Y-43388465D01*
X93927399Y-43388465D02*
X93981274Y-43388465D01*
X93981274Y-43388465D02*
X94062086Y-43361528D01*
X94062086Y-43361528D02*
X94277585Y-43146029D01*
X93415588Y-43415403D02*
X93873524Y-43873338D01*
X93873524Y-43873338D02*
X93900462Y-43954151D01*
X93900462Y-43954151D02*
X93900462Y-44008025D01*
X93900462Y-44008025D02*
X93873524Y-44088838D01*
X93873524Y-44088838D02*
X93765775Y-44196587D01*
X93765775Y-44196587D02*
X93684962Y-44223525D01*
X93684962Y-44223525D02*
X93631088Y-44223525D01*
X93631088Y-44223525D02*
X93550275Y-44196587D01*
X93550275Y-44196587D02*
X93092340Y-43738651D01*
X93388651Y-44573711D02*
X92822966Y-44008025D01*
X92822966Y-44008025D02*
X93065402Y-44896959D01*
X93065402Y-44896959D02*
X92499717Y-44331274D01*
X68944200Y-49604761D02*
X68982295Y-49719047D01*
X68982295Y-49719047D02*
X68982295Y-49909523D01*
X68982295Y-49909523D02*
X68944200Y-49985714D01*
X68944200Y-49985714D02*
X68906104Y-50023809D01*
X68906104Y-50023809D02*
X68829914Y-50061904D01*
X68829914Y-50061904D02*
X68753723Y-50061904D01*
X68753723Y-50061904D02*
X68677533Y-50023809D01*
X68677533Y-50023809D02*
X68639438Y-49985714D01*
X68639438Y-49985714D02*
X68601342Y-49909523D01*
X68601342Y-49909523D02*
X68563247Y-49757142D01*
X68563247Y-49757142D02*
X68525152Y-49680952D01*
X68525152Y-49680952D02*
X68487057Y-49642857D01*
X68487057Y-49642857D02*
X68410866Y-49604761D01*
X68410866Y-49604761D02*
X68334676Y-49604761D01*
X68334676Y-49604761D02*
X68258485Y-49642857D01*
X68258485Y-49642857D02*
X68220390Y-49680952D01*
X68220390Y-49680952D02*
X68182295Y-49757142D01*
X68182295Y-49757142D02*
X68182295Y-49947619D01*
X68182295Y-49947619D02*
X68220390Y-50061904D01*
X68182295Y-50328571D02*
X68982295Y-50519047D01*
X68982295Y-50519047D02*
X68410866Y-50671428D01*
X68410866Y-50671428D02*
X68982295Y-50823809D01*
X68982295Y-50823809D02*
X68182295Y-51014286D01*
X68982295Y-51319048D02*
X68182295Y-51319048D01*
X68182295Y-51319048D02*
X68182295Y-51509524D01*
X68182295Y-51509524D02*
X68220390Y-51623810D01*
X68220390Y-51623810D02*
X68296580Y-51700000D01*
X68296580Y-51700000D02*
X68372771Y-51738095D01*
X68372771Y-51738095D02*
X68525152Y-51776191D01*
X68525152Y-51776191D02*
X68639438Y-51776191D01*
X68639438Y-51776191D02*
X68791819Y-51738095D01*
X68791819Y-51738095D02*
X68868009Y-51700000D01*
X68868009Y-51700000D02*
X68944200Y-51623810D01*
X68944200Y-51623810D02*
X68982295Y-51509524D01*
X68982295Y-51509524D02*
X68982295Y-51319048D01*
X68982295Y-52119048D02*
X68182295Y-52119048D01*
X68182295Y-52652381D02*
X68182295Y-52804762D01*
X68182295Y-52804762D02*
X68220390Y-52880952D01*
X68220390Y-52880952D02*
X68296580Y-52957143D01*
X68296580Y-52957143D02*
X68448961Y-52995238D01*
X68448961Y-52995238D02*
X68715628Y-52995238D01*
X68715628Y-52995238D02*
X68868009Y-52957143D01*
X68868009Y-52957143D02*
X68944200Y-52880952D01*
X68944200Y-52880952D02*
X68982295Y-52804762D01*
X68982295Y-52804762D02*
X68982295Y-52652381D01*
X68982295Y-52652381D02*
X68944200Y-52576190D01*
X68944200Y-52576190D02*
X68868009Y-52500000D01*
X68868009Y-52500000D02*
X68715628Y-52461904D01*
X68715628Y-52461904D02*
X68448961Y-52461904D01*
X68448961Y-52461904D02*
X68296580Y-52500000D01*
X68296580Y-52500000D02*
X68220390Y-52576190D01*
X68220390Y-52576190D02*
X68182295Y-52652381D01*
X91400868Y-42889998D02*
X91427805Y-42809185D01*
X91427805Y-42809185D02*
X91508618Y-42728373D01*
X91508618Y-42728373D02*
X91616367Y-42674498D01*
X91616367Y-42674498D02*
X91724117Y-42674498D01*
X91724117Y-42674498D02*
X91804929Y-42701436D01*
X91804929Y-42701436D02*
X91939616Y-42782248D01*
X91939616Y-42782248D02*
X92020428Y-42863060D01*
X92020428Y-42863060D02*
X92101241Y-42997747D01*
X92101241Y-42997747D02*
X92128178Y-43078560D01*
X92128178Y-43078560D02*
X92128178Y-43186309D01*
X92128178Y-43186309D02*
X92074303Y-43294059D01*
X92074303Y-43294059D02*
X92020428Y-43347934D01*
X92020428Y-43347934D02*
X91912679Y-43401808D01*
X91912679Y-43401808D02*
X91858804Y-43401808D01*
X91858804Y-43401808D02*
X91670242Y-43213247D01*
X91670242Y-43213247D02*
X91777992Y-43105497D01*
X91670242Y-43698120D02*
X91104557Y-43132434D01*
X91104557Y-43132434D02*
X90889057Y-43347934D01*
X90889057Y-43347934D02*
X90862120Y-43428746D01*
X90862120Y-43428746D02*
X90862120Y-43482621D01*
X90862120Y-43482621D02*
X90889057Y-43563433D01*
X90889057Y-43563433D02*
X90969870Y-43644245D01*
X90969870Y-43644245D02*
X91050682Y-43671182D01*
X91050682Y-43671182D02*
X91104557Y-43671182D01*
X91104557Y-43671182D02*
X91185369Y-43644245D01*
X91185369Y-43644245D02*
X91400868Y-43428746D01*
X90619683Y-43725057D02*
X90565809Y-43725057D01*
X90565809Y-43725057D02*
X90484996Y-43751995D01*
X90484996Y-43751995D02*
X90350309Y-43886682D01*
X90350309Y-43886682D02*
X90323372Y-43967494D01*
X90323372Y-43967494D02*
X90323372Y-44021369D01*
X90323372Y-44021369D02*
X90350309Y-44102181D01*
X90350309Y-44102181D02*
X90404184Y-44156056D01*
X90404184Y-44156056D02*
X90511934Y-44209930D01*
X90511934Y-44209930D02*
X91158431Y-44209930D01*
X91158431Y-44209930D02*
X90808245Y-44560117D01*
X90080935Y-44263805D02*
X90027060Y-44263805D01*
X90027060Y-44263805D02*
X89946248Y-44290743D01*
X89946248Y-44290743D02*
X89811561Y-44425430D01*
X89811561Y-44425430D02*
X89784624Y-44506242D01*
X89784624Y-44506242D02*
X89784624Y-44560117D01*
X89784624Y-44560117D02*
X89811561Y-44640929D01*
X89811561Y-44640929D02*
X89865436Y-44694804D01*
X89865436Y-44694804D02*
X89973186Y-44748679D01*
X89973186Y-44748679D02*
X90619683Y-44748679D01*
X90619683Y-44748679D02*
X90269497Y-45098865D01*
X78700868Y-68997998D02*
X78727805Y-68917185D01*
X78727805Y-68917185D02*
X78808618Y-68836373D01*
X78808618Y-68836373D02*
X78916367Y-68782498D01*
X78916367Y-68782498D02*
X79024117Y-68782498D01*
X79024117Y-68782498D02*
X79104929Y-68809436D01*
X79104929Y-68809436D02*
X79239616Y-68890248D01*
X79239616Y-68890248D02*
X79320428Y-68971060D01*
X79320428Y-68971060D02*
X79401241Y-69105747D01*
X79401241Y-69105747D02*
X79428178Y-69186560D01*
X79428178Y-69186560D02*
X79428178Y-69294309D01*
X79428178Y-69294309D02*
X79374303Y-69402059D01*
X79374303Y-69402059D02*
X79320428Y-69455934D01*
X79320428Y-69455934D02*
X79212679Y-69509808D01*
X79212679Y-69509808D02*
X79158804Y-69509808D01*
X79158804Y-69509808D02*
X78970242Y-69321247D01*
X78970242Y-69321247D02*
X79077992Y-69213497D01*
X78970242Y-69806120D02*
X78404557Y-69240434D01*
X78404557Y-69240434D02*
X78189057Y-69455934D01*
X78189057Y-69455934D02*
X78162120Y-69536746D01*
X78162120Y-69536746D02*
X78162120Y-69590621D01*
X78162120Y-69590621D02*
X78189057Y-69671433D01*
X78189057Y-69671433D02*
X78269870Y-69752245D01*
X78269870Y-69752245D02*
X78350682Y-69779182D01*
X78350682Y-69779182D02*
X78404557Y-69779182D01*
X78404557Y-69779182D02*
X78485369Y-69752245D01*
X78485369Y-69752245D02*
X78700868Y-69536746D01*
X78108245Y-70668117D02*
X78431494Y-70344868D01*
X78269870Y-70506492D02*
X77704184Y-69940807D01*
X77704184Y-69940807D02*
X77838871Y-69967744D01*
X77838871Y-69967744D02*
X77946621Y-69967744D01*
X77946621Y-69967744D02*
X78027433Y-69940807D01*
X77353998Y-70290993D02*
X77003812Y-70641179D01*
X77003812Y-70641179D02*
X77407873Y-70668117D01*
X77407873Y-70668117D02*
X77327060Y-70748929D01*
X77327060Y-70748929D02*
X77300123Y-70829741D01*
X77300123Y-70829741D02*
X77300123Y-70883616D01*
X77300123Y-70883616D02*
X77327060Y-70964428D01*
X77327060Y-70964428D02*
X77461747Y-71099115D01*
X77461747Y-71099115D02*
X77542560Y-71126053D01*
X77542560Y-71126053D02*
X77596434Y-71126053D01*
X77596434Y-71126053D02*
X77677247Y-71099115D01*
X77677247Y-71099115D02*
X77838871Y-70937491D01*
X77838871Y-70937491D02*
X77865808Y-70856679D01*
X77865808Y-70856679D02*
X77865808Y-70802804D01*
X96480868Y-42889998D02*
X96507805Y-42809185D01*
X96507805Y-42809185D02*
X96588618Y-42728373D01*
X96588618Y-42728373D02*
X96696367Y-42674498D01*
X96696367Y-42674498D02*
X96804117Y-42674498D01*
X96804117Y-42674498D02*
X96884929Y-42701436D01*
X96884929Y-42701436D02*
X97019616Y-42782248D01*
X97019616Y-42782248D02*
X97100428Y-42863060D01*
X97100428Y-42863060D02*
X97181241Y-42997747D01*
X97181241Y-42997747D02*
X97208178Y-43078560D01*
X97208178Y-43078560D02*
X97208178Y-43186309D01*
X97208178Y-43186309D02*
X97154303Y-43294059D01*
X97154303Y-43294059D02*
X97100428Y-43347934D01*
X97100428Y-43347934D02*
X96992679Y-43401808D01*
X96992679Y-43401808D02*
X96938804Y-43401808D01*
X96938804Y-43401808D02*
X96750242Y-43213247D01*
X96750242Y-43213247D02*
X96857992Y-43105497D01*
X96750242Y-43698120D02*
X96184557Y-43132434D01*
X96184557Y-43132434D02*
X95969057Y-43347934D01*
X95969057Y-43347934D02*
X95942120Y-43428746D01*
X95942120Y-43428746D02*
X95942120Y-43482621D01*
X95942120Y-43482621D02*
X95969057Y-43563433D01*
X95969057Y-43563433D02*
X96049870Y-43644245D01*
X96049870Y-43644245D02*
X96130682Y-43671182D01*
X96130682Y-43671182D02*
X96184557Y-43671182D01*
X96184557Y-43671182D02*
X96265369Y-43644245D01*
X96265369Y-43644245D02*
X96480868Y-43428746D01*
X95699683Y-43725057D02*
X95645809Y-43725057D01*
X95645809Y-43725057D02*
X95564996Y-43751995D01*
X95564996Y-43751995D02*
X95430309Y-43886682D01*
X95430309Y-43886682D02*
X95403372Y-43967494D01*
X95403372Y-43967494D02*
X95403372Y-44021369D01*
X95403372Y-44021369D02*
X95430309Y-44102181D01*
X95430309Y-44102181D02*
X95484184Y-44156056D01*
X95484184Y-44156056D02*
X95591934Y-44209930D01*
X95591934Y-44209930D02*
X96238431Y-44209930D01*
X96238431Y-44209930D02*
X95888245Y-44560117D01*
X94837686Y-44479305D02*
X94945436Y-44371555D01*
X94945436Y-44371555D02*
X95026248Y-44344618D01*
X95026248Y-44344618D02*
X95080123Y-44344618D01*
X95080123Y-44344618D02*
X95214810Y-44371555D01*
X95214810Y-44371555D02*
X95349497Y-44452367D01*
X95349497Y-44452367D02*
X95564996Y-44667866D01*
X95564996Y-44667866D02*
X95591934Y-44748679D01*
X95591934Y-44748679D02*
X95591934Y-44802553D01*
X95591934Y-44802553D02*
X95564996Y-44883366D01*
X95564996Y-44883366D02*
X95457247Y-44991115D01*
X95457247Y-44991115D02*
X95376434Y-45018053D01*
X95376434Y-45018053D02*
X95322560Y-45018053D01*
X95322560Y-45018053D02*
X95241747Y-44991115D01*
X95241747Y-44991115D02*
X95107060Y-44856428D01*
X95107060Y-44856428D02*
X95080123Y-44775616D01*
X95080123Y-44775616D02*
X95080123Y-44721741D01*
X95080123Y-44721741D02*
X95107060Y-44640929D01*
X95107060Y-44640929D02*
X95214810Y-44533179D01*
X95214810Y-44533179D02*
X95295622Y-44506242D01*
X95295622Y-44506242D02*
X95349497Y-44506242D01*
X95349497Y-44506242D02*
X95430309Y-44533179D01*
X71080868Y-42889998D02*
X71107805Y-42809185D01*
X71107805Y-42809185D02*
X71188618Y-42728373D01*
X71188618Y-42728373D02*
X71296367Y-42674498D01*
X71296367Y-42674498D02*
X71404117Y-42674498D01*
X71404117Y-42674498D02*
X71484929Y-42701436D01*
X71484929Y-42701436D02*
X71619616Y-42782248D01*
X71619616Y-42782248D02*
X71700428Y-42863060D01*
X71700428Y-42863060D02*
X71781241Y-42997747D01*
X71781241Y-42997747D02*
X71808178Y-43078560D01*
X71808178Y-43078560D02*
X71808178Y-43186309D01*
X71808178Y-43186309D02*
X71754303Y-43294059D01*
X71754303Y-43294059D02*
X71700428Y-43347934D01*
X71700428Y-43347934D02*
X71592679Y-43401808D01*
X71592679Y-43401808D02*
X71538804Y-43401808D01*
X71538804Y-43401808D02*
X71350242Y-43213247D01*
X71350242Y-43213247D02*
X71457992Y-43105497D01*
X71350242Y-43698120D02*
X70784557Y-43132434D01*
X70784557Y-43132434D02*
X70569057Y-43347934D01*
X70569057Y-43347934D02*
X70542120Y-43428746D01*
X70542120Y-43428746D02*
X70542120Y-43482621D01*
X70542120Y-43482621D02*
X70569057Y-43563433D01*
X70569057Y-43563433D02*
X70649870Y-43644245D01*
X70649870Y-43644245D02*
X70730682Y-43671182D01*
X70730682Y-43671182D02*
X70784557Y-43671182D01*
X70784557Y-43671182D02*
X70865369Y-43644245D01*
X70865369Y-43644245D02*
X71080868Y-43428746D01*
X70488245Y-44560117D02*
X70811494Y-44236868D01*
X70649870Y-44398492D02*
X70084184Y-43832807D01*
X70084184Y-43832807D02*
X70218871Y-43859744D01*
X70218871Y-43859744D02*
X70326621Y-43859744D01*
X70326621Y-43859744D02*
X70407433Y-43832807D01*
X69437686Y-44479305D02*
X69545436Y-44371555D01*
X69545436Y-44371555D02*
X69626248Y-44344618D01*
X69626248Y-44344618D02*
X69680123Y-44344618D01*
X69680123Y-44344618D02*
X69814810Y-44371555D01*
X69814810Y-44371555D02*
X69949497Y-44452367D01*
X69949497Y-44452367D02*
X70164996Y-44667866D01*
X70164996Y-44667866D02*
X70191934Y-44748679D01*
X70191934Y-44748679D02*
X70191934Y-44802553D01*
X70191934Y-44802553D02*
X70164996Y-44883366D01*
X70164996Y-44883366D02*
X70057247Y-44991115D01*
X70057247Y-44991115D02*
X69976434Y-45018053D01*
X69976434Y-45018053D02*
X69922560Y-45018053D01*
X69922560Y-45018053D02*
X69841747Y-44991115D01*
X69841747Y-44991115D02*
X69707060Y-44856428D01*
X69707060Y-44856428D02*
X69680123Y-44775616D01*
X69680123Y-44775616D02*
X69680123Y-44721741D01*
X69680123Y-44721741D02*
X69707060Y-44640929D01*
X69707060Y-44640929D02*
X69814810Y-44533179D01*
X69814810Y-44533179D02*
X69895622Y-44506242D01*
X69895622Y-44506242D02*
X69949497Y-44506242D01*
X69949497Y-44506242D02*
X70030309Y-44533179D01*
X91131494Y-69013372D02*
X91158431Y-68932560D01*
X91158431Y-68932560D02*
X91239243Y-68851748D01*
X91239243Y-68851748D02*
X91346993Y-68797873D01*
X91346993Y-68797873D02*
X91454742Y-68797873D01*
X91454742Y-68797873D02*
X91535555Y-68824810D01*
X91535555Y-68824810D02*
X91670242Y-68905623D01*
X91670242Y-68905623D02*
X91751054Y-68986435D01*
X91751054Y-68986435D02*
X91831866Y-69121122D01*
X91831866Y-69121122D02*
X91858803Y-69201934D01*
X91858803Y-69201934D02*
X91858803Y-69309684D01*
X91858803Y-69309684D02*
X91804929Y-69417433D01*
X91804929Y-69417433D02*
X91751054Y-69471308D01*
X91751054Y-69471308D02*
X91643304Y-69525183D01*
X91643304Y-69525183D02*
X91589429Y-69525183D01*
X91589429Y-69525183D02*
X91400868Y-69336621D01*
X91400868Y-69336621D02*
X91508617Y-69228871D01*
X91400868Y-69821494D02*
X90835182Y-69255809D01*
X90835182Y-69255809D02*
X90619683Y-69471308D01*
X90619683Y-69471308D02*
X90592746Y-69552120D01*
X90592746Y-69552120D02*
X90592746Y-69605995D01*
X90592746Y-69605995D02*
X90619683Y-69686807D01*
X90619683Y-69686807D02*
X90700495Y-69767619D01*
X90700495Y-69767619D02*
X90781307Y-69794557D01*
X90781307Y-69794557D02*
X90835182Y-69794557D01*
X90835182Y-69794557D02*
X90915994Y-69767619D01*
X90915994Y-69767619D02*
X91131494Y-69552120D01*
X90808245Y-70414117D02*
X90700495Y-70521867D01*
X90700495Y-70521867D02*
X90619683Y-70548804D01*
X90619683Y-70548804D02*
X90565808Y-70548804D01*
X90565808Y-70548804D02*
X90431121Y-70521867D01*
X90431121Y-70521867D02*
X90296434Y-70441054D01*
X90296434Y-70441054D02*
X90080935Y-70225555D01*
X90080935Y-70225555D02*
X90053998Y-70144743D01*
X90053998Y-70144743D02*
X90053998Y-70090868D01*
X90053998Y-70090868D02*
X90080935Y-70010056D01*
X90080935Y-70010056D02*
X90188685Y-69902306D01*
X90188685Y-69902306D02*
X90269497Y-69875369D01*
X90269497Y-69875369D02*
X90323372Y-69875369D01*
X90323372Y-69875369D02*
X90404184Y-69902306D01*
X90404184Y-69902306D02*
X90538871Y-70036993D01*
X90538871Y-70036993D02*
X90565808Y-70117806D01*
X90565808Y-70117806D02*
X90565808Y-70171680D01*
X90565808Y-70171680D02*
X90538871Y-70252493D01*
X90538871Y-70252493D02*
X90431121Y-70360242D01*
X90431121Y-70360242D02*
X90350309Y-70387180D01*
X90350309Y-70387180D02*
X90296434Y-70387180D01*
X90296434Y-70387180D02*
X90215622Y-70360242D01*
X102261240Y-42943873D02*
X101991866Y-43213247D01*
X102476739Y-43051623D02*
X101722492Y-42674499D01*
X101722492Y-42674499D02*
X102099615Y-43428746D01*
X101075994Y-43374871D02*
X101102932Y-43294059D01*
X101102932Y-43294059D02*
X101183744Y-43213247D01*
X101183744Y-43213247D02*
X101291494Y-43159372D01*
X101291494Y-43159372D02*
X101399243Y-43159372D01*
X101399243Y-43159372D02*
X101480055Y-43186310D01*
X101480055Y-43186310D02*
X101614742Y-43267122D01*
X101614742Y-43267122D02*
X101695555Y-43347934D01*
X101695555Y-43347934D02*
X101776367Y-43482621D01*
X101776367Y-43482621D02*
X101803304Y-43563433D01*
X101803304Y-43563433D02*
X101803304Y-43671183D01*
X101803304Y-43671183D02*
X101749429Y-43778932D01*
X101749429Y-43778932D02*
X101695555Y-43832807D01*
X101695555Y-43832807D02*
X101587805Y-43886682D01*
X101587805Y-43886682D02*
X101533930Y-43886682D01*
X101533930Y-43886682D02*
X101345368Y-43698120D01*
X101345368Y-43698120D02*
X101453118Y-43590371D01*
X101345368Y-44182993D02*
X100779683Y-43617308D01*
X100779683Y-43617308D02*
X101022120Y-44506242D01*
X101022120Y-44506242D02*
X100456434Y-43940557D01*
X100752746Y-44775616D02*
X100187060Y-44209931D01*
X100187060Y-44209931D02*
X100052373Y-44344618D01*
X100052373Y-44344618D02*
X99998498Y-44452367D01*
X99998498Y-44452367D02*
X99998498Y-44560117D01*
X99998498Y-44560117D02*
X100025436Y-44640929D01*
X100025436Y-44640929D02*
X100106248Y-44775616D01*
X100106248Y-44775616D02*
X100187060Y-44856428D01*
X100187060Y-44856428D02*
X100321747Y-44937241D01*
X100321747Y-44937241D02*
X100402560Y-44964178D01*
X100402560Y-44964178D02*
X100510309Y-44964178D01*
X100510309Y-44964178D02*
X100618059Y-44910303D01*
X100618059Y-44910303D02*
X100752746Y-44775616D01*
X182086666Y-53654819D02*
X182419999Y-53178628D01*
X182658094Y-53654819D02*
X182658094Y-52654819D01*
X182658094Y-52654819D02*
X182277142Y-52654819D01*
X182277142Y-52654819D02*
X182181904Y-52702438D01*
X182181904Y-52702438D02*
X182134285Y-52750057D01*
X182134285Y-52750057D02*
X182086666Y-52845295D01*
X182086666Y-52845295D02*
X182086666Y-52988152D01*
X182086666Y-52988152D02*
X182134285Y-53083390D01*
X182134285Y-53083390D02*
X182181904Y-53131009D01*
X182181904Y-53131009D02*
X182277142Y-53178628D01*
X182277142Y-53178628D02*
X182658094Y-53178628D01*
X181705713Y-52750057D02*
X181658094Y-52702438D01*
X181658094Y-52702438D02*
X181562856Y-52654819D01*
X181562856Y-52654819D02*
X181324761Y-52654819D01*
X181324761Y-52654819D02*
X181229523Y-52702438D01*
X181229523Y-52702438D02*
X181181904Y-52750057D01*
X181181904Y-52750057D02*
X181134285Y-52845295D01*
X181134285Y-52845295D02*
X181134285Y-52940533D01*
X181134285Y-52940533D02*
X181181904Y-53083390D01*
X181181904Y-53083390D02*
X181753332Y-53654819D01*
X181753332Y-53654819D02*
X181134285Y-53654819D01*
X196753333Y-105654819D02*
X196753333Y-106369104D01*
X196753333Y-106369104D02*
X196800952Y-106511961D01*
X196800952Y-106511961D02*
X196896190Y-106607200D01*
X196896190Y-106607200D02*
X197039047Y-106654819D01*
X197039047Y-106654819D02*
X197134285Y-106654819D01*
X196324761Y-105750057D02*
X196277142Y-105702438D01*
X196277142Y-105702438D02*
X196181904Y-105654819D01*
X196181904Y-105654819D02*
X195943809Y-105654819D01*
X195943809Y-105654819D02*
X195848571Y-105702438D01*
X195848571Y-105702438D02*
X195800952Y-105750057D01*
X195800952Y-105750057D02*
X195753333Y-105845295D01*
X195753333Y-105845295D02*
X195753333Y-105940533D01*
X195753333Y-105940533D02*
X195800952Y-106083390D01*
X195800952Y-106083390D02*
X196372380Y-106654819D01*
X196372380Y-106654819D02*
X195753333Y-106654819D01*
X73653333Y-105754819D02*
X73653333Y-106469104D01*
X73653333Y-106469104D02*
X73700952Y-106611961D01*
X73700952Y-106611961D02*
X73796190Y-106707200D01*
X73796190Y-106707200D02*
X73939047Y-106754819D01*
X73939047Y-106754819D02*
X74034285Y-106754819D01*
X72653333Y-106754819D02*
X73224761Y-106754819D01*
X72939047Y-106754819D02*
X72939047Y-105754819D01*
X72939047Y-105754819D02*
X73034285Y-105897676D01*
X73034285Y-105897676D02*
X73129523Y-105992914D01*
X73129523Y-105992914D02*
X73224761Y-106040533D01*
X182086666Y-52054819D02*
X182419999Y-51578628D01*
X182658094Y-52054819D02*
X182658094Y-51054819D01*
X182658094Y-51054819D02*
X182277142Y-51054819D01*
X182277142Y-51054819D02*
X182181904Y-51102438D01*
X182181904Y-51102438D02*
X182134285Y-51150057D01*
X182134285Y-51150057D02*
X182086666Y-51245295D01*
X182086666Y-51245295D02*
X182086666Y-51388152D01*
X182086666Y-51388152D02*
X182134285Y-51483390D01*
X182134285Y-51483390D02*
X182181904Y-51531009D01*
X182181904Y-51531009D02*
X182277142Y-51578628D01*
X182277142Y-51578628D02*
X182658094Y-51578628D01*
X181134285Y-52054819D02*
X181705713Y-52054819D01*
X181419999Y-52054819D02*
X181419999Y-51054819D01*
X181419999Y-51054819D02*
X181515237Y-51197676D01*
X181515237Y-51197676D02*
X181610475Y-51292914D01*
X181610475Y-51292914D02*
X181705713Y-51340533D01*
X202410476Y-80154819D02*
X202743809Y-79678628D01*
X202981904Y-80154819D02*
X202981904Y-79154819D01*
X202981904Y-79154819D02*
X202600952Y-79154819D01*
X202600952Y-79154819D02*
X202505714Y-79202438D01*
X202505714Y-79202438D02*
X202458095Y-79250057D01*
X202458095Y-79250057D02*
X202410476Y-79345295D01*
X202410476Y-79345295D02*
X202410476Y-79488152D01*
X202410476Y-79488152D02*
X202458095Y-79583390D01*
X202458095Y-79583390D02*
X202505714Y-79631009D01*
X202505714Y-79631009D02*
X202600952Y-79678628D01*
X202600952Y-79678628D02*
X202981904Y-79678628D01*
X201981904Y-80154819D02*
X201981904Y-79154819D01*
X201981904Y-79154819D02*
X201410476Y-80154819D01*
X201410476Y-80154819D02*
X201410476Y-79154819D01*
X200981904Y-79250057D02*
X200934285Y-79202438D01*
X200934285Y-79202438D02*
X200839047Y-79154819D01*
X200839047Y-79154819D02*
X200600952Y-79154819D01*
X200600952Y-79154819D02*
X200505714Y-79202438D01*
X200505714Y-79202438D02*
X200458095Y-79250057D01*
X200458095Y-79250057D02*
X200410476Y-79345295D01*
X200410476Y-79345295D02*
X200410476Y-79440533D01*
X200410476Y-79440533D02*
X200458095Y-79583390D01*
X200458095Y-79583390D02*
X201029523Y-80154819D01*
X201029523Y-80154819D02*
X200410476Y-80154819D01*
X78381904Y-77554819D02*
X78381904Y-78364342D01*
X78381904Y-78364342D02*
X78334285Y-78459580D01*
X78334285Y-78459580D02*
X78286666Y-78507200D01*
X78286666Y-78507200D02*
X78191428Y-78554819D01*
X78191428Y-78554819D02*
X78000952Y-78554819D01*
X78000952Y-78554819D02*
X77905714Y-78507200D01*
X77905714Y-78507200D02*
X77858095Y-78459580D01*
X77858095Y-78459580D02*
X77810476Y-78364342D01*
X77810476Y-78364342D02*
X77810476Y-77554819D01*
X77381904Y-77650057D02*
X77334285Y-77602438D01*
X77334285Y-77602438D02*
X77239047Y-77554819D01*
X77239047Y-77554819D02*
X77000952Y-77554819D01*
X77000952Y-77554819D02*
X76905714Y-77602438D01*
X76905714Y-77602438D02*
X76858095Y-77650057D01*
X76858095Y-77650057D02*
X76810476Y-77745295D01*
X76810476Y-77745295D02*
X76810476Y-77840533D01*
X76810476Y-77840533D02*
X76858095Y-77983390D01*
X76858095Y-77983390D02*
X77429523Y-78554819D01*
X77429523Y-78554819D02*
X76810476Y-78554819D01*
X73710476Y-80354819D02*
X74043809Y-79878628D01*
X74281904Y-80354819D02*
X74281904Y-79354819D01*
X74281904Y-79354819D02*
X73900952Y-79354819D01*
X73900952Y-79354819D02*
X73805714Y-79402438D01*
X73805714Y-79402438D02*
X73758095Y-79450057D01*
X73758095Y-79450057D02*
X73710476Y-79545295D01*
X73710476Y-79545295D02*
X73710476Y-79688152D01*
X73710476Y-79688152D02*
X73758095Y-79783390D01*
X73758095Y-79783390D02*
X73805714Y-79831009D01*
X73805714Y-79831009D02*
X73900952Y-79878628D01*
X73900952Y-79878628D02*
X74281904Y-79878628D01*
X73281904Y-80354819D02*
X73281904Y-79354819D01*
X73281904Y-79354819D02*
X72710476Y-80354819D01*
X72710476Y-80354819D02*
X72710476Y-79354819D01*
X71710476Y-80354819D02*
X72281904Y-80354819D01*
X71996190Y-80354819D02*
X71996190Y-79354819D01*
X71996190Y-79354819D02*
X72091428Y-79497676D01*
X72091428Y-79497676D02*
X72186666Y-79592914D01*
X72186666Y-79592914D02*
X72281904Y-79640533D01*
X199553333Y-92531009D02*
X199886666Y-92531009D01*
X199886666Y-93054819D02*
X199886666Y-92054819D01*
X199886666Y-92054819D02*
X199410476Y-92054819D01*
X198553333Y-92054819D02*
X199029523Y-92054819D01*
X199029523Y-92054819D02*
X199077142Y-92531009D01*
X199077142Y-92531009D02*
X199029523Y-92483390D01*
X199029523Y-92483390D02*
X198934285Y-92435771D01*
X198934285Y-92435771D02*
X198696190Y-92435771D01*
X198696190Y-92435771D02*
X198600952Y-92483390D01*
X198600952Y-92483390D02*
X198553333Y-92531009D01*
X198553333Y-92531009D02*
X198505714Y-92626247D01*
X198505714Y-92626247D02*
X198505714Y-92864342D01*
X198505714Y-92864342D02*
X198553333Y-92959580D01*
X198553333Y-92959580D02*
X198600952Y-93007200D01*
X198600952Y-93007200D02*
X198696190Y-93054819D01*
X198696190Y-93054819D02*
X198934285Y-93054819D01*
X198934285Y-93054819D02*
X199029523Y-93007200D01*
X199029523Y-93007200D02*
X199077142Y-92959580D01*
X123386666Y-34459580D02*
X123434285Y-34507200D01*
X123434285Y-34507200D02*
X123577142Y-34554819D01*
X123577142Y-34554819D02*
X123672380Y-34554819D01*
X123672380Y-34554819D02*
X123815237Y-34507200D01*
X123815237Y-34507200D02*
X123910475Y-34411961D01*
X123910475Y-34411961D02*
X123958094Y-34316723D01*
X123958094Y-34316723D02*
X124005713Y-34126247D01*
X124005713Y-34126247D02*
X124005713Y-33983390D01*
X124005713Y-33983390D02*
X123958094Y-33792914D01*
X123958094Y-33792914D02*
X123910475Y-33697676D01*
X123910475Y-33697676D02*
X123815237Y-33602438D01*
X123815237Y-33602438D02*
X123672380Y-33554819D01*
X123672380Y-33554819D02*
X123577142Y-33554819D01*
X123577142Y-33554819D02*
X123434285Y-33602438D01*
X123434285Y-33602438D02*
X123386666Y-33650057D01*
X123053332Y-33554819D02*
X122434285Y-33554819D01*
X122434285Y-33554819D02*
X122767618Y-33935771D01*
X122767618Y-33935771D02*
X122624761Y-33935771D01*
X122624761Y-33935771D02*
X122529523Y-33983390D01*
X122529523Y-33983390D02*
X122481904Y-34031009D01*
X122481904Y-34031009D02*
X122434285Y-34126247D01*
X122434285Y-34126247D02*
X122434285Y-34364342D01*
X122434285Y-34364342D02*
X122481904Y-34459580D01*
X122481904Y-34459580D02*
X122529523Y-34507200D01*
X122529523Y-34507200D02*
X122624761Y-34554819D01*
X122624761Y-34554819D02*
X122910475Y-34554819D01*
X122910475Y-34554819D02*
X123005713Y-34507200D01*
X123005713Y-34507200D02*
X123053332Y-34459580D01*
X81458094Y-85554819D02*
X81458094Y-84554819D01*
X81458094Y-84554819D02*
X81219999Y-84554819D01*
X81219999Y-84554819D02*
X81077142Y-84602438D01*
X81077142Y-84602438D02*
X80981904Y-84697676D01*
X80981904Y-84697676D02*
X80934285Y-84792914D01*
X80934285Y-84792914D02*
X80886666Y-84983390D01*
X80886666Y-84983390D02*
X80886666Y-85126247D01*
X80886666Y-85126247D02*
X80934285Y-85316723D01*
X80934285Y-85316723D02*
X80981904Y-85411961D01*
X80981904Y-85411961D02*
X81077142Y-85507200D01*
X81077142Y-85507200D02*
X81219999Y-85554819D01*
X81219999Y-85554819D02*
X81458094Y-85554819D01*
X80553332Y-84554819D02*
X79934285Y-84554819D01*
X79934285Y-84554819D02*
X80267618Y-84935771D01*
X80267618Y-84935771D02*
X80124761Y-84935771D01*
X80124761Y-84935771D02*
X80029523Y-84983390D01*
X80029523Y-84983390D02*
X79981904Y-85031009D01*
X79981904Y-85031009D02*
X79934285Y-85126247D01*
X79934285Y-85126247D02*
X79934285Y-85364342D01*
X79934285Y-85364342D02*
X79981904Y-85459580D01*
X79981904Y-85459580D02*
X80029523Y-85507200D01*
X80029523Y-85507200D02*
X80124761Y-85554819D01*
X80124761Y-85554819D02*
X80410475Y-85554819D01*
X80410475Y-85554819D02*
X80505713Y-85507200D01*
X80505713Y-85507200D02*
X80553332Y-85459580D01*
X204558094Y-88054819D02*
X204558094Y-87054819D01*
X204558094Y-87054819D02*
X204319999Y-87054819D01*
X204319999Y-87054819D02*
X204177142Y-87102438D01*
X204177142Y-87102438D02*
X204081904Y-87197676D01*
X204081904Y-87197676D02*
X204034285Y-87292914D01*
X204034285Y-87292914D02*
X203986666Y-87483390D01*
X203986666Y-87483390D02*
X203986666Y-87626247D01*
X203986666Y-87626247D02*
X204034285Y-87816723D01*
X204034285Y-87816723D02*
X204081904Y-87911961D01*
X204081904Y-87911961D02*
X204177142Y-88007200D01*
X204177142Y-88007200D02*
X204319999Y-88054819D01*
X204319999Y-88054819D02*
X204558094Y-88054819D01*
X203129523Y-87388152D02*
X203129523Y-88054819D01*
X203367618Y-87007200D02*
X203605713Y-87721485D01*
X203605713Y-87721485D02*
X202986666Y-87721485D01*
X128686666Y-55959580D02*
X128734285Y-56007200D01*
X128734285Y-56007200D02*
X128877142Y-56054819D01*
X128877142Y-56054819D02*
X128972380Y-56054819D01*
X128972380Y-56054819D02*
X129115237Y-56007200D01*
X129115237Y-56007200D02*
X129210475Y-55911961D01*
X129210475Y-55911961D02*
X129258094Y-55816723D01*
X129258094Y-55816723D02*
X129305713Y-55626247D01*
X129305713Y-55626247D02*
X129305713Y-55483390D01*
X129305713Y-55483390D02*
X129258094Y-55292914D01*
X129258094Y-55292914D02*
X129210475Y-55197676D01*
X129210475Y-55197676D02*
X129115237Y-55102438D01*
X129115237Y-55102438D02*
X128972380Y-55054819D01*
X128972380Y-55054819D02*
X128877142Y-55054819D01*
X128877142Y-55054819D02*
X128734285Y-55102438D01*
X128734285Y-55102438D02*
X128686666Y-55150057D01*
X128305713Y-55150057D02*
X128258094Y-55102438D01*
X128258094Y-55102438D02*
X128162856Y-55054819D01*
X128162856Y-55054819D02*
X127924761Y-55054819D01*
X127924761Y-55054819D02*
X127829523Y-55102438D01*
X127829523Y-55102438D02*
X127781904Y-55150057D01*
X127781904Y-55150057D02*
X127734285Y-55245295D01*
X127734285Y-55245295D02*
X127734285Y-55340533D01*
X127734285Y-55340533D02*
X127781904Y-55483390D01*
X127781904Y-55483390D02*
X128353332Y-56054819D01*
X128353332Y-56054819D02*
X127734285Y-56054819D01*
X125486666Y-34554819D02*
X125819999Y-34078628D01*
X126058094Y-34554819D02*
X126058094Y-33554819D01*
X126058094Y-33554819D02*
X125677142Y-33554819D01*
X125677142Y-33554819D02*
X125581904Y-33602438D01*
X125581904Y-33602438D02*
X125534285Y-33650057D01*
X125534285Y-33650057D02*
X125486666Y-33745295D01*
X125486666Y-33745295D02*
X125486666Y-33888152D01*
X125486666Y-33888152D02*
X125534285Y-33983390D01*
X125534285Y-33983390D02*
X125581904Y-34031009D01*
X125581904Y-34031009D02*
X125677142Y-34078628D01*
X125677142Y-34078628D02*
X126058094Y-34078628D01*
X125153332Y-33554819D02*
X124534285Y-33554819D01*
X124534285Y-33554819D02*
X124867618Y-33935771D01*
X124867618Y-33935771D02*
X124724761Y-33935771D01*
X124724761Y-33935771D02*
X124629523Y-33983390D01*
X124629523Y-33983390D02*
X124581904Y-34031009D01*
X124581904Y-34031009D02*
X124534285Y-34126247D01*
X124534285Y-34126247D02*
X124534285Y-34364342D01*
X124534285Y-34364342D02*
X124581904Y-34459580D01*
X124581904Y-34459580D02*
X124629523Y-34507200D01*
X124629523Y-34507200D02*
X124724761Y-34554819D01*
X124724761Y-34554819D02*
X125010475Y-34554819D01*
X125010475Y-34554819D02*
X125105713Y-34507200D01*
X125105713Y-34507200D02*
X125153332Y-34459580D01*
X194758094Y-85354819D02*
X194758094Y-84354819D01*
X194758094Y-84354819D02*
X194519999Y-84354819D01*
X194519999Y-84354819D02*
X194377142Y-84402438D01*
X194377142Y-84402438D02*
X194281904Y-84497676D01*
X194281904Y-84497676D02*
X194234285Y-84592914D01*
X194234285Y-84592914D02*
X194186666Y-84783390D01*
X194186666Y-84783390D02*
X194186666Y-84926247D01*
X194186666Y-84926247D02*
X194234285Y-85116723D01*
X194234285Y-85116723D02*
X194281904Y-85211961D01*
X194281904Y-85211961D02*
X194377142Y-85307200D01*
X194377142Y-85307200D02*
X194519999Y-85354819D01*
X194519999Y-85354819D02*
X194758094Y-85354819D01*
X193329523Y-84354819D02*
X193519999Y-84354819D01*
X193519999Y-84354819D02*
X193615237Y-84402438D01*
X193615237Y-84402438D02*
X193662856Y-84450057D01*
X193662856Y-84450057D02*
X193758094Y-84592914D01*
X193758094Y-84592914D02*
X193805713Y-84783390D01*
X193805713Y-84783390D02*
X193805713Y-85164342D01*
X193805713Y-85164342D02*
X193758094Y-85259580D01*
X193758094Y-85259580D02*
X193710475Y-85307200D01*
X193710475Y-85307200D02*
X193615237Y-85354819D01*
X193615237Y-85354819D02*
X193424761Y-85354819D01*
X193424761Y-85354819D02*
X193329523Y-85307200D01*
X193329523Y-85307200D02*
X193281904Y-85259580D01*
X193281904Y-85259580D02*
X193234285Y-85164342D01*
X193234285Y-85164342D02*
X193234285Y-84926247D01*
X193234285Y-84926247D02*
X193281904Y-84831009D01*
X193281904Y-84831009D02*
X193329523Y-84783390D01*
X193329523Y-84783390D02*
X193424761Y-84735771D01*
X193424761Y-84735771D02*
X193615237Y-84735771D01*
X193615237Y-84735771D02*
X193710475Y-84783390D01*
X193710475Y-84783390D02*
X193758094Y-84831009D01*
X193758094Y-84831009D02*
X193805713Y-84926247D01*
X74786666Y-78459580D02*
X74834285Y-78507200D01*
X74834285Y-78507200D02*
X74977142Y-78554819D01*
X74977142Y-78554819D02*
X75072380Y-78554819D01*
X75072380Y-78554819D02*
X75215237Y-78507200D01*
X75215237Y-78507200D02*
X75310475Y-78411961D01*
X75310475Y-78411961D02*
X75358094Y-78316723D01*
X75358094Y-78316723D02*
X75405713Y-78126247D01*
X75405713Y-78126247D02*
X75405713Y-77983390D01*
X75405713Y-77983390D02*
X75358094Y-77792914D01*
X75358094Y-77792914D02*
X75310475Y-77697676D01*
X75310475Y-77697676D02*
X75215237Y-77602438D01*
X75215237Y-77602438D02*
X75072380Y-77554819D01*
X75072380Y-77554819D02*
X74977142Y-77554819D01*
X74977142Y-77554819D02*
X74834285Y-77602438D01*
X74834285Y-77602438D02*
X74786666Y-77650057D01*
X73834285Y-78554819D02*
X74405713Y-78554819D01*
X74119999Y-78554819D02*
X74119999Y-77554819D01*
X74119999Y-77554819D02*
X74215237Y-77697676D01*
X74215237Y-77697676D02*
X74310475Y-77792914D01*
X74310475Y-77792914D02*
X74405713Y-77840533D01*
X78853333Y-92731009D02*
X79186666Y-92731009D01*
X79186666Y-93254819D02*
X79186666Y-92254819D01*
X79186666Y-92254819D02*
X78710476Y-92254819D01*
X78377142Y-92350057D02*
X78329523Y-92302438D01*
X78329523Y-92302438D02*
X78234285Y-92254819D01*
X78234285Y-92254819D02*
X77996190Y-92254819D01*
X77996190Y-92254819D02*
X77900952Y-92302438D01*
X77900952Y-92302438D02*
X77853333Y-92350057D01*
X77853333Y-92350057D02*
X77805714Y-92445295D01*
X77805714Y-92445295D02*
X77805714Y-92540533D01*
X77805714Y-92540533D02*
X77853333Y-92683390D01*
X77853333Y-92683390D02*
X78424761Y-93254819D01*
X78424761Y-93254819D02*
X77805714Y-93254819D01*
X114953333Y-27854819D02*
X114953333Y-28569104D01*
X114953333Y-28569104D02*
X115000952Y-28711961D01*
X115000952Y-28711961D02*
X115096190Y-28807200D01*
X115096190Y-28807200D02*
X115239047Y-28854819D01*
X115239047Y-28854819D02*
X115334285Y-28854819D01*
X114048571Y-28188152D02*
X114048571Y-28854819D01*
X114286666Y-27807200D02*
X114524761Y-28521485D01*
X114524761Y-28521485D02*
X113905714Y-28521485D01*
X115553333Y-31081009D02*
X115886666Y-31081009D01*
X115886666Y-31604819D02*
X115886666Y-30604819D01*
X115886666Y-30604819D02*
X115410476Y-30604819D01*
X114505714Y-31604819D02*
X115077142Y-31604819D01*
X114791428Y-31604819D02*
X114791428Y-30604819D01*
X114791428Y-30604819D02*
X114886666Y-30747676D01*
X114886666Y-30747676D02*
X114981904Y-30842914D01*
X114981904Y-30842914D02*
X115077142Y-30890533D01*
X69658094Y-89554819D02*
X69658094Y-88554819D01*
X69658094Y-88554819D02*
X69419999Y-88554819D01*
X69419999Y-88554819D02*
X69277142Y-88602438D01*
X69277142Y-88602438D02*
X69181904Y-88697676D01*
X69181904Y-88697676D02*
X69134285Y-88792914D01*
X69134285Y-88792914D02*
X69086666Y-88983390D01*
X69086666Y-88983390D02*
X69086666Y-89126247D01*
X69086666Y-89126247D02*
X69134285Y-89316723D01*
X69134285Y-89316723D02*
X69181904Y-89411961D01*
X69181904Y-89411961D02*
X69277142Y-89507200D01*
X69277142Y-89507200D02*
X69419999Y-89554819D01*
X69419999Y-89554819D02*
X69658094Y-89554819D01*
X68134285Y-89554819D02*
X68705713Y-89554819D01*
X68419999Y-89554819D02*
X68419999Y-88554819D01*
X68419999Y-88554819D02*
X68515237Y-88697676D01*
X68515237Y-88697676D02*
X68610475Y-88792914D01*
X68610475Y-88792914D02*
X68705713Y-88840533D01*
X203858094Y-85454819D02*
X203858094Y-84454819D01*
X203858094Y-84454819D02*
X203619999Y-84454819D01*
X203619999Y-84454819D02*
X203477142Y-84502438D01*
X203477142Y-84502438D02*
X203381904Y-84597676D01*
X203381904Y-84597676D02*
X203334285Y-84692914D01*
X203334285Y-84692914D02*
X203286666Y-84883390D01*
X203286666Y-84883390D02*
X203286666Y-85026247D01*
X203286666Y-85026247D02*
X203334285Y-85216723D01*
X203334285Y-85216723D02*
X203381904Y-85311961D01*
X203381904Y-85311961D02*
X203477142Y-85407200D01*
X203477142Y-85407200D02*
X203619999Y-85454819D01*
X203619999Y-85454819D02*
X203858094Y-85454819D01*
X202381904Y-84454819D02*
X202858094Y-84454819D01*
X202858094Y-84454819D02*
X202905713Y-84931009D01*
X202905713Y-84931009D02*
X202858094Y-84883390D01*
X202858094Y-84883390D02*
X202762856Y-84835771D01*
X202762856Y-84835771D02*
X202524761Y-84835771D01*
X202524761Y-84835771D02*
X202429523Y-84883390D01*
X202429523Y-84883390D02*
X202381904Y-84931009D01*
X202381904Y-84931009D02*
X202334285Y-85026247D01*
X202334285Y-85026247D02*
X202334285Y-85264342D01*
X202334285Y-85264342D02*
X202381904Y-85359580D01*
X202381904Y-85359580D02*
X202429523Y-85407200D01*
X202429523Y-85407200D02*
X202524761Y-85454819D01*
X202524761Y-85454819D02*
X202762856Y-85454819D01*
X202762856Y-85454819D02*
X202858094Y-85407200D01*
X202858094Y-85407200D02*
X202905713Y-85359580D01*
X196353333Y-92531009D02*
X196686666Y-92531009D01*
X196686666Y-93054819D02*
X196686666Y-92054819D01*
X196686666Y-92054819D02*
X196210476Y-92054819D01*
X195400952Y-92388152D02*
X195400952Y-93054819D01*
X195639047Y-92007200D02*
X195877142Y-92721485D01*
X195877142Y-92721485D02*
X195258095Y-92721485D01*
X115286666Y-35509580D02*
X115334285Y-35557200D01*
X115334285Y-35557200D02*
X115477142Y-35604819D01*
X115477142Y-35604819D02*
X115572380Y-35604819D01*
X115572380Y-35604819D02*
X115715237Y-35557200D01*
X115715237Y-35557200D02*
X115810475Y-35461961D01*
X115810475Y-35461961D02*
X115858094Y-35366723D01*
X115858094Y-35366723D02*
X115905713Y-35176247D01*
X115905713Y-35176247D02*
X115905713Y-35033390D01*
X115905713Y-35033390D02*
X115858094Y-34842914D01*
X115858094Y-34842914D02*
X115810475Y-34747676D01*
X115810475Y-34747676D02*
X115715237Y-34652438D01*
X115715237Y-34652438D02*
X115572380Y-34604819D01*
X115572380Y-34604819D02*
X115477142Y-34604819D01*
X115477142Y-34604819D02*
X115334285Y-34652438D01*
X115334285Y-34652438D02*
X115286666Y-34700057D01*
X114429523Y-34938152D02*
X114429523Y-35604819D01*
X114667618Y-34557200D02*
X114905713Y-35271485D01*
X114905713Y-35271485D02*
X114286666Y-35271485D01*
X125881904Y-55054819D02*
X125881904Y-55864342D01*
X125881904Y-55864342D02*
X125834285Y-55959580D01*
X125834285Y-55959580D02*
X125786666Y-56007200D01*
X125786666Y-56007200D02*
X125691428Y-56054819D01*
X125691428Y-56054819D02*
X125500952Y-56054819D01*
X125500952Y-56054819D02*
X125405714Y-56007200D01*
X125405714Y-56007200D02*
X125358095Y-55959580D01*
X125358095Y-55959580D02*
X125310476Y-55864342D01*
X125310476Y-55864342D02*
X125310476Y-55054819D01*
X124929523Y-55054819D02*
X124310476Y-55054819D01*
X124310476Y-55054819D02*
X124643809Y-55435771D01*
X124643809Y-55435771D02*
X124500952Y-55435771D01*
X124500952Y-55435771D02*
X124405714Y-55483390D01*
X124405714Y-55483390D02*
X124358095Y-55531009D01*
X124358095Y-55531009D02*
X124310476Y-55626247D01*
X124310476Y-55626247D02*
X124310476Y-55864342D01*
X124310476Y-55864342D02*
X124358095Y-55959580D01*
X124358095Y-55959580D02*
X124405714Y-56007200D01*
X124405714Y-56007200D02*
X124500952Y-56054819D01*
X124500952Y-56054819D02*
X124786666Y-56054819D01*
X124786666Y-56054819D02*
X124881904Y-56007200D01*
X124881904Y-56007200D02*
X124929523Y-55959580D01*
X119981904Y-33554819D02*
X119981904Y-34364342D01*
X119981904Y-34364342D02*
X119934285Y-34459580D01*
X119934285Y-34459580D02*
X119886666Y-34507200D01*
X119886666Y-34507200D02*
X119791428Y-34554819D01*
X119791428Y-34554819D02*
X119600952Y-34554819D01*
X119600952Y-34554819D02*
X119505714Y-34507200D01*
X119505714Y-34507200D02*
X119458095Y-34459580D01*
X119458095Y-34459580D02*
X119410476Y-34364342D01*
X119410476Y-34364342D02*
X119410476Y-33554819D01*
X118505714Y-33888152D02*
X118505714Y-34554819D01*
X118743809Y-33507200D02*
X118981904Y-34221485D01*
X118981904Y-34221485D02*
X118362857Y-34221485D01*
X76053333Y-92731009D02*
X76386666Y-92731009D01*
X76386666Y-93254819D02*
X76386666Y-92254819D01*
X76386666Y-92254819D02*
X75910476Y-92254819D01*
X75624761Y-92254819D02*
X75005714Y-92254819D01*
X75005714Y-92254819D02*
X75339047Y-92635771D01*
X75339047Y-92635771D02*
X75196190Y-92635771D01*
X75196190Y-92635771D02*
X75100952Y-92683390D01*
X75100952Y-92683390D02*
X75053333Y-92731009D01*
X75053333Y-92731009D02*
X75005714Y-92826247D01*
X75005714Y-92826247D02*
X75005714Y-93064342D01*
X75005714Y-93064342D02*
X75053333Y-93159580D01*
X75053333Y-93159580D02*
X75100952Y-93207200D01*
X75100952Y-93207200D02*
X75196190Y-93254819D01*
X75196190Y-93254819D02*
X75481904Y-93254819D01*
X75481904Y-93254819D02*
X75577142Y-93207200D01*
X75577142Y-93207200D02*
X75624761Y-93159580D01*
X72258094Y-85554819D02*
X72258094Y-84554819D01*
X72258094Y-84554819D02*
X72019999Y-84554819D01*
X72019999Y-84554819D02*
X71877142Y-84602438D01*
X71877142Y-84602438D02*
X71781904Y-84697676D01*
X71781904Y-84697676D02*
X71734285Y-84792914D01*
X71734285Y-84792914D02*
X71686666Y-84983390D01*
X71686666Y-84983390D02*
X71686666Y-85126247D01*
X71686666Y-85126247D02*
X71734285Y-85316723D01*
X71734285Y-85316723D02*
X71781904Y-85411961D01*
X71781904Y-85411961D02*
X71877142Y-85507200D01*
X71877142Y-85507200D02*
X72019999Y-85554819D01*
X72019999Y-85554819D02*
X72258094Y-85554819D01*
X71305713Y-84650057D02*
X71258094Y-84602438D01*
X71258094Y-84602438D02*
X71162856Y-84554819D01*
X71162856Y-84554819D02*
X70924761Y-84554819D01*
X70924761Y-84554819D02*
X70829523Y-84602438D01*
X70829523Y-84602438D02*
X70781904Y-84650057D01*
X70781904Y-84650057D02*
X70734285Y-84745295D01*
X70734285Y-84745295D02*
X70734285Y-84840533D01*
X70734285Y-84840533D02*
X70781904Y-84983390D01*
X70781904Y-84983390D02*
X71353332Y-85554819D01*
X71353332Y-85554819D02*
X70734285Y-85554819D01*
D12*
%TO.C,U1*%
X120020000Y-67400000D02*
X120320000Y-67400000D01*
X117520000Y-67400000D02*
X117920000Y-67400000D01*
X117653000Y-64393000D02*
X117653000Y-67400000D01*
X114920000Y-67400000D02*
X115320000Y-67400000D01*
X112420000Y-67400000D02*
X112820000Y-67400000D01*
X109820000Y-67400000D02*
X110220000Y-67400000D01*
X107320000Y-67400000D02*
X107720000Y-67400000D01*
X104820000Y-67400000D02*
X105220000Y-67400000D01*
X102220000Y-67400000D02*
X102620000Y-67400000D01*
X99720000Y-67400000D02*
X100120000Y-67400000D01*
X97120000Y-67400000D02*
X97520000Y-67400000D01*
X94620000Y-67400000D02*
X95020000Y-67400000D01*
X92120000Y-67400000D02*
X92520000Y-67400000D01*
X89520000Y-67400000D02*
X89920000Y-67400000D01*
X87020000Y-67400000D02*
X87420000Y-67400000D01*
X84420000Y-67400000D02*
X84820000Y-67400000D01*
X81920000Y-67400000D02*
X82320000Y-67400000D01*
X79320000Y-67400000D02*
X79720000Y-67400000D01*
X76820000Y-67400000D02*
X77220000Y-67400000D01*
X74320000Y-67400000D02*
X74720000Y-67400000D01*
X71720000Y-67400000D02*
X72120000Y-67400000D01*
X120320000Y-64393000D02*
X117653000Y-64393000D01*
X69320000Y-67400000D02*
X69320000Y-60600000D01*
X120320000Y-67430000D02*
X120320000Y-58900000D01*
X69320000Y-58000000D02*
X69320000Y-58400000D01*
X69320000Y-55400000D02*
X69320000Y-55800000D01*
X120320000Y-54900000D02*
X120320000Y-46430000D01*
X120020000Y-46400000D02*
X120320000Y-46400000D01*
X117520000Y-46400000D02*
X117920000Y-46400000D01*
X114920000Y-46400000D02*
X115320000Y-46400000D01*
X112420000Y-46400000D02*
X112820000Y-46400000D01*
X109820000Y-46400000D02*
X110220000Y-46400000D01*
X107320000Y-46400000D02*
X107720000Y-46400000D01*
X104820000Y-46400000D02*
X105220000Y-46400000D01*
X102220000Y-46400000D02*
X102620000Y-46400000D01*
X99720000Y-46400000D02*
X100120000Y-46400000D01*
X97120000Y-46400000D02*
X97520000Y-46400000D01*
X94620000Y-46400000D02*
X95020000Y-46400000D01*
X92120000Y-46400000D02*
X92520000Y-46400000D01*
X89520000Y-46400000D02*
X89920000Y-46400000D01*
X87020000Y-46400000D02*
X87420000Y-46400000D01*
X84420000Y-46400000D02*
X84820000Y-46400000D01*
X81920000Y-46400000D02*
X82320000Y-46400000D01*
X79320000Y-46400000D02*
X79720000Y-46400000D01*
X76820000Y-46400000D02*
X77220000Y-46400000D01*
X74320000Y-46400000D02*
X74720000Y-46400000D01*
X71720000Y-46400000D02*
X72120000Y-46400000D01*
X69320000Y-53200000D02*
X69320000Y-46400000D01*
%TO.C,R2*%
X184282742Y-52677500D02*
X184757258Y-52677500D01*
X184282742Y-53722500D02*
X184757258Y-53722500D01*
%TO.C,J2*%
X197110000Y-104885000D02*
X198560000Y-104885000D01*
X197110000Y-103085000D02*
X197110000Y-104885000D01*
X196120000Y-95715000D02*
X197110000Y-95715000D01*
X201380000Y-103615000D02*
X201380000Y-95185000D01*
X197110000Y-93915000D02*
X198560000Y-93915000D01*
X197110000Y-95715000D02*
X197110000Y-93915000D01*
%TO.C,J1*%
X77530000Y-103085000D02*
X77530000Y-104885000D01*
X77530000Y-104885000D02*
X76080000Y-104885000D01*
X73260000Y-95185000D02*
X73260000Y-103615000D01*
X78520000Y-103085000D02*
X77530000Y-103085000D01*
X77530000Y-95715000D02*
X77530000Y-93915000D01*
X77530000Y-93915000D02*
X76080000Y-93915000D01*
%TO.C,R1*%
X184282742Y-51077500D02*
X184757258Y-51077500D01*
X184282742Y-52122500D02*
X184757258Y-52122500D01*
%TO.C,RN2*%
X200000000Y-82500000D02*
X200000000Y-81500000D01*
X203360000Y-82500000D02*
X203360000Y-81500000D01*
%TO.C,U2*%
X75760000Y-74500000D02*
X75760000Y-75300000D01*
X75760000Y-76100000D02*
X75760000Y-75300000D01*
X78880000Y-74500000D02*
X78880000Y-75300000D01*
X78880000Y-76100000D02*
X78880000Y-75300000D01*
X75810000Y-74000000D02*
X75480000Y-74240000D01*
X75480000Y-73760000D01*
X75810000Y-74000000D01*
G36*
X75810000Y-74000000D02*
G01*
X75480000Y-74240000D01*
X75480000Y-73760000D01*
X75810000Y-74000000D01*
G37*
%TO.C,RN1*%
X71290000Y-82700000D02*
X71290000Y-81700000D01*
X74650000Y-82700000D02*
X74650000Y-81700000D01*
%TO.C,F5*%
X200030000Y-90458578D02*
X200030000Y-89941422D01*
X198610000Y-90458578D02*
X198610000Y-89941422D01*
%TO.C,C3*%
X123010000Y-31065580D02*
X123010000Y-30784420D01*
X124030000Y-31065580D02*
X124030000Y-30784420D01*
%TO.C,D3*%
X79480000Y-85750000D02*
X79480000Y-86400000D01*
X76360000Y-85750000D02*
X76360000Y-86400000D01*
X79480000Y-87050000D02*
X79480000Y-86400000D01*
X76360000Y-87050000D02*
X76360000Y-86400000D01*
X76410000Y-85237500D02*
X76080000Y-85477500D01*
X76080000Y-84997500D01*
X76410000Y-85237500D01*
G36*
X76410000Y-85237500D02*
G01*
X76080000Y-85477500D01*
X76080000Y-84997500D01*
X76410000Y-85237500D01*
G37*
%TO.C,D4*%
X201410000Y-89037500D02*
X201080000Y-89277500D01*
X201080000Y-88797500D01*
X201410000Y-89037500D01*
G36*
X201410000Y-89037500D02*
G01*
X201080000Y-89277500D01*
X201080000Y-88797500D01*
X201410000Y-89037500D01*
G37*
X204480000Y-89550000D02*
X204480000Y-90200000D01*
X201360000Y-89550000D02*
X201360000Y-90200000D01*
X204480000Y-90850000D02*
X204480000Y-90200000D01*
X201360000Y-90850000D02*
X201360000Y-90200000D01*
%TO.C,C2*%
X129030000Y-58040580D02*
X129030000Y-57759420D01*
X128010000Y-58040580D02*
X128010000Y-57759420D01*
%TO.C,R3*%
X124497500Y-31137258D02*
X124497500Y-30662742D01*
X125542500Y-31137258D02*
X125542500Y-30662742D01*
%TO.C,D6*%
X198280000Y-85550000D02*
X198280000Y-86200000D01*
X195160000Y-85550000D02*
X195160000Y-86200000D01*
X198280000Y-86850000D02*
X198280000Y-86200000D01*
X195160000Y-86850000D02*
X195160000Y-86200000D01*
X198560000Y-87602500D02*
X198230000Y-87362500D01*
X198560000Y-87122500D01*
X198560000Y-87602500D01*
G36*
X198560000Y-87602500D02*
G01*
X198230000Y-87362500D01*
X198560000Y-87122500D01*
X198560000Y-87602500D01*
G37*
%TO.C,C1*%
X74210000Y-75759420D02*
X74210000Y-76040580D01*
X75230000Y-75759420D02*
X75230000Y-76040580D01*
%TO.C,F2*%
X77810000Y-90658578D02*
X77810000Y-90141422D01*
X79230000Y-90658578D02*
X79230000Y-90141422D01*
%TO.C,J4*%
X115975000Y-19195000D02*
X115975000Y-21925000D01*
X115975000Y-24625000D02*
X115975000Y-25525000D01*
X125045000Y-28605000D02*
X116095000Y-28605000D01*
X125165000Y-19195000D02*
X115975000Y-19195000D01*
X125165000Y-19195000D02*
X125165000Y-21925000D01*
X125165000Y-24625000D02*
X125165000Y-25525000D01*
%TO.C,F1*%
X116360000Y-31408578D02*
X116360000Y-30891422D01*
X117780000Y-31408578D02*
X117780000Y-30891422D01*
%TO.C,D1*%
X73280000Y-89750000D02*
X73280000Y-90400000D01*
X70160000Y-89750000D02*
X70160000Y-90400000D01*
X73280000Y-91050000D02*
X73280000Y-90400000D01*
X70160000Y-91050000D02*
X70160000Y-90400000D01*
X70210000Y-89237500D02*
X69880000Y-89477500D01*
X69880000Y-88997500D01*
X70210000Y-89237500D01*
G36*
X70210000Y-89237500D02*
G01*
X69880000Y-89477500D01*
X69880000Y-88997500D01*
X70210000Y-89237500D01*
G37*
%TO.C,D5*%
X202160000Y-87602500D02*
X201830000Y-87362500D01*
X202160000Y-87122500D01*
X202160000Y-87602500D01*
G36*
X202160000Y-87602500D02*
G01*
X201830000Y-87362500D01*
X202160000Y-87122500D01*
X202160000Y-87602500D01*
G37*
X198760000Y-86850000D02*
X198760000Y-86200000D01*
X201880000Y-86850000D02*
X201880000Y-86200000D01*
X198760000Y-85550000D02*
X198760000Y-86200000D01*
X201880000Y-85550000D02*
X201880000Y-86200000D01*
%TO.C,F4*%
X195410000Y-90458578D02*
X195410000Y-89941422D01*
X196830000Y-90458578D02*
X196830000Y-89941422D01*
%TO.C,C4*%
X116335000Y-35411252D02*
X116335000Y-34888748D01*
X117805000Y-35411252D02*
X117805000Y-34888748D01*
%TO.C,U3*%
X127760000Y-59940000D02*
X127430000Y-59700000D01*
X127760000Y-59460000D01*
X127760000Y-59940000D01*
G36*
X127760000Y-59940000D02*
G01*
X127430000Y-59700000D01*
X127760000Y-59460000D01*
X127760000Y-59940000D01*
G37*
X127480000Y-59200000D02*
X127480000Y-58400000D01*
X127480000Y-57600000D02*
X127480000Y-58400000D01*
X124360000Y-59200000D02*
X124360000Y-58400000D01*
X124360000Y-57600000D02*
X124360000Y-58400000D01*
%TO.C,U4*%
X119010000Y-30600000D02*
X119010000Y-31400000D01*
X119010000Y-32200000D02*
X119010000Y-31400000D01*
X122130000Y-30600000D02*
X122130000Y-31400000D01*
X122130000Y-32200000D02*
X122130000Y-31400000D01*
X122410000Y-32940000D02*
X122080000Y-32700000D01*
X122410000Y-32460000D01*
X122410000Y-32940000D01*
G36*
X122410000Y-32940000D02*
G01*
X122080000Y-32700000D01*
X122410000Y-32460000D01*
X122410000Y-32940000D01*
G37*
%TO.C,F3*%
X75010000Y-90658578D02*
X75010000Y-90141422D01*
X76430000Y-90658578D02*
X76430000Y-90141422D01*
%TO.C,D2*%
X75880000Y-85750000D02*
X75880000Y-86400000D01*
X72760000Y-85750000D02*
X72760000Y-86400000D01*
X75880000Y-87050000D02*
X75880000Y-86400000D01*
X72760000Y-87050000D02*
X72760000Y-86400000D01*
X72810000Y-85237500D02*
X72480000Y-85477500D01*
X72480000Y-84997500D01*
X72810000Y-85237500D01*
G36*
X72810000Y-85237500D02*
G01*
X72480000Y-85477500D01*
X72480000Y-84997500D01*
X72810000Y-85237500D01*
G37*
%TD*%
%LPC*%
D13*
%TO.C,U1*%
X118950000Y-65790000D03*
D14*
X118950000Y-66690000D03*
D13*
X116410000Y-65790000D03*
D14*
X116410000Y-66690000D03*
D15*
X113870000Y-65790000D03*
D14*
X113870000Y-66690000D03*
D13*
X111330000Y-65790000D03*
D14*
X111330000Y-66690000D03*
D13*
X108790000Y-65790000D03*
D14*
X108790000Y-66690000D03*
D13*
X106250000Y-65790000D03*
D14*
X106250000Y-66690000D03*
D13*
X103710000Y-65790000D03*
D14*
X103710000Y-66690000D03*
D15*
X101170000Y-65790000D03*
D14*
X101170000Y-66690000D03*
D13*
X98630000Y-65790000D03*
D14*
X98630000Y-66690000D03*
D13*
X96090000Y-65790000D03*
D14*
X96090000Y-66690000D03*
D13*
X93550000Y-65790000D03*
D14*
X93550000Y-66690000D03*
D13*
X91010000Y-65790000D03*
D14*
X91010000Y-66690000D03*
D15*
X88470000Y-65790000D03*
D14*
X88470000Y-66690000D03*
D13*
X85930000Y-65790000D03*
D14*
X85930000Y-66690000D03*
D13*
X83390000Y-65790000D03*
D14*
X83390000Y-66690000D03*
D13*
X80850000Y-65790000D03*
D14*
X80850000Y-66690000D03*
D13*
X78310000Y-65790000D03*
D14*
X78310000Y-66690000D03*
D15*
X75770000Y-65790000D03*
D14*
X75770000Y-66690000D03*
D13*
X73230000Y-65790000D03*
D14*
X73230000Y-66690000D03*
D13*
X70690000Y-65790000D03*
D14*
X70690000Y-66690000D03*
D13*
X70690000Y-48010000D03*
D14*
X70690000Y-47110000D03*
D13*
X73230000Y-48010000D03*
D14*
X73230000Y-47110000D03*
D15*
X75770000Y-48010000D03*
D14*
X75770000Y-47110000D03*
D13*
X78310000Y-48010000D03*
D14*
X78310000Y-47110000D03*
D13*
X80850000Y-48010000D03*
D14*
X80850000Y-47110000D03*
D13*
X83390000Y-48010000D03*
D14*
X83390000Y-47110000D03*
D13*
X85930000Y-48010000D03*
D14*
X85930000Y-47110000D03*
D15*
X88470000Y-48010000D03*
D14*
X88470000Y-47110000D03*
D13*
X91010000Y-48010000D03*
D14*
X91010000Y-47110000D03*
D13*
X93550000Y-48010000D03*
D14*
X93550000Y-47110000D03*
D13*
X96090000Y-48010000D03*
D14*
X96090000Y-47110000D03*
D13*
X98630000Y-48010000D03*
D14*
X98630000Y-47110000D03*
D15*
X101170000Y-48010000D03*
D14*
X101170000Y-47110000D03*
D13*
X103710000Y-48010000D03*
D14*
X103710000Y-47110000D03*
D13*
X106250000Y-48010000D03*
D14*
X106250000Y-47110000D03*
D13*
X108790000Y-48010000D03*
D14*
X108790000Y-47110000D03*
D13*
X111330000Y-48010000D03*
D14*
X111330000Y-47110000D03*
D15*
X113870000Y-48010000D03*
D14*
X113870000Y-47110000D03*
D13*
X116410000Y-48010000D03*
D14*
X116410000Y-47110000D03*
D13*
X118950000Y-48010000D03*
D14*
X118950000Y-47110000D03*
D13*
X70920000Y-59440000D03*
D16*
X70020000Y-59440000D03*
D15*
X70920000Y-56900000D03*
D16*
X70020000Y-56900000D03*
D13*
X70920000Y-54360000D03*
D16*
X70020000Y-54360000D03*
D17*
X116190000Y-56900000D03*
X119470000Y-55900000D03*
X119490000Y-57900000D03*
%TD*%
D18*
%TO.C,R2*%
X185345000Y-53200000D03*
X183695000Y-53200000D03*
%TD*%
D19*
%TO.C,J2*%
X200170000Y-104375000D03*
X200170000Y-94425000D03*
D20*
X196970000Y-102525000D03*
X196970000Y-101275000D03*
X196970000Y-100025000D03*
X196970000Y-98775000D03*
X196970000Y-97525000D03*
X196970000Y-96275000D03*
%TD*%
D21*
%TO.C,J1*%
X77670000Y-102525000D03*
X77670000Y-101275000D03*
X77670000Y-100025000D03*
X77670000Y-98775000D03*
X77670000Y-97525000D03*
X77670000Y-96275000D03*
D22*
X74470000Y-104375000D03*
X74470000Y-94425000D03*
%TD*%
D18*
%TO.C,R1*%
X185345000Y-51600000D03*
X183695000Y-51600000D03*
%TD*%
D23*
%TO.C,SW5*%
X162820000Y-140600000D03*
X157820000Y-138500000D03*
D24*
X163320000Y-144400000D03*
D25*
X157820000Y-144400000D03*
D26*
X152820000Y-149550000D03*
D24*
X152320000Y-144400000D03*
%TD*%
D27*
%TO.C,SCR1*%
X54820000Y-26900000D03*
%TD*%
D23*
%TO.C,SW10*%
X143320000Y-30600000D03*
X138320000Y-28500000D03*
D24*
X143820000Y-34400000D03*
D25*
X138320000Y-34400000D03*
D26*
X133320000Y-39550000D03*
D24*
X132820000Y-34400000D03*
%TD*%
D23*
%TO.C,SW2*%
X101320000Y-84600000D03*
X96320000Y-82500000D03*
D24*
X101820000Y-88400000D03*
D25*
X96320000Y-88400000D03*
D26*
X91320000Y-93550000D03*
D24*
X90820000Y-88400000D03*
%TD*%
D23*
%TO.C,SW3*%
X121820000Y-140600000D03*
X116820000Y-138500000D03*
D24*
X122320000Y-144400000D03*
D25*
X116820000Y-144400000D03*
D26*
X111820000Y-149550000D03*
D24*
X111320000Y-144400000D03*
%TD*%
D23*
%TO.C,SW9*%
X110320000Y-30600000D03*
X105320000Y-28500000D03*
D24*
X110820000Y-34400000D03*
D25*
X105320000Y-34400000D03*
D26*
X100320000Y-39550000D03*
D24*
X99820000Y-34400000D03*
%TD*%
D23*
%TO.C,SW8*%
X77320000Y-30600000D03*
X72320000Y-28500000D03*
D24*
X77820000Y-34400000D03*
D25*
X72320000Y-34400000D03*
D26*
X67320000Y-39550000D03*
D24*
X66820000Y-34400000D03*
%TD*%
D27*
%TO.C,SCR2*%
X219820000Y-26900000D03*
%TD*%
D23*
%TO.C,SW6*%
X183320000Y-84600000D03*
X178320000Y-82500000D03*
D24*
X183820000Y-88400000D03*
D25*
X178320000Y-88400000D03*
D26*
X173320000Y-93550000D03*
D24*
X172820000Y-88400000D03*
%TD*%
D23*
%TO.C,SW11*%
X176320000Y-30600000D03*
X171320000Y-28500000D03*
D24*
X176820000Y-34400000D03*
D25*
X171320000Y-34400000D03*
D26*
X166320000Y-39550000D03*
D24*
X165820000Y-34400000D03*
%TD*%
D23*
%TO.C,SW7*%
X203820000Y-140600000D03*
X198820000Y-138500000D03*
D24*
X204320000Y-144400000D03*
D25*
X198820000Y-144400000D03*
D26*
X193820000Y-149550000D03*
D24*
X193320000Y-144400000D03*
%TD*%
D23*
%TO.C,SW4*%
X142320000Y-84600000D03*
X137320000Y-82500000D03*
D24*
X142820000Y-88400000D03*
D25*
X137320000Y-88400000D03*
D26*
X132320000Y-93550000D03*
D24*
X131820000Y-88400000D03*
%TD*%
D27*
%TO.C,SCR4*%
X219820000Y-171900000D03*
%TD*%
%TO.C,SCR3*%
X54820000Y-171900000D03*
%TD*%
D23*
%TO.C,SW1*%
X80820000Y-140600000D03*
X75820000Y-138500000D03*
D24*
X81320000Y-144400000D03*
D25*
X75820000Y-144400000D03*
D26*
X70820000Y-149550000D03*
D24*
X70320000Y-144400000D03*
%TD*%
D28*
%TO.C,RN2*%
X202880000Y-81100000D03*
D29*
X202080000Y-81100000D03*
X201280000Y-81100000D03*
D28*
X200480000Y-81100000D03*
X200480000Y-82900000D03*
D29*
X201280000Y-82900000D03*
X202080000Y-82900000D03*
D28*
X202880000Y-82900000D03*
%TD*%
D30*
%TO.C,U2*%
X76370000Y-74162500D03*
X77320000Y-74162500D03*
X78270000Y-74162500D03*
X78270000Y-76437500D03*
X76370000Y-76437500D03*
%TD*%
D28*
%TO.C,RN1*%
X74170000Y-83100000D03*
D29*
X73370000Y-83100000D03*
X72570000Y-83100000D03*
D28*
X71770000Y-83100000D03*
X71770000Y-81300000D03*
D29*
X72570000Y-81300000D03*
X73370000Y-81300000D03*
D28*
X74170000Y-81300000D03*
%TD*%
D31*
%TO.C,F5*%
X199320000Y-91137500D03*
X199320000Y-89262500D03*
%TD*%
D32*
%TO.C,C3*%
X123520000Y-30150000D03*
X123520000Y-31700000D03*
%TD*%
D33*
%TO.C,D3*%
X76970000Y-85462500D03*
X78870000Y-85462500D03*
X77920000Y-87337500D03*
%TD*%
%TO.C,D4*%
X202920000Y-91137500D03*
X203870000Y-89262500D03*
X201970000Y-89262500D03*
%TD*%
D32*
%TO.C,C2*%
X128520000Y-58675000D03*
X128520000Y-57125000D03*
%TD*%
D34*
%TO.C,R3*%
X125020000Y-30075000D03*
X125020000Y-31725000D03*
%TD*%
D35*
%TO.C,D6*%
X197670000Y-87137500D03*
X195770000Y-87137500D03*
X196720000Y-85262500D03*
%TD*%
D36*
%TO.C,C1*%
X74720000Y-76675000D03*
X74720000Y-75125000D03*
%TD*%
D31*
%TO.C,F2*%
X78520000Y-89462500D03*
X78520000Y-91337500D03*
%TD*%
D37*
%TO.C,J4*%
X117595000Y-27925000D03*
X118445000Y-27925000D03*
X119295000Y-27925000D03*
X120145000Y-27925000D03*
X120995000Y-27925000D03*
X121845000Y-27925000D03*
X122695000Y-27925000D03*
X123545000Y-27925000D03*
X123545000Y-26575000D03*
X122695000Y-26575000D03*
X121845000Y-26575000D03*
X120995000Y-26575000D03*
X120145000Y-26575000D03*
X119295000Y-26575000D03*
X118445000Y-26575000D03*
X117595000Y-26575000D03*
D38*
X116245000Y-23565000D03*
D39*
X116245000Y-26945000D03*
D38*
X124895000Y-23565000D03*
D39*
X124895000Y-26945000D03*
%TD*%
D31*
%TO.C,F1*%
X117070000Y-30212500D03*
X117070000Y-32087500D03*
%TD*%
D33*
%TO.C,D1*%
X70770000Y-89462500D03*
X72670000Y-89462500D03*
X71720000Y-91337500D03*
%TD*%
D35*
%TO.C,D5*%
X200320000Y-85262500D03*
X199370000Y-87137500D03*
X201270000Y-87137500D03*
%TD*%
D31*
%TO.C,F4*%
X196120000Y-91137500D03*
X196120000Y-89262500D03*
%TD*%
D40*
%TO.C,C4*%
X117070000Y-34200000D03*
X117070000Y-36100000D03*
%TD*%
D41*
%TO.C,U3*%
X126870000Y-57262500D03*
X124970000Y-57262500D03*
X124970000Y-59537500D03*
X125920000Y-59537500D03*
X126870000Y-59537500D03*
%TD*%
%TO.C,U4*%
X121520000Y-32537500D03*
X120570000Y-32537500D03*
X119620000Y-32537500D03*
X119620000Y-30262500D03*
X120570000Y-30262500D03*
X121520000Y-30262500D03*
%TD*%
D31*
%TO.C,F3*%
X75720000Y-89462500D03*
X75720000Y-91337500D03*
%TD*%
D33*
%TO.C,D2*%
X73370000Y-85462500D03*
X75270000Y-85462500D03*
X74320000Y-87337500D03*
%TD*%
%LPD*%
M02*
