M48
; DRILL file {KiCad 8.0.3} date 2024-07-30T03:57:48+0200
; FORMAT={-:-/ absolute / inch / decimal}
; #@! TF.CreationDate,2024-07-30T03:57:48+02:00
; #@! TF.GenerationSoftware,Kicad,Pcbnew,8.0.3
; #@! TF.FileFunction,NonPlated,1,2,NPTH
FMAT,2
INCH
; #@! TA.AperFunction,NonPlated,NPTH,ComponentDrill
T1C0.0748
; #@! TA.AperFunction,NonPlated,NPTH,ComponentDrill
T2C0.1260
; #@! TA.AperFunction,NonPlated,NPTH,ComponentDrill
T3C0.1988
%
G90
G05
T1
X2.6307Y-1.3543
X2.7685Y-5.685
X3.0638Y-1.3543
X3.2016Y-5.685
X3.5756Y-3.4803
X3.9299Y-1.3543
X4.0087Y-3.4803
X4.363Y-1.3543
X4.3827Y-5.685
X4.8157Y-5.685
X5.1898Y-3.4803
X5.2291Y-1.3543
X5.6228Y-3.4803
X5.6622Y-1.3543
X5.9969Y-5.685
X6.4299Y-5.685
X6.5283Y-1.3543
X6.8039Y-3.4803
X6.9614Y-1.3543
X7.237Y-3.4803
X7.611Y-5.685
X8.0441Y-5.685
T2
X2.1583Y-1.0591
X2.1583Y-6.7677
X8.6543Y-1.0591
X8.6543Y-6.7677
T3
X2.8472Y-1.3543
X2.985Y-5.685
X3.7921Y-3.4803
X4.1465Y-1.3543
X4.5992Y-5.685
X5.4063Y-3.4803
X5.4457Y-1.3543
X6.2134Y-5.685
X6.7449Y-1.3543
X7.0205Y-3.4803
X7.8276Y-5.685
M30
